<svg width="54" height="54" viewBox="0 0 54 54" fill="none" xmlns="http://www.w3.org/2000/svg">
<g id="Frame" clip-path="url(#clip0_275_20593)">
<path id="Vector" d="M47.6288 0.875958C47.2698 0.864056 46.9104 0.867563 46.5513 0.871601C46.4262 1.06542 46.1342 0.82899 45.9958 0.988489C43.4798 1.6446 42.2169 3.31568 42.0716 5.91926C40.7344 5.40378 39.4061 5.04935 38.0171 4.90547C36.0331 4.70017 34.087 4.89739 32.1636 5.35947C27.8275 6.40222 24.1351 8.64089 20.8249 11.5589C19.4558 12.7659 18.2138 14.1205 16.4978 14.8862C14.5007 15.7776 12.378 16.1926 10.258 16.6309C8.6647 16.9601 7.05722 17.2195 5.51084 17.7605C3.83291 18.3475 2.92937 19.5295 2.66387 21.2516C2.6491 21.3465 2.60298 21.4366 2.57164 21.5289C2.54619 21.5681 2.52201 21.5855 2.49858 21.5829C2.47712 21.7615 2.5482 21.9521 2.43652 22.1195V22.239C2.53227 22.5171 2.53227 22.7959 2.43652 23.0744V23.1936C2.55718 23.4021 2.47164 23.6316 2.50002 23.8492C2.52387 23.8466 2.5482 23.8643 2.57376 23.9022C2.8612 25.3629 3.20751 26.8043 3.78733 28.1847C5.15704 31.4458 7.13091 34.3181 9.42846 36.9791C12.8529 40.9442 16.6536 44.4841 21.2105 47.1326C23.7572 48.6123 26.4403 49.7577 29.4407 49.8621C31.1895 49.9228 32.8826 49.6886 34.0401 48.1418C34.6069 47.3835 34.8854 46.4826 35.1334 45.5811C35.7338 43.3984 36.1292 41.1646 36.7975 38.9981C37.4765 36.7978 38.5443 34.839 40.1735 33.1836C42.678 30.6375 44.7075 27.7554 46.0653 24.438C47.6615 20.5378 48.2628 16.5289 47.1997 12.3749C47.0428 11.7626 46.8159 11.1686 46.6216 10.5662C49.723 10.0783 51.1054 8.95049 51.6191 6.48728C51.7435 6.38256 51.5836 6.14305 51.7263 6.0464V5.01396C51.8315 3.02298 49.5562 0.788026 47.6288 0.875958ZM39.1953 9.71058C35.4436 10.4227 32.646 12.7441 29.965 15.2337C27.3503 17.6609 25.0603 20.3895 22.8147 23.1544C20.6917 25.7682 18.1478 27.8093 14.9148 28.8877C14.2587 29.1067 13.5677 29.2225 12.8914 29.3794C12.3386 29.5073 11.8663 29.3745 11.3982 29.0322C10.1416 28.1138 9.17423 26.9971 8.75221 25.4693C8.68925 25.2414 8.66661 25.0017 8.62777 24.7671C8.57958 24.4785 8.65094 24.345 8.99528 24.3509C11.9614 24.3984 14.6585 23.4439 17.2284 22.067C20.0411 20.5595 22.4282 18.494 24.734 16.3177C26.6264 14.5309 28.423 12.6331 30.5845 11.1491C33.0234 9.47569 35.6893 8.81846 38.6201 9.33038C38.8144 9.36433 39.0033 9.42877 39.1942 9.4792C39.266 9.55602 39.2652 9.63317 39.1953 9.71058ZM46.9144 8.10433C45.6219 8.12021 44.5147 7.03134 44.4959 5.72607C44.477 4.43159 45.5645 3.32785 46.8736 3.31334C48.1828 3.29916 49.272 4.36916 49.2874 5.68543C49.3025 6.98549 48.2205 8.08833 46.9144 8.10433ZM22.1795 49.9908C19.7389 48.8422 17.5208 47.3391 15.4216 45.6576C15.1252 45.4204 14.9398 45.4366 14.6817 45.684C13.2494 47.0554 12.7171 48.6911 13.2723 50.6133C13.7999 52.4383 15.0846 53.4936 16.8766 53.9879C17.4753 53.9919 18.074 53.9963 18.6729 54.0001C20.5543 53.5847 21.8195 52.4839 22.4315 50.6429C22.5339 50.3345 22.5191 50.1509 22.1795 49.9908Z" fill="white"/>
</g>
<defs>
<clipPath id="clip0_275_20593">
<rect width="54" height="54" fill="white"/>
</clipPath>
</defs>
</svg>
