<svg width="1921" height="4781" viewBox="0 0 1921 4781" fill="none" xmlns="http://www.w3.org/2000/svg">
<g filter="url(#filter0_b_302_828)">
<path d="M1737.31 56.0391C1647.7 127.314 1590.72 115.318 1556.39 104.306C1556.39 104.306 1514.58 239.002 1337.08 160.656C1337.08 160.656 1303.37 260.571 1144.64 267.291C985.915 274.045 960.038 351.039 960.038 351.039C960.038 351.039 933.162 274.963 774.435 268.244C615.709 261.489 581.997 161.609 581.997 161.609C404.495 239.955 362.683 105.259 362.683 105.259C328.357 116.271 271.379 128.302 181.764 56.9923C92.1489 -14.3178 0 6.8958 0 6.8958L0 4781H1921L1920 5.94268C1920 5.94268 1826.85 -15.2358 1737.24 56.0391H1737.31Z" fill="url(#paint0_radial_302_828)" fill-opacity="0.85"/>
</g>
<path d="M1.19189 6.0201C9.25412 3.60033 17.777 2.29444 26.3384 1.41104C34.9381 0.527632 43.653 0.258765 52.3294 0.566037C61.0443 0.873308 69.7592 1.67989 78.3973 3.0242C87.0354 4.33011 95.5199 6.32734 103.889 8.63187C112.22 11.0132 120.359 13.8555 128.345 17.0434C132.222 18.7334 136.253 20.3082 140.054 22.1902L145.813 24.9557C147.694 25.9159 149.537 26.9145 151.38 27.9132C158.828 31.8693 165.853 36.3247 172.802 40.8569C176.142 43.2383 179.559 45.5428 182.861 48.001L192.343 55.3755C195.415 57.7569 198.524 60.3303 201.557 62.558C204.59 64.8241 207.547 67.0903 210.733 69.2796C216.914 73.7734 223.364 77.96 229.852 82.0313C236.417 85.949 243.059 89.7899 249.969 93.0931C256.803 96.4731 263.79 99.5073 270.931 102.004C285.174 107.074 299.993 109.839 314.429 109.724C321.685 109.647 328.825 108.841 335.928 107.304C343.03 105.806 350.056 103.579 357.35 100.928L373.974 94.9367L379.771 110.147L380.769 112.72L381.998 115.639C382.881 117.598 383.84 119.557 384.839 121.516C386.873 125.395 389.139 129.236 391.596 132.923C396.548 140.298 402.307 147.25 408.872 153.395C415.437 159.502 422.846 164.764 430.947 168.874C439.048 172.984 447.762 176.056 457.015 177.785C461.622 178.668 466.382 179.206 471.181 179.513C475.98 179.82 480.894 179.782 485.847 179.513C490.799 179.321 495.79 178.745 500.781 178.054C505.772 177.285 510.801 176.402 515.792 175.211C520.783 174.097 525.736 172.715 530.727 171.255C535.679 169.719 540.593 168.067 545.469 166.3C550.345 164.534 555.22 162.613 560.019 160.616L567.199 157.505L574.339 154.24L593.42 145.521L599.831 162.652L600.139 163.458L600.599 164.61C600.945 165.379 601.29 166.185 601.674 166.992C602.442 168.605 603.287 170.257 604.17 171.87C605.936 175.134 607.932 178.361 610.082 181.549C614.343 187.925 619.296 194.032 624.748 199.793C630.238 205.554 636.303 210.97 642.792 216.04C649.28 221.11 656.267 225.757 663.677 229.982C671.086 234.207 678.88 237.971 687.019 241.351C695.119 244.731 703.565 247.651 712.242 250.147C729.595 255.102 747.869 258.443 766.528 260.325C768.869 260.594 771.211 260.748 773.553 260.978L780.963 261.631C785.838 262.092 790.599 262.438 795.744 263.129C800.811 263.744 805.917 264.32 810.831 265.165L818.279 266.356L825.651 267.777C835.517 269.659 845.192 272.117 854.79 274.844C864.272 277.763 873.64 281.028 882.624 284.869C891.607 288.748 900.284 293.05 908.461 297.928C916.639 302.806 924.24 308.375 931.112 314.367C937.984 320.397 944.204 326.927 949.348 333.955C954.377 341.023 958.792 348.436 961.096 356.309C957.218 348.896 951.767 342.213 945.701 336.068C939.52 329.961 932.801 324.315 925.469 319.322C918.136 314.29 910.189 309.95 902.011 306.071C893.796 302.191 885.234 298.85 876.481 295.969C867.689 293.127 858.629 290.861 849.492 288.863C840.316 286.981 831.102 285.33 821.696 284.254L814.671 283.409L807.607 282.756C802.884 282.257 798.239 282.026 793.594 281.719C789.063 281.374 783.996 281.297 779.158 281.143L771.941 280.951C769.407 280.874 766.873 280.797 764.339 280.682C744.03 279.684 723.567 277.225 703.642 272.424C693.66 270.043 683.832 267.162 674.273 263.667C664.675 260.21 655.384 256.101 646.477 251.453C637.57 246.806 629.047 241.582 621.024 235.859C613.038 230.098 605.629 223.799 598.833 217.077C592.038 210.355 585.857 203.173 580.405 195.568C577.679 191.766 575.184 187.848 572.842 183.815C571.69 181.779 570.577 179.744 569.54 177.593C569.003 176.517 568.504 175.442 568.005 174.328L567.275 172.638L566.891 171.716L566.469 170.564L591.961 178.975L584.206 182.663L576.297 186.235C570.999 188.539 565.586 190.767 560.058 192.879C554.529 194.953 548.886 196.874 543.165 198.679C537.368 200.408 531.533 202.059 525.544 203.48C519.555 204.901 513.412 206.054 507.193 207.052C500.935 207.936 494.6 208.704 488.112 208.973C481.662 209.242 475.136 209.318 468.532 208.819C461.967 208.397 455.402 207.552 448.876 206.284C435.899 203.749 423.307 199.371 412.097 193.456C400.886 187.541 391.058 180.166 382.689 172.1C374.358 163.996 367.332 155.239 361.65 146.021C358.771 141.411 356.237 136.726 353.933 131.924C352.782 129.543 351.707 127.085 350.709 124.627L349.25 120.863L348.559 118.904L347.868 116.676L370.288 125.856C361.919 128.698 352.859 131.31 343.337 133C333.855 134.728 323.95 135.535 314.16 135.304C304.37 135.074 294.657 133.845 285.405 131.771C276.152 129.697 267.322 126.855 258.991 123.513C250.66 120.133 242.752 116.292 235.227 112.144C227.664 107.996 220.676 103.387 213.804 98.7392C210.464 96.3194 207.047 93.9765 203.823 91.4799L198.947 87.7926L194.225 83.9902C191.077 81.4936 188.044 78.805 184.972 76.1547C181.863 73.5045 179.175 70.9312 176.257 68.3194L167.811 60.7143L159.212 53.4935C153.261 48.8844 147.195 44.3138 140.745 40.1656C134.372 35.9022 127.615 32.0998 120.743 28.4125C113.756 24.8789 106.538 21.5757 99.0904 18.7334C91.604 15.8912 83.8489 13.5098 75.9786 11.3973C68.07 9.32324 59.9694 7.67168 51.7152 6.55782C43.461 5.44396 35.0916 4.82942 26.6455 4.63737C18.1994 4.52215 9.71482 4.82938 1.30707 6.09687L1.19189 6.0201Z" fill="url(#paint1_radial_302_828)"/>
<path d="M961.096 356.309C963.476 348.474 967.93 341.061 973.036 334.07C978.219 327.08 984.438 320.589 991.349 314.597C998.259 308.605 1005.9 303.19 1014.04 298.273C1022.18 293.357 1030.89 289.132 1039.88 285.329C1048.86 281.527 1058.23 278.339 1067.71 275.458C1077.23 272.731 1086.91 270.235 1096.77 268.43L1104.14 267.008L1111.55 265.818C1116.51 264.973 1121.5 264.397 1126.45 263.782C1131.44 263.091 1136.43 262.745 1141.42 262.284L1148.72 261.67C1151.13 261.478 1153.63 261.286 1155.86 261.017C1165.03 260.133 1174.44 258.789 1183.5 257.137C1192.64 255.486 1201.58 253.45 1210.3 250.953C1219.01 248.457 1227.5 245.538 1235.67 242.158C1243.85 238.816 1251.72 235.014 1259.17 230.75C1274.06 222.262 1287.31 211.968 1298.33 200.369C1303.82 194.569 1308.77 188.385 1313.07 181.971C1315.22 178.783 1317.18 175.518 1318.94 172.215C1319.83 170.564 1320.67 168.912 1321.44 167.299C1321.82 166.492 1322.17 165.686 1322.51 164.879L1322.98 163.727L1323.28 162.882L1329.23 146.712L1347.43 154.893L1354.61 158.119L1361.83 161.192C1366.66 163.189 1371.54 165.071 1376.45 166.838C1381.37 168.605 1386.32 170.18 1391.31 171.677C1396.3 173.099 1401.29 174.481 1406.28 175.557C1411.31 176.709 1416.34 177.592 1421.33 178.322C1426.36 178.975 1431.35 179.513 1436.31 179.667C1441.26 179.82 1446.17 179.897 1450.97 179.551C1455.77 179.206 1460.53 178.63 1465.14 177.708C1474.39 175.902 1483.07 172.83 1491.09 168.643C1499.12 164.495 1506.45 159.195 1512.94 153.088C1519.42 146.942 1525.11 140.029 1529.91 132.616C1532.32 128.928 1534.55 125.087 1536.55 121.208C1537.55 119.249 1538.47 117.291 1539.31 115.37L1540.54 112.451L1541.5 109.916L1547.49 93.8227L1565.19 100.198C1572.48 102.81 1579.43 104.961 1586.49 106.421C1593.52 107.919 1600.58 108.687 1607.73 108.764C1622.01 108.841 1636.6 106.037 1650.72 101.043C1657.79 98.5469 1664.7 95.5127 1671.53 92.2095C1678.4 88.9447 1684.97 85.1038 1691.53 81.1861C1694.76 79.1504 1698.02 77.1916 1701.17 75.0023L1705.93 71.8143L1710.61 68.5111C1716.87 64.1325 1722.94 59.4851 1728.89 54.7224L1733.69 50.9967L1738.37 47.4247C1741.63 45.0049 1745.21 42.5467 1748.62 40.127C1755.57 35.5563 1762.64 31.1009 1770.16 27.1448C1777.57 23.0734 1785.4 19.5398 1793.31 16.2366C1801.37 13.0871 1809.55 10.2833 1817.96 7.94033C1826.37 5.6358 1834.93 3.79216 1843.6 2.40944C1852.28 1.02672 1861.03 0.335357 1869.79 0.0664942C1878.54 -0.12555 1887.25 0.0664731 1895.85 1.0651C1904.42 2.06374 1912.98 3.40809 1921 5.90467C1912.55 4.7524 1904.07 4.48351 1895.62 4.67555C1887.18 4.94441 1878.85 5.55897 1870.63 6.78805C1862.41 7.94032 1854.35 9.70714 1846.48 11.7812C1838.61 13.8553 1830.93 16.3519 1823.49 19.1941C1816.08 22.1132 1808.94 25.4164 1802.02 28.9884C1795.19 32.6757 1788.43 36.4013 1782.1 40.7031C1775.73 44.8513 1769.66 49.3835 1763.75 53.9926C1760.95 56.3739 1758.18 58.6401 1755.34 61.0983L1746.89 68.78C1741.06 74.1573 1735.11 79.4577 1728.81 84.5661C1722.63 89.7513 1715.99 94.6292 1709.23 99.3919C1702.32 104.078 1695.3 108.687 1687.69 112.873C1680.13 117.06 1672.18 120.901 1663.78 124.319C1655.37 127.699 1646.46 130.542 1637.13 132.654C1627.8 134.69 1617.98 135.919 1608.07 136.149C1598.17 136.341 1588.18 135.535 1578.62 133.768C1569.03 132.039 1559.97 129.312 1551.56 126.47L1575.25 116.753L1574.52 119.019L1573.83 120.978L1572.37 124.742C1571.37 127.238 1570.25 129.658 1569.1 132.078C1566.76 136.879 1564.19 141.603 1561.27 146.174C1555.44 155.354 1548.37 164.149 1539.96 172.254C1531.52 180.32 1521.61 187.656 1510.33 193.532C1499.04 199.37 1486.41 203.749 1473.39 206.207C1466.9 207.436 1460.3 208.243 1453.74 208.627C1447.17 209.049 1440.65 209.011 1434.2 208.627C1427.75 208.32 1421.41 207.513 1415.19 206.591C1408.97 205.593 1402.87 204.402 1396.92 202.942C1390.93 201.521 1385.09 199.87 1379.33 198.103C1373.61 196.298 1368.01 194.3 1362.52 192.188C1357.03 190.075 1351.65 187.809 1346.36 185.466L1338.52 181.856L1330.81 178.13L1354.96 170.18L1354.53 171.293L1354.15 172.177L1353.42 173.867C1352.92 174.981 1352.42 176.056 1351.88 177.093C1350.85 179.206 1349.73 181.241 1348.58 183.239C1346.28 187.272 1343.71 191.112 1340.98 194.915C1335.53 202.443 1329.39 209.587 1322.59 216.27C1309.08 229.675 1292.91 241.198 1275.14 250.416C1266.27 255.025 1257.02 259.096 1247.5 262.591C1237.98 266.087 1228.19 268.967 1218.24 271.349C1208.34 273.73 1198.28 275.574 1188.18 276.956C1178.05 278.339 1168.03 279.222 1157.74 279.722C1155.13 279.875 1152.71 279.952 1150.25 280.029L1142.92 280.26C1138.16 280.413 1133.4 280.49 1128.68 280.874C1123.95 281.143 1119.19 281.412 1114.47 281.911L1107.41 282.564L1100.38 283.447C1090.97 284.6 1081.72 286.213 1072.51 288.095C1063.37 290.131 1054.31 292.435 1045.48 295.354C1036.69 298.273 1028.17 301.692 1019.91 305.571C1011.66 309.45 1003.79 313.906 996.455 318.976C989.16 324.046 982.403 329.692 976.299 335.837C970.31 342.059 964.897 348.743 961.096 356.194V356.309Z" fill="url(#paint2_radial_302_828)"/>
<defs>
<filter id="filter0_b_302_828" x="-500" y="-497" width="2921" height="5778" filterUnits="userSpaceOnUse" color-interpolation-filters="sRGB">
<feFlood flood-opacity="0" result="BackgroundImageFix"/>
<feGaussianBlur in="BackgroundImageFix" stdDeviation="250"/>
<feComposite in2="SourceAlpha" operator="in" result="effect1_backgroundBlur_302_828"/>
<feBlend mode="normal" in="SourceGraphic" in2="effect1_backgroundBlur_302_828" result="shape"/>
</filter>
<radialGradient id="paint0_radial_302_828" cx="0" cy="0" r="1" gradientUnits="userSpaceOnUse" gradientTransform="translate(989.599 308.539) scale(1947.69 1267.06)">
<stop offset="0.24" stop-color="#00494F"/>
<stop offset="0.51" stop-color="#00323B"/>
<stop offset="1" stop-color="#002127"/>
</radialGradient>
<radialGradient id="paint1_radial_302_828" cx="0" cy="0" r="1" gradientUnits="userSpaceOnUse" gradientTransform="translate(487.575 173.496) scale(382.725 313.977)">
<stop offset="0.02" stop-color="#FAF4B8"/>
<stop offset="0.27" stop-color="#FCD258"/>
<stop offset="0.66" stop-color="#B17811"/>
<stop offset="0.78" stop-color="#E6BA3B"/>
<stop offset="1" stop-color="#C99E43"/>
</radialGradient>
<radialGradient id="paint2_radial_302_828" cx="0" cy="0" r="1" gradientUnits="userSpaceOnUse" gradientTransform="translate(1436.15 173.496) scale(382.725 313.977)">
<stop offset="0.02" stop-color="#FAF4B8"/>
<stop offset="0.27" stop-color="#FCD258"/>
<stop offset="0.66" stop-color="#B17811"/>
<stop offset="0.78" stop-color="#E6BA3B"/>
<stop offset="1" stop-color="#C99E43"/>
</radialGradient>
</defs>
</svg>
