<svg width="28" height="28" viewBox="0 0 28 28" fill="none" xmlns="http://www.w3.org/2000/svg">
<g id="GlobeHemisphereWest">
<path id="Vector (Stroke)" fill-rule="evenodd" clip-rule="evenodd" d="M14 4.375C8.68426 4.375 4.375 8.68426 4.375 14C4.375 19.3157 8.68426 23.625 14 23.625C19.3157 23.625 23.625 19.3157 23.625 14C23.625 8.68426 19.3157 4.375 14 4.375ZM2.625 14C2.625 7.71776 7.71776 2.625 14 2.625C20.2822 2.625 25.375 7.71776 25.375 14C25.375 20.2822 20.2822 25.375 14 25.375C7.71776 25.375 2.625 20.2822 2.625 14Z" fill="#FFAC0D"/>
<path id="Vector (Stroke)_2" fill-rule="evenodd" clip-rule="evenodd" d="M13.68 13.8631C14.0103 13.6789 14.3914 13.6066 14.7663 13.6572L14.6914 14.2127L14.7663 13.6572L17.2621 13.9936L17.1455 14.8584L17.2621 13.9936C17.5043 14.0262 17.7369 14.1093 17.9451 14.2373C17.9451 14.2373 17.9451 14.2373 17.9451 14.2373L23.8826 17.8891C24.2943 18.1423 24.4227 18.6812 24.1696 19.0929C23.9164 19.5045 23.3775 19.6329 22.9658 19.3798L17.0283 15.7279M17.0283 15.7279L17.1452 14.8608L17.0283 15.7279L14.5325 15.3915L13.0342 18.7535L12.3441 18.446L13.0342 18.7535L15.0904 20.9776C15.2769 21.1792 15.4132 21.4219 15.4885 21.6861C15.5637 21.9502 15.5758 22.2283 15.5236 22.4979L15.1048 24.6632C15.013 25.1376 14.554 25.4478 14.0795 25.3561C13.6051 25.2643 13.2948 24.8053 13.3866 24.3308L13.8054 22.1656L11.7492 19.9415L12.3851 19.3536L11.7492 19.9415C11.5168 19.6901 11.3632 19.3761 11.3075 19.0383C11.2518 18.7005 11.2964 18.3538 11.4357 18.0411L12.235 18.3973L11.4357 18.0411L12.934 14.6791C13.088 14.3337 13.3497 14.0474 13.68 13.8631M17.4867 14.9826L17.4873 14.9816L17.4867 14.9826Z" fill="#FFAC0D"/>
<path id="Vector (Stroke)_3" fill-rule="evenodd" clip-rule="evenodd" d="M7.44508 5.27605C7.89016 5.46428 8.09839 5.97768 7.91016 6.42277L6.93189 8.73602L8.1887 12.0904L10.5326 12.5941C10.7927 12.65 11.0367 12.7645 11.2459 12.9289C11.4551 13.0932 11.6241 13.3031 11.74 13.5426L10.9524 13.9238L11.74 13.5426L12.1563 14.4025L13.6255 14.4025C14.1087 14.4025 14.5005 14.7942 14.5005 15.2775C14.5005 15.7607 14.1087 16.1525 13.6255 16.1525H12.1563C11.8275 16.1525 11.5053 16.0598 11.2267 15.8852C10.9481 15.7105 10.7244 15.4609 10.5811 15.165L11.3687 14.7837L10.5811 15.165L10.1649 14.3051L7.82097 13.8013C7.53415 13.7396 7.26743 13.6069 7.04533 13.4152C6.82323 13.2235 6.65289 12.9791 6.54995 12.7044L5.29314 9.35003C5.13599 8.93061 5.14564 8.46691 5.32009 8.05439L6.29836 5.74114C6.48659 5.29605 6.99999 5.08783 7.44508 5.27605Z" fill="#FFAC0D"/>
<path id="Vector (Stroke)_4" fill-rule="evenodd" clip-rule="evenodd" d="M16.2486 3.08037C16.6706 2.8448 17.2036 2.99589 17.4392 3.41783L18.46 5.24641C18.653 5.59213 18.7231 5.9931 18.6588 6.38379C18.5944 6.77449 18.3995 7.13182 18.1058 7.39741L15.1625 10.0593L15.1625 10.0593C15.0626 10.1497 14.9526 10.2282 14.8346 10.2933L14.8346 10.2933L13.4957 11.0327C13.2367 11.1758 12.9456 11.2508 12.6497 11.2508H10.315L9.40426 13.413C9.21666 13.8583 8.70355 14.0673 8.2582 13.8797C7.81286 13.6921 7.60391 13.179 7.79151 12.7336L8.70229 10.5714C8.83597 10.2541 9.06028 9.98327 9.34716 9.79283C9.63403 9.60239 9.97071 9.5008 10.315 9.5008H12.6497L13.9886 8.76139L13.9886 8.76139L16.932 6.09947L15.9112 4.2709C15.6756 3.84895 15.8267 3.31593 16.2486 3.08037Z" fill="#FFAC0D"/>
</g>
</svg>
