<svg width="176" height="104" viewBox="0 0 176 104" fill="none" xmlns="http://www.w3.org/2000/svg">
<g id="Group" opacity="0.2">
<path id="Vector" d="M38.5282 66.3471C38.5282 66.3471 38.4061 66.2731 38.2804 66.1287L44.4749 67.795L40.7508 64.6289L40.6621 64.4142L40.5659 64.2994C37.2449 59.2262 37.1487 54.2123 37.4742 52.3867L36.1428 50.1538L34.8003 49.9242C34.4379 49.5798 24.8706 41.3406 14.4933 39.5965L12.5813 39.2743L12.7958 41.2036C12.977 42.8292 14.7559 57.1784 21.2463 59.7965L21.2981 59.815C28.9571 62.5663 37.5999 65.7917 38.5208 66.3508L38.5282 66.3471Z" fill="url(#paint0_radial_275_20595)"/>
<path id="Vector_2" d="M12.585 39.2706C12.585 39.2706 16.0206 57.334 25.1664 60.5038C25.1664 60.5038 41.6864 66.462 41.8935 66.9693C41.8935 66.9693 35.1184 55.5973 35.7471 52.0498C35.7471 52.0498 22.6442 40.9592 12.585 39.2706Z" fill="url(#paint1_linear_275_20595)"/>
<path id="Vector_3" d="M64.3272 103.581C71.5314 103.581 85.1964 98.2451 87.1047 90.5243L88.9427 89.5319L82.5892 85.7844C79.0388 83.5626 78.3214 82.5073 77.7408 81.4334L73.3288 81.5075L71.9049 80.8965C71.7607 80.8335 57.3413 74.6087 51.4943 68.3247L51.2983 68.1136L51.0394 67.9914C50.518 65.1808 21.9491 54.5716 0 53.0275L0.425298 55.1641C0.502961 55.5603 2.44824 65.0179 10.3551 74.5791C17.6332 83.3812 39.3863 103.574 64.3272 103.574V103.581Z" fill="url(#paint2_radial_275_20595)"/>
<path id="Vector_4" d="M0.00369833 53.0348C4.48227 77.4859 64.3605 124.585 83.0995 88.4321C83.0995 88.4321 73.669 83.77 74.612 81.8703C74.612 81.8703 56.5572 75.9121 50.4255 69.3244C50.4255 69.3244 30.0223 58.8597 0 53.0311L0.00369833 53.0348Z" fill="url(#paint3_linear_275_20595)"/>
<path id="Vector_5" d="M138.773 66.3471C138.773 66.3471 138.895 66.2731 139.021 66.1287L132.826 67.795L136.55 64.6289L136.639 64.4142L136.735 64.2994C140.056 59.2262 140.152 54.2123 139.827 52.3867L141.158 50.1538L142.501 49.9242C142.867 49.5798 152.431 41.3406 162.808 39.5965L164.72 39.2743L164.505 41.2036C164.324 42.8292 162.545 57.1784 156.055 59.7965L156.003 59.815C148.344 62.5663 139.701 65.7917 138.78 66.3508L138.773 66.3471Z" fill="url(#paint4_radial_275_20595)"/>
<path id="Vector_6" d="M164.716 39.2706C164.716 39.2706 161.28 57.334 152.134 60.5038C152.134 60.5038 135.618 66.462 135.407 66.9693C135.407 66.9693 142.182 55.5973 141.554 52.0498C141.554 52.0498 154.657 40.9592 164.716 39.2706Z" fill="url(#paint5_linear_275_20595)"/>
<path id="Vector_7" d="M113.584 45.9954C112.608 42.7367 110.504 35.4454 109.475 34.253C108.007 32.5497 107.87 26.4174 116.761 20.0593L118.089 19.1077C118.089 19.1077 124.335 24.4622 124.649 35.5343C124.708 37.6265 126.254 31.5795 123.906 38.7152L125.315 41.7109L123.769 39.2707C121.957 42.2294 122.656 43.8328 122.497 44.8252C122.504 44.7734 120.267 47.9172 120.267 47.8802L113.58 45.9954H113.584Z" fill="url(#paint6_linear_275_20595)"/>
<path id="Vector_8" d="M117.826 20.4479C117.826 20.4479 125.47 29.761 122.896 37.0189C122.896 37.0189 117.342 46.195 117.342 47.3985C117.342 47.3985 112.519 35.9747 111.103 34.2676C109.69 32.5568 111.221 26.8467 117.822 20.4516L117.826 20.4479Z" fill="url(#paint7_linear_275_20595)"/>
<path id="Vector_9" d="M111.428 103.581C104.224 103.581 90.5589 98.2451 88.6469 90.5243L86.8088 89.5319L93.1624 85.7844C96.7127 83.5626 97.4302 82.5073 98.0108 81.4334L102.423 81.5075L103.847 80.8965C103.991 80.8335 118.41 74.6087 124.257 68.3247L124.453 68.1136L124.712 67.9914C125.234 65.1808 153.803 54.5716 175.752 53.0275L175.326 55.1641C175.249 55.5603 173.303 65.0179 165.396 74.5791C158.115 83.3812 136.365 103.574 111.424 103.574L111.428 103.581Z" fill="url(#paint8_radial_275_20595)"/>
<path id="Vector_10" d="M175.752 53.0348C170.36 75.8344 115.463 123.737 92.6558 88.4321C92.6558 88.4321 102.086 83.77 101.143 81.8703C101.143 81.8703 119.198 75.9121 125.33 69.3244C125.33 69.3244 145.733 58.8597 175.755 53.0311L175.752 53.0348Z" fill="url(#paint9_linear_275_20595)"/>
<path id="Vector_11" d="M114.054 77.6006C112.97 77.4007 122.578 63.6624 117.49 47.8616L117.342 47.3988L116.047 45.9953C116.332 45.1695 124.605 26.6692 138.477 19.389L139.971 18.604L140.537 20.1963C140.696 20.6407 144.402 31.2684 143.525 43.966C142.708 55.8231 139.631 73.457 111.783 82.4924L114.054 77.6006Z" fill="url(#paint10_radial_275_20595)"/>
<path id="Vector_12" d="M139.157 20.6852C139.157 20.6852 153.525 67.7914 112.648 79.4671C112.648 79.4671 123.429 62.585 118.085 45.9917C118.085 45.9917 125.64 27.7765 139.157 20.6815V20.6852Z" fill="url(#paint11_linear_275_20595)"/>
<path id="Vector_13" d="M63.7169 45.9954C64.6933 42.7367 66.7976 35.4454 67.822 34.253C69.2902 32.5497 69.427 26.4174 60.5365 20.0593L59.2088 19.1077C59.2088 19.1077 52.9625 24.4622 52.6481 35.5343C52.5889 37.6265 51.0468 31.5795 53.3915 38.7152L51.9824 41.7109L53.5283 39.2707C55.3404 42.2294 54.6415 43.8328 54.8005 44.8252C54.7931 44.7734 57.0305 47.9172 57.0305 47.8802L63.7169 45.9954Z" fill="url(#paint12_linear_275_20595)"/>
<path id="Vector_14" d="M59.4751 20.4479C59.4751 20.4479 51.9011 29.5721 54.475 36.8301C54.475 36.8301 59.9595 46.195 59.9595 47.3985C59.9595 47.3985 66.4093 35.9636 67.822 34.2528C67.1341 29.9721 66.0764 26.8467 59.4751 20.4479Z" fill="url(#paint13_linear_275_20595)"/>
<path id="Vector_15" d="M63.2473 77.6006C64.3309 77.4007 54.7229 63.6624 59.8117 47.8616L59.9596 47.3988L61.254 45.9953C60.9692 45.1695 52.6962 26.6692 38.8241 19.389L37.3301 18.604L36.7642 20.1963C36.6052 20.6407 32.8996 31.2684 33.776 43.966C34.5934 55.8231 37.6703 73.457 65.5181 82.4924L63.2473 77.6006Z" fill="url(#paint14_radial_275_20595)"/>
<path id="Vector_16" d="M37.7667 20.1631C37.7667 20.1631 23.6727 66.2955 63.4251 78.9006C63.4251 78.9006 53.1144 64.0736 59.2904 45.9917C59.2904 45.9917 51.4502 26.7323 37.7667 20.1594V20.1631Z" fill="url(#paint15_linear_275_20595)"/>
<path id="Vector_17" d="M88.6504 91.9869C69.9521 91.9869 55.3145 76.4231 55.995 58.0005C56.6274 40.8111 86.5868 3.04018 87.8035 1.51083L89.0055 0L90.1926 1.52194C91.3834 3.0513 120.677 40.8185 121.31 57.9968C121.99 76.4194 107.349 91.9832 88.6504 91.9832V91.9869Z" fill="url(#paint16_radial_275_20595)"/>
<path id="Vector_18" d="M117.707 60.2224C117.707 76.9563 104.697 90.5205 88.6504 90.5205C72.6037 90.5205 59.5933 76.9563 59.5933 60.2224C59.5933 43.4884 88.9906 2.52917 88.9906 2.52917C88.9906 2.52917 117.707 43.4884 117.707 60.2224Z" fill="url(#paint17_radial_275_20595)"/>
<path id="Vector_19" d="M118.78 60.2224C118.78 76.9563 105.289 90.5205 88.6506 90.5205C72.0122 90.5205 58.521 76.9563 58.521 60.2224C58.521 43.4884 89.0056 2.52917 89.0056 2.52917C89.0056 2.52917 118.78 43.4884 118.78 60.2224Z" fill="url(#paint18_linear_275_20595)"/>
</g>
<defs>
<radialGradient id="paint0_radial_275_20595" cx="0" cy="0" r="1" gradientUnits="userSpaceOnUse" gradientTransform="translate(28.5281 53.531) rotate(180) scale(15.1184 15.138)">
<stop offset="0.02" stop-color="#FAF4B8"/>
<stop offset="0.03" stop-color="#FAE99B"/>
<stop offset="0.04" stop-color="#FBE182"/>
<stop offset="0.05" stop-color="#FBDA6F"/>
<stop offset="0.06" stop-color="#FBD562"/>
<stop offset="0.07" stop-color="#FBD25A"/>
<stop offset="0.09" stop-color="#FCD258"/>
<stop offset="0.66" stop-color="#B17811"/>
<stop offset="0.78" stop-color="#E6BA3B"/>
<stop offset="1" stop-color="#C99E43"/>
</radialGradient>
<linearGradient id="paint1_linear_275_20595" x1="27.2374" y1="11.572" x2="27.2374" y2="108.295" gradientUnits="userSpaceOnUse">
<stop stop-color="#C6910C"/>
<stop offset="0.17" stop-color="#B7820B"/>
<stop offset="0.72" stop-color="#8C560A"/>
<stop offset="1" stop-color="#7C460A"/>
</linearGradient>
<radialGradient id="paint2_radial_275_20595" cx="0" cy="0" r="1" gradientUnits="userSpaceOnUse" gradientTransform="translate(44.4751 78.308) rotate(180) scale(36.1577 36.2045)">
<stop offset="0.02" stop-color="#FAF4B8"/>
<stop offset="0.03" stop-color="#FAE99B"/>
<stop offset="0.04" stop-color="#FBE182"/>
<stop offset="0.05" stop-color="#FBDA6F"/>
<stop offset="0.06" stop-color="#FBD562"/>
<stop offset="0.07" stop-color="#FBD25A"/>
<stop offset="0.09" stop-color="#FCD258"/>
<stop offset="0.66" stop-color="#B17811"/>
<stop offset="0.78" stop-color="#E6BA3B"/>
<stop offset="1" stop-color="#C99E43"/>
</radialGradient>
<linearGradient id="paint3_linear_275_20595" x1="3.69824" y1="52.3905" x2="83.6869" y2="107.062" gradientUnits="userSpaceOnUse">
<stop stop-color="#C6910C"/>
<stop offset="0.17" stop-color="#B7820B"/>
<stop offset="0.72" stop-color="#8C560A"/>
<stop offset="1" stop-color="#7C460A"/>
</linearGradient>
<radialGradient id="paint4_radial_275_20595" cx="0" cy="0" r="1" gradientUnits="userSpaceOnUse" gradientTransform="translate(148.769 -15.4417) scale(15.1184 15.138)">
<stop offset="0.02" stop-color="#FAF4B8"/>
<stop offset="0.03" stop-color="#FAE99B"/>
<stop offset="0.04" stop-color="#FBE182"/>
<stop offset="0.05" stop-color="#FBDA6F"/>
<stop offset="0.06" stop-color="#FBD562"/>
<stop offset="0.07" stop-color="#FBD25A"/>
<stop offset="0.09" stop-color="#FCD258"/>
<stop offset="0.66" stop-color="#B17811"/>
<stop offset="0.78" stop-color="#E6BA3B"/>
<stop offset="1" stop-color="#C99E43"/>
</radialGradient>
<linearGradient id="paint5_linear_275_20595" x1="150.06" y1="11.572" x2="150.06" y2="108.295" gradientUnits="userSpaceOnUse">
<stop stop-color="#C6910C"/>
<stop offset="0.17" stop-color="#B7820B"/>
<stop offset="0.72" stop-color="#8C560A"/>
<stop offset="1" stop-color="#7C460A"/>
</linearGradient>
<linearGradient id="paint6_linear_275_20595" x1="118.307" y1="19.2965" x2="116.813" y2="39.3111" gradientUnits="userSpaceOnUse">
<stop offset="0.18" stop-color="#FCD258"/>
<stop offset="1" stop-color="#B17811"/>
</linearGradient>
<linearGradient id="paint7_linear_275_20595" x1="117.024" y1="11.5976" x2="117.024" y2="108.317" gradientUnits="userSpaceOnUse">
<stop stop-color="#C6910C"/>
<stop offset="0.17" stop-color="#B7820B"/>
<stop offset="0.72" stop-color="#8C560A"/>
<stop offset="1" stop-color="#7C460A"/>
</linearGradient>
<radialGradient id="paint8_radial_275_20595" cx="0" cy="0" r="1" gradientUnits="userSpaceOnUse" gradientTransform="translate(131.284 78.308) scale(36.1577 36.2045)">
<stop offset="0.2" stop-color="#B17811"/>
<stop offset="0.6" stop-color="#E6BA3B"/>
<stop offset="0.91" stop-color="#FCD258"/>
</radialGradient>
<linearGradient id="paint9_linear_275_20595" x1="172.926" y1="68.7579" x2="101.483" y2="90.5357" gradientUnits="userSpaceOnUse">
<stop stop-color="#C6910C"/>
<stop offset="0.17" stop-color="#B7820B"/>
<stop offset="0.72" stop-color="#8C560A"/>
<stop offset="1" stop-color="#7C460A"/>
</linearGradient>
<radialGradient id="paint10_radial_275_20595" cx="0" cy="0" r="1" gradientUnits="userSpaceOnUse" gradientTransform="translate(127.719 50.55) scale(25.2183 25.2509)">
<stop offset="0.2" stop-color="#B17811"/>
<stop offset="0.6" stop-color="#E6BA3B"/>
<stop offset="0.91" stop-color="#FCD258"/>
</radialGradient>
<linearGradient id="paint11_linear_275_20595" x1="145.367" y1="19.1485" x2="115.691" y2="75.4954" gradientUnits="userSpaceOnUse">
<stop stop-color="#C6910C"/>
<stop offset="0.17" stop-color="#B7820B"/>
<stop offset="0.72" stop-color="#8C560A"/>
<stop offset="1" stop-color="#7C460A"/>
</linearGradient>
<linearGradient id="paint12_linear_275_20595" x1="53.7058" y1="21.5406" x2="62.0038" y2="39.4958" gradientUnits="userSpaceOnUse">
<stop offset="0.39" stop-color="#FCD258"/>
<stop offset="1" stop-color="#B17811"/>
</linearGradient>
<linearGradient id="paint13_linear_275_20595" x1="53.9425" y1="33.9232" x2="67.822" y2="33.9232" gradientUnits="userSpaceOnUse">
<stop stop-color="#C6910C"/>
<stop offset="0.17" stop-color="#B7820B"/>
<stop offset="0.72" stop-color="#8C560A"/>
<stop offset="1" stop-color="#7C460A"/>
</linearGradient>
<radialGradient id="paint14_radial_275_20595" cx="0" cy="0" r="1" gradientUnits="userSpaceOnUse" gradientTransform="translate(49.5786 50.55) rotate(180) scale(25.2183 25.2509)">
<stop offset="0.02" stop-color="#FAF4B8"/>
<stop offset="0.03" stop-color="#FAE99B"/>
<stop offset="0.04" stop-color="#FBE182"/>
<stop offset="0.05" stop-color="#FBDA6F"/>
<stop offset="0.06" stop-color="#FBD562"/>
<stop offset="0.07" stop-color="#FBD25A"/>
<stop offset="0.09" stop-color="#FCD258"/>
<stop offset="0.66" stop-color="#B17811"/>
<stop offset="0.78" stop-color="#E6BA3B"/>
<stop offset="1" stop-color="#C99E43"/>
</radialGradient>
<linearGradient id="paint15_linear_275_20595" x1="30.9619" y1="20.6741" x2="81.7847" y2="107.179" gradientUnits="userSpaceOnUse">
<stop stop-color="#C6910C"/>
<stop offset="0.17" stop-color="#B7820B"/>
<stop offset="0.72" stop-color="#8C560A"/>
<stop offset="1" stop-color="#7C460A"/>
</linearGradient>
<radialGradient id="paint16_radial_275_20595" cx="0" cy="0" r="1" gradientUnits="userSpaceOnUse" gradientTransform="translate(89.4678 100.274) scale(93.8022 93.9236)">
<stop offset="0.02" stop-color="#FAF4B8"/>
<stop offset="0.03" stop-color="#FAE99B"/>
<stop offset="0.04" stop-color="#FBE182"/>
<stop offset="0.05" stop-color="#FBDA6F"/>
<stop offset="0.06" stop-color="#FBD562"/>
<stop offset="0.07" stop-color="#FBD25A"/>
<stop offset="0.09" stop-color="#FCD258"/>
<stop offset="0.66" stop-color="#B17811"/>
<stop offset="0.78" stop-color="#E6BA3B"/>
<stop offset="1" stop-color="#C99E43"/>
</radialGradient>
<radialGradient id="paint17_radial_275_20595" cx="0" cy="0" r="1" gradientUnits="userSpaceOnUse" gradientTransform="translate(90.2739 4.09926) scale(96.9975 97.123)">
<stop stop-color="#6D3602"/>
<stop offset="0.29" stop-color="#632F01"/>
<stop offset="0.79" stop-color="#481D00"/>
<stop offset="1" stop-color="#3B1400"/>
</radialGradient>
<linearGradient id="paint18_linear_275_20595" x1="88.6506" y1="4.78802" x2="88.6506" y2="88.969" gradientUnits="userSpaceOnUse">
<stop stop-color="#C6910C"/>
<stop offset="0.17" stop-color="#B7820B"/>
<stop offset="0.72" stop-color="#8C560A"/>
<stop offset="1" stop-color="#7C460A"/>
</linearGradient>
</defs>
</svg>
