<svg width="321" height="256" viewBox="0 0 321 256" fill="none" xmlns="http://www.w3.org/2000/svg">
<g opacity="0.6" clip-path="url(#clip0_275_1545)">
<path d="M160.801 208.358L158.785 208.339L161.938 42.1018L163.945 42.1306L160.801 208.358Z" fill="url(#paint0_linear_275_1545)"/>
<path d="M256.762 52.6728C256.762 52.6728 206.684 47.488 188.205 89.0522C187.603 90.406 186.8 92.8927 186.79 95.3506C186.762 101.255 190.421 112.547 202.489 112.489C203.684 112.489 207.334 112.095 208.91 111.75C213.22 110.799 252.166 95.293 256.762 52.6728Z" fill="#1C3232"/>
<path d="M256.762 52.6727L189.953 105.931C189.953 105.931 230.466 89.9451 256.762 52.6727Z" fill="#1C3232"/>
<path d="M189.953 106.104C189.886 106.104 189.829 106.075 189.8 106.018C189.752 105.941 189.772 105.835 189.838 105.787L256.647 52.5287C256.723 52.4711 256.829 52.4807 256.886 52.5383C256.953 52.5959 256.962 52.7015 256.914 52.7783C230.887 89.6666 190.431 105.941 190.02 106.104C190.001 106.104 189.982 106.114 189.953 106.114V106.104ZM255.863 53.6136L191.1 105.24C197.97 102.254 232.444 86.1141 255.863 53.6136Z" fill="url(#paint1_linear_275_1545)"/>
<path d="M190.527 106.93C190.431 106.93 190.345 106.853 190.345 106.747C190.345 106.642 190.421 106.565 190.527 106.565C212.608 106.392 229.396 91.7405 239.591 79.47C250.647 66.1626 256.542 52.7304 256.599 52.596C256.637 52.4999 256.743 52.4615 256.838 52.4999C256.934 52.5384 256.972 52.644 256.934 52.74C256.876 52.8744 250.952 66.3547 239.868 79.7005C229.626 92.0286 212.751 106.757 190.536 106.93H190.527Z" fill="url(#paint2_linear_275_1545)"/>
<path d="M199.183 108.62C196.584 108.62 193.947 108.408 191.262 107.996C191.167 107.976 191.1 107.89 191.109 107.784C191.128 107.688 191.205 107.631 191.32 107.631C216.296 111.5 232.702 96.3395 242.076 82.9457C252.242 68.4189 256.551 52.7783 256.59 52.6247C256.609 52.5287 256.714 52.4615 256.809 52.4999C256.905 52.5287 256.962 52.6247 256.934 52.7207C256.895 52.8743 252.567 68.5821 242.362 83.1569C236.371 91.7309 229.539 98.2406 222.077 102.513C214.997 106.565 207.324 108.61 199.183 108.61V108.62Z" fill="url(#paint3_linear_275_1545)"/>
<path d="M189.179 105.058C189.179 105.058 189.15 105.058 189.141 105.058C189.045 105.029 188.988 104.933 189.007 104.837C194.272 83.5795 212.407 70.4833 226.702 63.2343C242.171 55.39 256.59 52.5288 256.733 52.5C256.857 52.4808 256.924 52.548 256.943 52.644C256.962 52.74 256.905 52.836 256.8 52.8552C256.656 52.884 242.276 55.7356 226.854 63.5607C212.637 70.7713 194.587 83.8003 189.351 104.923C189.332 105.01 189.256 105.067 189.179 105.067V105.058Z" fill="url(#paint4_linear_275_1545)"/>
<path d="M189.953 106.104C189.953 106.104 189.896 106.104 189.867 106.085C189.781 106.037 189.753 105.922 189.8 105.835C206.741 75.4087 256.198 52.7303 256.695 52.4999C256.781 52.4519 256.886 52.4999 256.934 52.5959C256.972 52.6823 256.934 52.7976 256.848 52.836C256.351 53.0568 207.009 75.6967 190.125 106.018C190.087 106.075 190.03 106.114 189.963 106.114L189.953 106.104Z" fill="url(#paint5_linear_275_1545)"/>
<path d="M188.491 103.387C188.491 103.387 188.472 103.387 188.453 103.387C188.357 103.368 188.291 103.272 188.31 103.176C190.612 91.6637 195.648 81.832 203.282 73.9589C209.378 67.6604 217.137 62.6005 226.339 58.904C241.999 52.6152 256.609 52.4904 256.762 52.4904C256.857 52.4904 256.943 52.5672 256.943 52.6728C256.943 52.7784 256.867 52.8552 256.762 52.8552C256.618 52.8552 242.056 52.98 226.463 59.2401C212.082 65.0105 193.861 77.329 188.663 103.243C188.644 103.329 188.568 103.387 188.491 103.387Z" fill="url(#paint6_linear_275_1545)"/>
<path d="M202.394 112.854C198.065 112.854 194.454 111.433 191.654 108.62C187.765 104.702 186.408 99.028 186.427 95.3507C186.437 92.9695 187.182 90.4636 187.87 88.9082C206.244 47.5841 256.294 52.2599 256.8 52.3175L257.163 52.356L257.125 52.7208C254.707 75.1783 242.659 89.8011 232.97 98.1254C222.574 107.055 211.758 111.51 208.996 112.115C207.334 112.479 203.674 112.854 202.499 112.863C202.461 112.863 202.432 112.863 202.394 112.863V112.854ZM251.764 52.8552C238.693 52.8552 203.273 56.0525 188.53 89.2058C187.87 90.6844 187.163 93.0847 187.144 95.3507C187.125 98.8839 188.424 104.347 192.16 108.101C194.817 110.77 198.257 112.124 202.384 112.124H202.48C203.598 112.124 207.229 111.75 208.824 111.394C210.496 111.02 221.351 107.131 232.483 97.559C242.018 89.369 253.867 75.0055 256.341 52.9992C255.653 52.9416 254.048 52.8456 251.745 52.8456L251.764 52.8552Z" fill="url(#paint7_linear_275_1545)"/>
<path d="M233.792 27.6998C233.792 27.6998 178.736 39.4614 172.812 90.1084C172.62 91.7598 172.592 94.6786 173.394 97.2998C175.315 103.598 182.949 114.361 195.791 110.127C197.062 109.705 200.817 108.044 202.384 107.122C206.665 104.626 243.012 74.6694 233.792 27.6902V27.6998Z" fill="#1C3232"/>
<path d="M233.791 27.6998L180.264 107.477C180.264 107.477 218.121 76.4745 233.791 27.6998Z" fill="#1C3232"/>
<path d="M180.264 107.679C180.217 107.679 180.169 107.66 180.131 107.621C180.054 107.554 180.045 107.439 180.102 107.362L233.629 27.5846C233.686 27.4982 233.792 27.4694 233.887 27.5174C233.983 27.5558 234.021 27.671 233.992 27.767C218.475 76.0425 180.78 107.333 180.398 107.64C180.36 107.669 180.312 107.688 180.274 107.688L180.264 107.679ZM233.142 29.0248L181.258 106.354C187.593 100.795 218.953 71.7027 233.142 29.0248Z" fill="url(#paint8_linear_275_1545)"/>
<path d="M181.143 108.36C181.057 108.36 180.981 108.303 180.952 108.226C180.914 108.12 180.971 108.005 181.077 107.967C204.544 100.161 217.567 78.7596 224.361 62.1685C231.728 44.1853 233.562 27.8438 233.581 27.6806C233.6 27.5654 233.715 27.5078 233.811 27.4982C233.925 27.5078 234.002 27.6134 233.992 27.7286C233.973 27.8918 232.129 44.2909 224.743 62.3318C217.911 78.9997 204.821 100.507 181.21 108.36C181.191 108.36 181.172 108.37 181.143 108.37V108.36Z" fill="url(#paint9_linear_275_1545)"/>
<path d="M182.309 109.225C182.214 109.225 182.128 109.157 182.109 109.052C182.09 108.937 182.166 108.841 182.271 108.821C210.143 104.309 222.612 82.5137 228.154 65.0201C234.174 46.0383 233.591 27.8822 233.581 27.6998C233.581 27.5845 233.667 27.4981 233.773 27.4885C233.878 27.4885 233.973 27.5749 233.973 27.6806C233.973 27.863 234.575 46.0767 228.536 65.1257C224.991 76.3208 219.87 85.6149 213.334 92.7487C205.155 101.668 194.721 107.208 182.328 109.215C182.319 109.215 182.309 109.215 182.3 109.215L182.309 109.225Z" fill="url(#paint10_linear_275_1545)"/>
<path d="M179.089 106.834C178.984 106.834 178.889 106.747 178.889 106.642C177.455 82.1873 192.447 61.9669 205.27 49.3219C219.153 35.6305 233.553 27.6038 233.696 27.5269C233.801 27.4693 233.916 27.5077 233.973 27.6038C234.03 27.6998 233.992 27.8246 233.897 27.8822C233.753 27.959 219.392 35.9665 205.547 49.6196C192.791 62.2069 177.876 82.3217 179.299 106.623C179.299 106.738 179.223 106.834 179.108 106.834H179.099H179.089Z" fill="url(#paint11_linear_275_1545)"/>
<path d="M180.264 107.679C180.264 107.679 180.236 107.679 180.226 107.679C180.111 107.66 180.045 107.554 180.073 107.439C188.052 69.187 233.209 27.959 233.667 27.5461C233.753 27.4693 233.877 27.4789 233.954 27.5653C234.03 27.6517 234.021 27.7765 233.935 27.8533C233.476 28.2662 188.415 69.3983 180.465 107.515C180.446 107.612 180.36 107.679 180.264 107.679Z" fill="url(#paint12_linear_275_1545)"/>
<path d="M177.799 105.288C177.694 105.288 177.608 105.211 177.599 105.106C176.242 92.0478 178.354 79.8445 183.876 68.8222C188.291 60.0082 194.874 51.9431 203.455 44.8285C218.055 32.7309 233.581 27.5558 233.734 27.4981C233.839 27.4597 233.954 27.5173 233.992 27.623C234.03 27.7286 233.973 27.8438 233.868 27.8822C233.715 27.9302 218.255 33.0957 203.712 45.1454C190.307 56.2541 174.971 75.668 178.019 105.058C178.029 105.173 177.952 105.269 177.838 105.278H177.818L177.799 105.288Z" fill="url(#paint13_linear_275_1545)"/>
<path d="M190.116 111.51C187.603 111.51 185.204 110.924 182.949 109.743C177.522 106.911 174.197 101.342 173.003 97.4245C172.229 94.8802 172.191 91.9518 172.41 90.0603C178.296 39.7014 233.151 27.4213 233.706 27.2965L234.107 27.2101L234.183 27.6133C239.037 52.3559 231.049 72.0963 223.491 84.3091C215.379 97.4053 205.327 105.883 202.585 107.487C201.037 108.389 197.282 110.069 195.916 110.521C193.928 111.174 191.988 111.51 190.116 111.51ZM233.476 28.1894C228.469 29.3992 178.774 42.6586 173.222 90.1563C173.012 91.9614 173.051 94.7554 173.786 97.1845C174.933 100.948 178.124 106.306 183.332 109.013C187.077 110.962 191.224 111.212 195.677 109.743C196.862 109.349 200.607 107.708 202.193 106.776C203.856 105.806 214.118 97.9238 222.822 83.8771C230.266 71.8658 238.13 52.4808 233.486 28.1894H233.476Z" fill="url(#paint14_linear_275_1545)"/>
<path d="M198.276 5.36719C198.276 5.36719 145.226 38.511 157.495 93.5073C157.896 95.3028 158.928 98.3464 160.715 100.776C165.005 106.604 176.882 114.918 188.711 105.634C189.887 104.712 193.193 101.553 194.482 100.007C198.027 95.7828 224.972 50.791 198.276 5.36719Z" fill="#1C3232"/>
<path d="M198.276 5.36719L171.57 108.764C171.57 108.764 199.709 62.111 198.276 5.36719Z" fill="#1C3232"/>
<path d="M171.57 108.985C171.57 108.985 171.512 108.985 171.484 108.965C171.379 108.927 171.321 108.812 171.35 108.706L198.056 5.30958C198.085 5.20397 198.19 5.14636 198.295 5.14636C198.41 5.15596 198.486 5.25198 198.496 5.36719C199.91 61.5253 172.038 108.418 171.761 108.889C171.723 108.956 171.646 108.994 171.57 108.994V108.985ZM198.075 6.99942L172.2 107.208C176.787 98.9993 198.84 56.8111 198.075 6.99942Z" fill="url(#paint15_linear_275_1545)"/>
<path d="M172.735 109.359C172.668 109.359 172.602 109.33 172.563 109.273C172.487 109.177 172.506 109.033 172.601 108.956C194.196 91.9231 199.977 64.6841 201.018 44.8382C202.146 23.312 198.104 5.59759 198.066 5.41517C198.037 5.29035 198.113 5.17514 198.228 5.14633C198.343 5.10793 198.467 5.19434 198.496 5.30956C198.534 5.49198 202.585 23.264 201.458 44.8478C200.416 64.7897 194.607 92.1631 172.879 109.301C172.84 109.33 172.793 109.349 172.745 109.349L172.735 109.359Z" fill="url(#paint16_linear_275_1545)"/>
<path d="M174.264 109.82C174.188 109.82 174.111 109.772 174.073 109.705C174.016 109.599 174.054 109.455 174.159 109.397C201.544 94.1217 206.589 66.6908 206.006 46.3648C205.366 24.3105 198.142 5.62636 198.066 5.44393C198.018 5.32872 198.075 5.1943 198.19 5.15589C198.295 5.10789 198.438 5.1655 198.476 5.28071C198.553 5.46314 205.805 24.2145 206.445 46.336C206.828 59.3457 204.878 70.9633 200.674 80.8623C195.409 93.2576 186.561 102.984 174.379 109.781C174.341 109.801 174.312 109.81 174.274 109.81L174.264 109.82Z" fill="url(#paint17_linear_275_1545)"/>
<path d="M170.031 108.543C169.945 108.543 169.859 108.485 169.821 108.399C159.425 83.4739 167.671 56.7342 176.424 38.6933C185.893 19.1642 197.97 5.33833 198.094 5.20391C198.171 5.0983 198.314 5.1079 198.41 5.18471C198.505 5.26152 198.515 5.40554 198.429 5.50155C198.314 5.63597 186.265 19.4235 176.815 38.8949C168.111 56.8494 159.903 83.4451 170.232 108.216C170.28 108.332 170.232 108.466 170.108 108.514C170.079 108.524 170.05 108.533 170.022 108.533L170.031 108.543Z" fill="url(#paint18_linear_275_1545)"/>
<path d="M171.57 108.985C171.455 108.985 171.359 108.898 171.35 108.793C165.732 65.9323 197.76 5.8568 198.075 5.26152C198.132 5.1463 198.266 5.1079 198.381 5.1655C198.486 5.22311 198.534 5.35753 198.476 5.47275C198.152 6.07763 166.2 66.0187 171.799 108.735C171.818 108.86 171.732 108.975 171.608 108.985C171.598 108.985 171.589 108.985 171.579 108.985H171.57Z" fill="url(#paint19_linear_275_1545)"/>
<path d="M168.139 107.429C168.053 107.429 167.977 107.381 167.939 107.304C161.776 94.2178 159.53 80.7087 161.269 67.142C162.655 56.2925 166.572 45.3854 172.917 34.728C183.714 16.5911 197.999 5.30953 198.142 5.19431C198.238 5.1175 198.371 5.12711 198.457 5.23272C198.534 5.32873 198.515 5.47275 198.419 5.54956C198.276 5.66478 184.058 16.8983 173.299 34.968C163.381 51.6263 154.485 77.6651 168.35 107.112C168.407 107.228 168.35 107.362 168.245 107.41C168.216 107.429 168.178 107.429 168.149 107.429H168.139Z" fill="url(#paint20_linear_275_1545)"/>
<path d="M177.494 110.252C176.71 110.252 175.917 110.194 175.114 110.089C168.464 109.177 162.999 104.645 160.352 101.044C158.622 98.7016 157.514 95.6675 157.055 93.6033C144.854 38.9237 197.502 5.31912 198.037 4.98308L198.429 4.74304L198.667 5.1367C212.732 29.0632 211.595 52.6536 208.165 68.227C204.486 84.9429 197.1 97.5782 194.836 100.286C193.546 101.822 190.259 104.99 188.988 105.979C185.376 108.812 181.526 110.242 177.503 110.242L177.494 110.252ZM198.123 6.00081C193.345 9.16925 146.421 41.8329 157.925 93.4016C158.364 95.3699 159.425 98.2695 161.069 100.507C163.62 103.973 168.856 108.322 175.239 109.196C179.873 109.829 184.316 108.505 188.434 105.278C189.523 104.424 192.82 101.284 194.138 99.7193C195.514 98.0775 203.33 85.9702 207.286 68.0445C210.659 52.7112 211.796 29.5433 198.123 6.01042V6.00081Z" fill="url(#paint21_linear_275_1545)"/>
<path d="M63.1011 52.6729C63.1011 52.6729 113.179 47.4882 131.658 89.0523C132.26 90.4061 133.053 92.8928 133.072 95.3507C133.101 101.256 129.441 112.547 117.373 112.489C116.179 112.489 112.529 112.095 110.952 111.75C106.643 110.799 67.697 95.2931 63.1011 52.6729Z" fill="#1C3232"/>
<path d="M63.1016 52.673L129.91 105.931C129.91 105.931 89.3969 89.9453 63.1016 52.673Z" fill="#1C3232"/>
<path d="M129.919 106.104C129.919 106.104 129.872 106.104 129.853 106.095C129.442 105.932 88.9954 89.6669 62.9581 52.7691C62.9103 52.6922 62.9199 52.5962 62.9867 52.529C63.0536 52.4714 63.1492 52.4618 63.2256 52.5194L130.034 105.778C130.101 105.836 130.12 105.932 130.072 106.008C130.044 106.066 129.977 106.095 129.919 106.095V106.104ZM64.0091 53.6236C87.438 86.124 121.912 102.264 128.773 105.25L64.0091 53.6236Z" fill="url(#paint22_linear_275_1545)"/>
<path d="M129.346 106.93C107.121 106.757 90.2469 92.0288 80.0135 79.7007C68.9201 66.3549 63.0056 52.8746 62.9482 52.7402C62.91 52.6442 62.9482 52.5386 63.0438 52.5002C63.1393 52.4618 63.2444 52.5002 63.2827 52.5962C63.34 52.7306 69.245 66.1725 80.3001 79.4703C90.4953 91.7312 107.274 106.392 129.355 106.556C129.451 106.556 129.537 106.642 129.537 106.738C129.537 106.834 129.451 106.92 129.355 106.92L129.346 106.93Z" fill="url(#paint23_linear_275_1545)"/>
<path d="M120.689 108.62C112.548 108.62 104.875 106.584 97.7856 102.523C90.3232 98.2503 83.4913 91.731 77.5004 83.1667C67.2956 68.5823 62.9768 52.8841 62.9386 52.7305C62.9099 52.6345 62.9672 52.5288 63.0628 52.5096C63.1583 52.4712 63.2634 52.5385 63.2825 52.6345C63.3208 52.7881 67.6301 68.4382 77.8061 82.965C87.17 96.3493 103.595 111.491 128.553 107.64C128.658 107.64 128.744 107.698 128.763 107.794C128.782 107.89 128.706 107.986 128.61 108.005C125.925 108.418 123.288 108.629 120.689 108.629V108.62Z" fill="url(#paint24_linear_275_1545)"/>
<path d="M130.693 105.058C130.617 105.058 130.54 105 130.521 104.914C125.295 83.7907 107.236 70.7617 93.0179 63.5511C77.5962 55.7261 63.2255 52.8745 63.0821 52.8457C62.9866 52.8265 62.9197 52.7305 62.9388 52.6344C62.9579 52.5384 63.0439 52.4808 63.149 52.4904C63.2923 52.5192 77.7108 55.3804 93.1804 63.2247C107.475 70.4737 125.61 83.5699 130.875 104.827C130.894 104.923 130.837 105.019 130.741 105.048C130.731 105.048 130.712 105.048 130.703 105.048L130.693 105.058Z" fill="url(#paint25_linear_275_1545)"/>
<path d="M129.919 106.104C129.852 106.104 129.795 106.075 129.757 106.008C112.873 75.6872 63.5312 53.0569 63.0343 52.8264C62.9388 52.788 62.9005 52.6824 62.9483 52.5864C62.9865 52.4904 63.1012 52.4424 63.1872 52.4904C63.684 52.7112 113.141 75.3991 130.082 105.826C130.129 105.912 130.101 106.027 130.015 106.075C129.986 106.095 129.957 106.095 129.929 106.095L129.919 106.104Z" fill="url(#paint26_linear_275_1545)"/>
<path d="M131.381 103.387C131.295 103.387 131.219 103.329 131.209 103.243C126.011 77.3291 107.78 65.0106 93.4001 59.2402C77.8063 52.9801 63.2541 52.8553 63.1107 52.8553C63.0056 52.8553 62.9292 52.7689 62.9292 52.6729C62.9292 52.5769 63.0152 52.4905 63.1107 52.4905C63.2541 52.4905 77.8732 52.6153 93.5338 58.9042C102.735 62.6007 110.494 67.6606 116.59 73.959C124.215 81.8321 129.25 91.6639 131.563 103.176C131.582 103.272 131.524 103.368 131.419 103.387C131.41 103.387 131.4 103.387 131.381 103.387Z" fill="url(#paint27_linear_275_1545)"/>
<path d="M117.479 112.854C117.479 112.854 117.412 112.854 117.374 112.854C116.198 112.854 112.548 112.479 110.876 112.105C108.115 111.5 97.289 107.045 86.9027 98.1159C77.2235 89.7916 65.1651 75.1591 62.7477 52.7113L62.7095 52.3464L63.0726 52.308C63.579 52.26 113.628 47.5745 132.002 88.8986C132.69 90.454 133.436 92.96 133.445 95.3411C133.464 99.0184 132.107 104.693 128.219 108.61C125.419 111.414 121.817 112.844 117.488 112.844L117.479 112.854ZM63.5121 53.0089C65.9964 75.0151 77.8446 89.3787 87.3709 97.5686C98.512 107.141 109.357 111.03 111.029 111.404C112.625 111.759 116.256 112.124 117.374 112.134H117.469C121.597 112.134 125.037 110.78 127.693 108.111C131.429 104.357 132.728 98.8936 132.709 95.3603C132.7 93.0944 131.983 90.6941 131.324 89.2059C113.991 50.2149 68.0603 52.6536 63.493 53.0089H63.5121Z" fill="url(#paint28_linear_275_1545)"/>
<path d="M86.0715 27.6998C86.0715 27.6998 141.127 39.4614 147.051 90.1084C147.243 91.7598 147.271 94.6786 146.469 97.2998C144.548 103.598 136.914 114.361 124.072 110.127C122.801 109.705 119.046 108.044 117.479 107.122C113.198 104.626 76.8509 74.6694 86.0715 27.6902V27.6998Z" fill="#1C3232"/>
<path d="M86.0718 27.6998L139.599 107.477C139.599 107.477 101.742 76.4745 86.0718 27.6998Z" fill="#1C3232"/>
<path d="M139.608 107.679C139.608 107.679 139.513 107.66 139.484 107.631C139.102 107.324 101.407 76.0328 85.8902 27.7574C85.8615 27.6614 85.8997 27.5558 85.9953 27.5077C86.0813 27.4597 86.1959 27.4885 86.2533 27.575L139.78 107.352C139.838 107.439 139.819 107.544 139.752 107.612C139.713 107.65 139.666 107.669 139.618 107.669L139.608 107.679ZM86.7215 29.0248C100.911 71.7026 132.27 100.785 138.605 106.354L86.7215 29.0248Z" fill="url(#paint29_linear_275_1545)"/>
<path d="M138.729 108.36C138.729 108.36 138.691 108.36 138.662 108.351C115.052 100.497 101.952 78.99 95.1294 62.3221C87.7339 44.2812 85.8993 27.8822 85.8802 27.719C85.8706 27.6037 85.9471 27.5077 86.0617 27.4885H86.0809C86.186 27.4885 86.272 27.5653 86.2815 27.671C86.3006 27.8342 88.1352 44.1852 95.5116 62.1685C102.305 78.75 115.338 100.151 138.796 107.957C138.901 107.996 138.958 108.111 138.92 108.216C138.891 108.303 138.815 108.351 138.729 108.351V108.36Z" fill="url(#paint30_linear_275_1545)"/>
<path d="M137.554 109.225C137.554 109.225 137.535 109.225 137.525 109.225C125.123 107.218 114.698 101.678 106.519 92.7583C99.9835 85.6246 94.8716 76.3305 91.3171 65.1353C85.2784 46.0863 85.8708 27.8726 85.8803 27.6902C85.8803 27.5846 85.9759 27.4982 86.081 27.4982C86.1956 27.4982 86.2816 27.5942 86.2721 27.7094C86.2721 27.8918 85.6701 46.0479 91.6993 65.0297C97.2508 82.5233 109.71 104.318 137.582 108.831C137.687 108.85 137.764 108.956 137.745 109.061C137.726 109.157 137.64 109.234 137.544 109.234L137.554 109.225Z" fill="url(#paint31_linear_275_1545)"/>
<path d="M140.784 106.834H140.774C140.659 106.834 140.573 106.728 140.583 106.623C142.007 82.3217 127.091 62.207 114.326 49.6196C100.481 35.9665 86.129 27.9686 85.9857 27.8918C85.8901 27.8342 85.8519 27.7094 85.9093 27.6134C85.957 27.5174 86.0812 27.479 86.1864 27.5366C86.3297 27.6134 100.739 35.6401 114.612 49.3316C127.435 61.9861 142.417 82.1969 140.994 106.651C140.994 106.757 140.898 106.843 140.793 106.843L140.784 106.834Z" fill="url(#paint32_linear_275_1545)"/>
<path d="M139.608 107.679C139.513 107.679 139.427 107.612 139.407 107.516C131.458 69.3887 86.3964 28.2567 85.9377 27.8534C85.8517 27.7766 85.8517 27.6518 85.9186 27.5654C85.995 27.4886 86.1193 27.479 86.2053 27.5462C86.6543 27.959 131.821 69.1775 139.799 107.439C139.828 107.544 139.751 107.65 139.646 107.679C139.637 107.679 139.618 107.679 139.608 107.679Z" fill="url(#paint33_linear_275_1545)"/>
<path d="M142.064 105.288H142.045C141.93 105.278 141.853 105.173 141.863 105.067C144.911 75.6775 129.566 56.2637 116.17 45.1549C101.627 33.1053 86.1669 27.9398 86.014 27.8918C85.9089 27.8534 85.8516 27.7382 85.8898 27.6325C85.928 27.5269 86.0427 27.4597 86.1478 27.5077C86.3007 27.5557 101.828 32.7404 116.428 44.8381C125.008 51.9431 131.591 60.0178 136.006 68.8318C141.519 79.8541 143.631 92.0574 142.283 105.115C142.274 105.221 142.188 105.298 142.083 105.298L142.064 105.288Z" fill="url(#paint34_linear_275_1545)"/>
<path d="M129.747 111.51C127.875 111.51 125.935 111.183 123.947 110.521C122.696 110.108 118.931 108.447 117.278 107.487C114.536 105.883 104.484 97.4053 96.3717 84.3091C88.8137 72.1059 80.8162 52.3655 85.6797 27.6133L85.7561 27.2101L86.1574 27.2965C86.7116 27.4117 141.567 39.7014 147.453 90.0603C147.672 91.9422 147.634 94.8706 146.86 97.4245C145.666 101.342 142.35 106.911 136.914 109.743C134.659 110.924 132.26 111.51 129.747 111.51ZM86.3963 28.1894C81.7621 52.4808 89.6259 71.8658 97.0597 83.8771C105.755 97.9238 116.026 105.806 117.689 106.776C119.275 107.708 123.021 109.349 124.205 109.743C128.658 111.212 132.805 110.962 136.55 109.013C141.758 106.306 144.94 100.948 146.096 97.1845C146.832 94.7554 146.87 91.9614 146.66 90.1563C141.108 42.6586 91.4031 29.3992 86.4059 28.1894H86.3963Z" fill="url(#paint35_linear_275_1545)"/>
<path d="M121.597 5.36707C121.597 5.36707 174.646 38.5108 162.378 93.5072C161.976 95.3026 160.944 98.3463 159.158 100.775C154.867 106.603 142.991 114.918 131.161 105.634C129.986 104.712 126.68 101.553 125.39 100.007C121.845 95.7827 94.9002 50.7909 121.597 5.36707Z" fill="#1C3232"/>
<path d="M121.597 5.36707L148.303 108.764C148.303 108.764 120.164 62.1109 121.597 5.36707Z" fill="#1C3232"/>
<path d="M148.303 108.985C148.227 108.985 148.15 108.946 148.112 108.879C147.835 108.408 119.963 61.5156 121.377 5.35752C121.377 5.2423 121.463 5.15589 121.578 5.13669C121.673 5.09828 121.788 5.1943 121.817 5.29991L148.523 108.697C148.552 108.802 148.494 108.917 148.389 108.956C148.361 108.965 148.332 108.975 148.303 108.975V108.985ZM121.788 6.99934C121.024 56.8206 143.086 98.9992 147.663 107.208L121.788 6.99934Z" fill="url(#paint36_linear_275_1545)"/>
<path d="M147.137 109.359C147.09 109.359 147.042 109.34 147.004 109.311C125.276 92.1727 119.466 64.7993 118.425 44.8574C117.297 23.264 121.348 5.49197 121.387 5.31914C121.406 5.19433 121.53 5.10792 121.654 5.15592C121.778 5.18473 121.845 5.29994 121.817 5.42476C121.778 5.59758 117.737 23.3216 118.864 44.8574C119.906 64.7033 125.677 91.9422 147.271 108.965C147.367 109.042 147.386 109.186 147.309 109.282C147.262 109.34 147.195 109.369 147.137 109.369V109.359Z" fill="url(#paint37_linear_275_1545)"/>
<path d="M145.599 109.82C145.599 109.82 145.523 109.81 145.494 109.791C133.311 102.993 124.463 93.2673 119.199 80.8719C114.985 70.9634 113.045 59.3458 113.427 46.3456C114.068 24.2146 121.32 5.47278 121.396 5.29036C121.434 5.17514 121.578 5.11753 121.683 5.16554C121.798 5.20394 121.855 5.33836 121.807 5.45358C121.74 5.6456 114.507 24.3202 113.867 46.3744C113.274 66.7004 118.32 94.1314 145.704 109.407C145.809 109.465 145.847 109.599 145.79 109.714C145.752 109.791 145.675 109.83 145.599 109.83V109.82Z" fill="url(#paint38_linear_275_1545)"/>
<path d="M149.832 108.543C149.832 108.543 149.775 108.543 149.746 108.524C149.631 108.476 149.574 108.341 149.622 108.226C159.951 83.4547 151.733 56.8494 143.029 38.895C133.588 19.4235 121.54 5.64562 121.425 5.5112C121.339 5.41518 121.348 5.27116 121.444 5.19435C121.53 5.11754 121.673 5.10794 121.759 5.21356C121.884 5.34797 133.961 19.1739 143.43 38.703C152.182 56.7438 160.428 83.4739 150.033 108.409C149.994 108.495 149.918 108.553 149.822 108.553L149.832 108.543Z" fill="url(#paint39_linear_275_1545)"/>
<path d="M148.303 108.985C148.303 108.985 148.284 108.985 148.274 108.985C148.15 108.965 148.064 108.86 148.083 108.735C153.682 66.0187 121.731 6.07763 121.406 5.47275C121.348 5.36713 121.387 5.22311 121.501 5.1655C121.606 5.1079 121.74 5.1463 121.807 5.26152C122.132 5.8664 154.151 65.9323 148.532 108.793C148.513 108.908 148.418 108.985 148.313 108.985H148.303Z" fill="url(#paint40_linear_275_1545)"/>
<path d="M151.733 107.429C151.733 107.429 151.666 107.429 151.638 107.41C151.523 107.352 151.475 107.218 151.533 107.112C165.397 77.6651 156.501 51.6263 146.583 34.968C135.834 16.8983 121.606 5.65518 121.463 5.54956C121.368 5.47275 121.348 5.32873 121.425 5.23272C121.501 5.12711 121.645 5.1175 121.74 5.19431C121.883 5.30953 136.168 16.5911 146.965 34.728C153.31 45.3854 157.227 56.2925 158.613 67.142C160.342 80.7087 158.097 94.2274 151.934 107.304C151.896 107.381 151.819 107.429 151.733 107.429Z" fill="url(#paint41_linear_275_1545)"/>
<path d="M142.369 110.252C138.347 110.252 134.496 108.821 130.884 105.989C129.623 105 126.327 101.832 125.037 100.295C122.762 97.5879 115.386 84.9525 111.707 68.2366C108.277 52.6633 107.14 29.0632 121.205 5.14634L121.444 4.75269L121.836 4.99272C122.371 5.32876 175.019 38.9334 162.817 93.6129C162.358 95.6676 161.25 98.7016 159.521 101.054C156.864 104.654 151.418 109.186 144.758 110.098C143.955 110.204 143.162 110.262 142.379 110.262L142.369 110.252ZM121.74 6.00086C108.067 29.5337 109.204 52.7113 112.577 68.035C116.523 85.9607 124.339 98.0679 125.725 99.7097C127.043 101.284 130.34 104.414 131.429 105.269C135.547 108.505 140 109.81 144.624 109.186C150.997 108.313 156.234 103.963 158.785 100.497C160.428 98.2599 161.489 95.3604 161.928 93.3921C173.452 41.833 126.527 9.16929 121.74 6.00086Z" fill="url(#paint42_linear_275_1545)"/>
<path d="M157.285 0.65279C157.285 0.65279 114.66 48.7842 142.245 99.0663C143.144 100.699 145.026 103.387 147.462 105.24C153.32 109.685 167.308 114.332 176.28 101.745C177.169 100.497 179.51 96.426 180.351 94.5249C182.625 89.3402 196.317 37.2914 157.294 0.643188L157.285 0.65279Z" fill="#1C3232"/>
<path d="M157.285 0.652832L160.362 109.877C160.362 109.877 174.742 55.8508 157.285 0.652832Z" fill="#1C3232"/>
<path d="M160.362 110.108C160.362 110.108 160.343 110.108 160.333 110.108C160.218 110.098 160.132 110.002 160.132 109.887L157.056 0.662412C157.056 0.547196 157.132 0.451183 157.247 0.43198C157.371 0.412778 157.467 0.479987 157.505 0.585602C174.78 55.2075 160.725 109.397 160.581 109.935C160.553 110.041 160.467 110.108 160.362 110.108ZM157.562 2.31384L160.543 108.159C162.712 98.7495 172.401 50.9061 157.562 2.31384Z" fill="url(#paint43_linear_275_1545)"/>
<path d="M161.604 110.127C161.604 110.127 161.508 110.108 161.47 110.089C161.365 110.012 161.346 109.868 161.413 109.762C177.761 86.6999 175.717 58.2992 171.121 38.5301C166.142 17.0999 157.17 0.931306 157.075 0.768083C157.017 0.662469 157.056 0.518449 157.161 0.460841C157.275 0.403233 157.409 0.441638 157.476 0.547253C157.562 0.710475 166.563 16.9367 171.57 38.4341C176.185 58.2896 178.239 86.8247 161.785 110.041C161.738 110.098 161.671 110.137 161.594 110.137L161.604 110.127Z" fill="url(#paint44_linear_275_1545)"/>
<path d="M163.238 110.127C163.18 110.127 163.123 110.108 163.075 110.06C162.98 109.974 162.98 109.82 163.075 109.733C185.596 86.6807 182.787 58.2992 176.452 38.5493C169.582 17.1287 157.228 0.960125 157.103 0.796902C157.027 0.700889 157.046 0.556869 157.142 0.470457C157.247 0.403248 157.39 0.412849 157.466 0.508863C157.591 0.672085 170.003 16.8983 176.892 38.4053C180.943 51.0406 182.328 63.0039 181 73.959C179.338 87.66 173.423 99.8057 163.41 110.05C163.362 110.098 163.305 110.118 163.247 110.118L163.238 110.127Z" fill="url(#paint45_linear_275_1545)"/>
<path d="M158.728 110.127C158.661 110.127 158.594 110.098 158.556 110.041C141.318 88.6682 141.834 60.037 145.312 39.7687C149.068 17.8392 156.998 0.729693 157.084 0.55687C157.141 0.451255 157.275 0.393647 157.39 0.451255C157.505 0.508863 157.552 0.643281 157.495 0.758497C157.419 0.92172 149.507 17.9929 145.761 39.8647C142.312 60.0274 141.787 88.5242 158.919 109.753C158.995 109.849 158.986 109.993 158.89 110.079C158.852 110.118 158.794 110.137 158.747 110.137L158.728 110.127Z" fill="url(#paint46_linear_275_1545)"/>
<path d="M160.362 110.108C160.276 110.108 160.19 110.05 160.151 109.964C142.513 69.6095 156.912 1.28653 157.065 0.604839C157.094 0.480022 157.218 0.412812 157.342 0.422414C157.466 0.451218 157.543 0.576035 157.514 0.700852C157.361 1.38255 143 69.5615 160.572 109.781C160.62 109.897 160.572 110.031 160.457 110.079C160.429 110.089 160.4 110.098 160.362 110.098V110.108Z" fill="url(#paint47_linear_275_1545)"/>
<path d="M156.559 109.599C156.492 109.599 156.435 109.57 156.387 109.522C146.65 98.5096 140.621 85.9318 138.481 72.1155C136.77 61.074 137.525 49.226 140.736 36.9075C146.182 15.9478 156.989 0.6721 157.094 0.518479C157.17 0.422466 157.314 0.403263 157.419 0.460871C157.524 0.537682 157.543 0.681702 157.476 0.787316C157.371 0.940937 146.602 16.1494 141.175 37.0323C136.168 56.2829 134.812 84.434 156.731 109.205C156.817 109.301 156.807 109.445 156.712 109.532C156.673 109.57 156.616 109.589 156.559 109.589V109.599Z" fill="url(#paint48_linear_275_1545)"/>
<path d="M161.222 110.358C155.536 110.358 150.262 107.957 147.185 105.615C144.816 103.819 142.876 101.169 141.844 99.2968C114.421 49.3028 156.511 0.835315 156.941 0.355249L157.247 0L157.591 0.326445C178.143 19.6251 183.704 43.0907 184.756 59.365C185.873 76.8394 182.214 91.395 180.762 94.7266C179.94 96.6085 177.608 100.689 176.643 102.024C173.356 106.642 169.143 109.378 164.126 110.146C163.152 110.29 162.177 110.358 161.222 110.358ZM157.314 1.32498C153.53 5.8376 116.772 51.7031 142.637 98.8552C143.621 100.651 145.475 103.176 147.73 104.885C151.189 107.516 157.524 110.242 163.993 109.234C168.751 108.505 172.754 105.903 175.898 101.496C176.729 100.334 179.07 96.282 179.921 94.3618C180.809 92.3455 185.042 78.1643 183.848 59.4322C182.825 43.4076 177.369 20.3644 157.323 1.33458L157.314 1.32498Z" fill="url(#paint49_linear_275_1545)"/>
<path d="M129.26 109.042C132.298 95.6771 119.485 88.6106 110.446 86.6231C101.331 84.626 94.7567 85.7494 86.6827 90.8477C80.5389 94.7266 73.9937 99.6617 66.8848 97.3574C68.3753 105.096 80.472 109.484 86.0139 111.596C93.7916 114.553 101.98 117.098 110.198 117.174C116.867 117.232 127.368 116.118 129.25 109.042H129.26Z" fill="#1C3232"/>
<path d="M129.632 106.68C121.931 94.621 106.318 95.5043 95.2917 99.9306C85.3641 103.906 77.7201 101.457 68.06 98.3559L67.3052 98.1159L67.4581 97.6262L68.2225 97.8759C77.787 100.939 85.3546 103.377 95.1102 99.4697C106.318 94.9763 122.199 94.0929 130.072 106.421L129.642 106.699L129.632 106.68Z" fill="url(#paint50_linear_275_1545)"/>
<path d="M92.4732 107.391C89.3678 107.391 86.444 106.988 83.9502 106.181C77.2617 104.021 68.9584 99.9882 67.1812 98.0295L67.5634 97.6838C69.2928 99.5849 77.491 103.55 84.1126 105.691C89.2436 107.352 96.257 107.256 102.85 105.451C104.579 104.981 106.146 104.443 107.656 103.925C110.628 102.907 113.437 101.937 116.963 101.649C121.893 101.236 125.686 103.608 129.317 105.912L129.977 106.335L129.699 106.767L129.04 106.344C125.61 104.174 122.361 102.11 118.119 102.11C117.756 102.11 117.383 102.129 117.001 102.158C113.542 102.446 110.761 103.406 107.819 104.414C106.299 104.933 104.732 105.471 102.984 105.951C99.4866 106.911 95.8748 107.391 92.4828 107.391H92.4732Z" fill="url(#paint51_linear_275_1545)"/>
<path d="M128.668 106.152C127.234 100.564 124.215 96.6181 119.695 94.4386C107.637 88.6202 88.6226 97.1077 88.4315 97.1941C79.488 100.449 66.9519 97.6358 66.8276 97.607L66.9423 97.1077C67.0665 97.1365 79.4593 99.9113 88.2404 96.7237C88.4124 96.6373 107.647 88.0537 119.915 93.9777C124.578 96.2244 127.693 100.286 129.164 106.027L128.668 106.152Z" fill="url(#paint52_linear_275_1545)"/>
<path d="M100.098 112.211C95.072 112.211 90.4569 110.713 85.6125 109.148L85.0965 108.985C78.6947 106.92 71.796 103.147 69.6652 101.361C68.9677 100.775 68.4326 100.075 67.9071 99.4024C67.6396 99.0664 67.3816 98.7207 67.1045 98.3943L67.4867 98.0582C67.7733 98.3943 68.0409 98.7399 68.318 99.0856C68.8244 99.7385 69.3499 100.411 69.9997 100.967C72.0444 102.686 79.01 106.479 85.259 108.504L85.7749 108.668C91.2882 110.454 96.4956 112.153 102.315 111.606C105.315 111.337 108.315 110.53 111.21 109.743C113.848 109.033 116.571 108.303 119.313 107.957C121.625 107.669 123.957 107.381 126.25 107.093C126.556 107.055 126.89 107.035 127.244 107.026C127.998 106.987 128.772 106.949 129.336 106.69L129.546 107.16C128.897 107.458 128.065 107.506 127.263 107.544C126.928 107.564 126.603 107.573 126.307 107.612C124.014 107.9 121.683 108.188 119.37 108.476C116.666 108.812 113.953 109.541 111.344 110.242C108.42 111.03 105.41 111.836 102.362 112.115C101.598 112.182 100.853 112.22 100.107 112.22L100.098 112.211Z" fill="url(#paint53_linear_275_1545)"/>
<path d="M110.694 117.616C110.522 117.616 110.36 117.616 110.188 117.616C101.531 117.53 93.0273 114.736 85.8515 112.009L85.412 111.836C79.7458 109.685 67.955 105.221 66.4548 97.4342L66.3115 96.6949L67.0186 96.9253C73.2676 98.9512 79.077 95.1971 84.6953 91.5774C85.2782 91.2029 85.861 90.8285 86.4439 90.4636C94.5274 85.3557 101.283 84.146 110.532 86.1814C116.399 87.468 124.005 90.9629 127.769 96.9157C130.062 100.545 130.703 104.654 129.68 109.129V109.148C127.731 116.454 117.173 117.616 110.694 117.616ZM67.4868 97.9911C69.4838 104.856 80.386 108.985 85.7177 111.01L86.1572 111.174C93.2566 113.872 101.675 116.646 110.198 116.733C110.36 116.733 110.532 116.733 110.694 116.733C116.915 116.733 127.024 115.667 128.82 108.937C129.785 104.702 129.174 100.823 127.014 97.4054C123.403 91.683 116.036 88.3129 110.341 87.0648C101.225 85.0581 94.8809 86.191 86.9025 91.2221C86.3292 91.587 85.7464 91.9614 85.154 92.3359C79.5739 95.9268 73.8122 99.6425 67.4772 97.9911H67.4868Z" fill="url(#paint54_linear_275_1545)"/>
<path d="M152.354 112.374C152.259 98.5383 138.299 95.7155 129.136 96.6277C119.896 97.5398 113.81 100.679 107.188 108.101C102.143 113.756 96.9546 120.545 89.5781 120.545C92.7695 127.544 105.43 128.005 111.239 128.302C119.409 128.725 127.884 128.629 135.824 126.142C142.264 124.126 152.144 119.767 152.354 112.364V112.374Z" fill="#1C3232"/>
<path d="M90.1611 121.14V120.631H90.9637C100.882 120.602 108.717 120.583 117.24 113.776C127.024 105.941 142.14 100.161 152.527 109.589L152.183 109.973C142.035 100.756 127.177 106.479 117.555 114.179C108.898 121.101 100.987 121.121 90.9637 121.14H90.1611Z" fill="url(#paint55_linear_275_1545)"/>
<path d="M108.01 123.732C101.082 123.732 92.1772 122.436 90.0273 121.101L90.2949 120.669C92.3874 121.956 101.149 123.223 108.01 123.223H108.048C113.38 123.223 120.106 120.948 126.059 117.155C127.626 116.157 129.012 115.158 130.349 114.179C132.987 112.268 135.471 110.463 138.796 109.081C143.488 107.132 147.644 108.255 151.667 109.33L152.412 109.532L152.278 110.031L151.533 109.829C147.415 108.725 143.535 107.669 138.997 109.551C135.719 110.914 133.254 112.7 130.646 114.592C129.298 115.571 127.903 116.579 126.327 117.587C120.298 121.437 113.466 123.732 108.039 123.732H108H108.01Z" fill="url(#paint56_linear_275_1545)"/>
<path d="M89.5971 120.804L89.5493 120.295C89.6735 120.285 102.257 119.095 109.997 113.286C110.15 113.142 127.263 98.4231 140.563 100.871C145.264 101.745 148.972 104.654 151.58 109.513L151.131 109.753C148.599 105.029 145.016 102.216 140.477 101.371C127.464 98.9319 110.503 113.526 110.331 113.68C102.458 119.584 89.7404 120.794 89.6066 120.804H89.5971Z" fill="url(#paint57_linear_275_1545)"/>
<path d="M110.838 126.075H109.778C103.127 126.075 95.6266 124.587 93.1615 123.531C92.3493 123.185 91.6709 122.676 91.0116 122.186C90.6772 121.937 90.3523 121.697 90.0083 121.476L90.2854 121.044C90.6389 121.274 90.9734 121.524 91.3078 121.774C91.948 122.244 92.5977 122.734 93.3525 123.06C95.7126 124.078 103.28 125.566 109.758 125.566H110.81C116.332 125.566 121.568 125.499 126.9 123.243C129.728 122.042 132.432 120.333 135.051 118.682C137.43 117.175 139.895 115.619 142.465 114.438L148.953 111.443C149.24 111.308 149.555 111.193 149.889 111.068C150.606 110.799 151.351 110.521 151.839 110.089L152.173 110.473C151.619 110.972 150.826 111.26 150.061 111.548C149.737 111.663 149.431 111.788 149.154 111.913L142.666 114.909C140.124 116.08 137.678 117.626 135.309 119.124C132.681 120.794 129.958 122.513 127.082 123.723C121.664 126.017 116.371 126.085 110.8 126.085L110.838 126.075Z" fill="url(#paint58_linear_275_1545)"/>
<path d="M118.062 128.955C115.701 128.955 113.408 128.869 111.22 128.754L110.733 128.725C104.78 128.418 92.3968 127.784 89.1768 120.727L88.8901 120.093H89.5781C96.0564 120.093 100.815 114.669 105.42 109.417C105.898 108.869 106.376 108.322 106.854 107.794C113.485 100.353 119.724 97.0981 129.088 96.1764C134.993 95.5907 143.086 96.57 148.083 101.092C151.179 103.886 152.765 107.679 152.794 112.364V112.383C152.574 120.199 142.15 124.635 135.958 126.574C130.015 128.437 123.842 128.955 118.062 128.955ZM90.2947 120.977C93.7345 126.968 105.191 127.563 110.781 127.842L111.268 127.87C118.74 128.264 127.464 128.322 135.7 125.739C141.662 123.867 151.705 119.642 151.915 112.374C151.886 107.957 150.396 104.385 147.5 101.764C142.723 97.4437 134.897 96.5028 129.184 97.0693C119.944 97.9814 114.077 101.054 107.522 108.399C107.045 108.927 106.576 109.474 106.089 110.021C101.522 115.225 96.8017 120.602 90.2947 120.977Z" fill="url(#paint59_linear_275_1545)"/>
<path d="M193.928 109.042C190.89 95.6771 203.703 88.6106 212.742 86.6231C221.857 84.626 228.431 85.7494 236.505 90.8477C242.649 94.7266 249.194 99.6617 256.303 97.3574C254.812 105.096 242.716 109.484 237.174 111.596C229.396 114.553 221.208 117.098 212.99 117.174C206.321 117.232 195.82 116.118 193.938 109.042H193.928Z" fill="#1C3232"/>
<path d="M193.555 106.68L193.125 106.402C200.999 94.0833 216.879 94.9666 228.087 99.4504C237.833 103.358 245.401 100.929 254.975 97.8566L255.73 97.607L255.883 98.0966L255.118 98.3367C245.449 101.438 237.814 103.886 227.887 99.9113C216.87 95.4947 201.247 94.6018 193.546 106.661L193.555 106.68Z" fill="url(#paint60_linear_275_1545)"/>
<path d="M230.715 107.391C227.313 107.391 223.701 106.911 220.214 105.951C218.465 105.471 216.898 104.933 215.379 104.414C212.436 103.406 209.656 102.446 206.187 102.158C201.39 101.736 197.874 103.982 194.148 106.344L193.489 106.767L193.211 106.335L193.871 105.912C197.502 103.617 201.276 101.246 206.225 101.649C209.751 101.947 212.56 102.907 215.541 103.925C217.051 104.443 218.618 104.981 220.348 105.451C226.941 107.256 233.944 107.352 239.085 105.691C245.707 103.55 253.905 99.5849 255.634 97.6838L256.016 98.0295C254.249 99.9786 245.936 104.011 239.247 106.181C236.754 106.988 233.83 107.391 230.724 107.391H230.715Z" fill="url(#paint61_linear_275_1545)"/>
<path d="M194.521 106.152L194.024 106.027C195.495 100.276 198.601 96.2244 203.273 93.9777C215.551 88.0633 234.776 96.6468 234.967 96.7332C243.729 99.9113 256.122 97.1461 256.246 97.1077L256.36 97.607C256.236 97.6358 243.691 100.439 234.776 97.2037C234.566 97.1077 215.542 88.6201 203.493 94.4385C198.973 96.618 195.954 100.564 194.521 106.152Z" fill="url(#paint62_linear_275_1545)"/>
<path d="M223.09 112.211C222.345 112.211 221.599 112.182 220.835 112.105C217.787 111.827 214.768 111.02 211.853 110.233C209.235 109.532 206.531 108.802 203.827 108.466C201.515 108.178 199.183 107.89 196.89 107.602C196.604 107.564 196.279 107.544 195.944 107.535C195.142 107.496 194.31 107.458 193.661 107.151L193.871 106.68C194.435 106.94 195.209 106.978 195.963 107.016C196.307 107.036 196.651 107.045 196.957 107.084C199.25 107.372 201.582 107.66 203.894 107.948C206.636 108.293 209.36 109.023 211.997 109.734C214.892 110.511 217.892 111.318 220.892 111.596C226.711 112.153 231.919 110.444 237.432 108.658L237.948 108.495C244.207 106.469 251.163 102.686 253.207 100.958C253.867 100.401 254.392 99.7289 254.899 99.0664C255.166 98.7208 255.434 98.3752 255.72 98.0487L256.103 98.3848C255.825 98.7016 255.567 99.0376 255.3 99.3833C254.774 100.065 254.239 100.766 253.532 101.352C251.411 103.137 244.512 106.911 238.101 108.975L237.585 109.138C232.741 110.713 228.126 112.201 223.1 112.201L223.09 112.211Z" fill="url(#paint63_linear_275_1545)"/>
<path d="M212.493 117.616C206.015 117.616 195.457 116.464 193.508 109.148V109.129C192.485 104.645 193.125 100.545 195.419 96.9157C199.174 90.9629 206.789 87.468 212.656 86.1814C221.915 84.146 228.661 85.3557 236.744 90.4636C237.327 90.8285 237.91 91.2029 238.493 91.587C244.111 95.2067 249.92 98.9416 256.169 96.9253L256.876 96.6949L256.733 97.4342C255.233 105.211 243.442 109.685 237.766 111.836L237.327 112.009C230.151 114.736 221.647 117.539 212.99 117.616C212.828 117.616 212.656 117.616 212.484 117.616H212.493ZM194.368 108.927C196.164 115.657 206.273 116.723 212.484 116.723C212.656 116.723 212.818 116.723 212.981 116.723C221.504 116.646 229.912 113.872 237.012 111.164L237.461 111.001C242.792 108.975 253.695 104.846 255.692 97.9815C249.338 99.6233 243.585 95.9172 238.015 92.3263C237.432 91.9518 236.849 91.5774 236.266 91.2029C228.297 86.1622 221.953 85.0389 212.828 87.0456C207.143 88.2937 199.766 91.6734 196.154 97.3862C193.995 100.804 193.393 104.683 194.349 108.917L194.368 108.927Z" fill="url(#paint64_linear_275_1545)"/>
<path d="M170.834 112.374C170.929 98.5383 184.889 95.7155 194.052 96.6277C203.292 97.5398 209.379 100.679 216 108.101C221.045 113.756 226.234 120.545 233.61 120.545C230.419 127.544 217.758 128.005 211.949 128.302C203.779 128.725 195.304 128.629 187.364 126.142C180.924 124.126 171.044 119.767 170.834 112.364V112.374Z" fill="#1C3232"/>
<path d="M233.027 121.14H232.225C222.201 121.111 214.29 121.092 205.633 114.179C196.002 106.479 181.153 100.747 171.006 109.974L170.662 109.589C181.048 100.151 196.164 105.951 205.948 113.776C214.462 120.583 222.297 120.602 232.225 120.631H233.027V121.149V121.14Z" fill="url(#paint65_linear_275_1545)"/>
<path d="M215.178 123.732H215.14C209.723 123.732 202.881 121.428 196.852 117.587C195.275 116.579 193.88 115.571 192.533 114.592C189.925 112.7 187.459 110.914 184.182 109.551C179.653 107.669 175.755 108.716 171.646 109.83L170.901 110.031L170.767 109.532L171.512 109.33C175.535 108.245 179.691 107.132 184.383 109.081C187.708 110.463 190.202 112.268 192.829 114.179C194.177 115.149 195.562 116.157 197.12 117.155C203.072 120.957 209.799 123.223 215.131 123.223H215.169C222.029 123.223 230.791 121.956 232.884 120.669L233.151 121.101C231.002 122.426 222.096 123.732 215.169 123.732H215.178Z" fill="url(#paint66_linear_275_1545)"/>
<path d="M233.591 120.804C233.467 120.794 220.739 119.584 212.876 113.689C212.704 113.545 198.237 101.102 185.759 101.102C184.727 101.102 183.704 101.188 182.711 101.371C178.162 102.206 174.579 105.029 172.057 109.753L171.608 109.513C174.216 104.645 177.914 101.736 182.625 100.871C195.877 98.4423 213.019 113.142 213.191 113.296C220.921 119.095 233.505 120.285 233.629 120.295L233.581 120.804H233.591Z" fill="url(#paint67_linear_275_1545)"/>
<path d="M212.35 126.075C206.77 126.075 201.486 126.008 196.068 123.713C193.202 122.494 190.479 120.775 187.842 119.114C185.472 117.616 183.026 116.07 180.494 114.899L174.006 111.903C173.729 111.779 173.423 111.663 173.098 111.538C172.343 111.25 171.55 110.962 170.996 110.463L171.331 110.079C171.818 110.511 172.554 110.79 173.27 111.058C173.605 111.183 173.929 111.308 174.216 111.433L180.704 114.428C183.274 115.609 185.739 117.165 188.119 118.672C190.737 120.324 193.441 122.033 196.269 123.233C201.601 125.489 206.837 125.556 212.36 125.556H213.411C219.899 125.556 227.457 124.068 229.817 123.05C230.571 122.724 231.231 122.234 231.861 121.764C232.196 121.514 232.53 121.265 232.884 121.034L233.161 121.466C232.817 121.687 232.492 121.937 232.158 122.177C231.498 122.666 230.82 123.175 230.008 123.521C227.552 124.587 220.042 126.065 213.392 126.065H212.331L212.35 126.075Z" fill="url(#paint68_linear_275_1545)"/>
<path d="M205.136 128.955C199.355 128.955 193.183 128.437 187.24 126.574C181.048 124.635 170.624 120.209 170.404 112.383V112.364C170.432 107.679 172.019 103.886 175.114 101.092C180.102 96.5797 188.195 95.5907 194.11 96.1764C203.474 97.0981 209.713 100.353 216.344 107.794C216.822 108.332 217.3 108.869 217.777 109.417C222.383 114.669 227.141 120.093 233.62 120.093H234.308L234.021 120.727C230.801 127.774 218.418 128.418 212.465 128.725L211.978 128.754C209.789 128.869 207.496 128.955 205.136 128.955ZM171.283 112.374C171.493 119.642 181.535 123.867 187.498 125.739C195.725 128.322 204.458 128.264 211.93 127.87L212.417 127.842C218.016 127.554 229.463 126.968 232.903 120.977C226.396 120.602 221.676 115.225 217.109 110.022C216.631 109.474 216.153 108.937 215.675 108.399C209.121 101.054 203.244 97.9815 194.014 97.0693C188.272 96.4933 180.475 97.4438 175.697 101.764C172.802 104.386 171.312 107.957 171.283 112.374Z" fill="url(#paint69_linear_275_1545)"/>
<path d="M160.82 157.443C160.82 157.443 191.95 131.941 171.799 105.307C171.139 104.443 169.773 103.013 167.986 102.033C163.706 99.6714 153.491 97.2134 146.946 103.886C146.296 104.549 144.586 106.709 143.975 107.708C142.312 110.454 132.317 138.029 160.81 157.443H160.82Z" fill="#1C3232"/>
<path d="M160.82 157.577C160.763 157.577 160.715 157.548 160.686 157.491C154.093 142.359 153.826 127.4 154.772 117.52C155.794 106.815 158.412 99.5946 158.441 99.5178C158.46 99.4602 158.517 99.4218 158.574 99.4218H158.594C158.66 99.4314 158.708 99.489 158.708 99.5562L160.954 157.414C160.954 157.481 160.915 157.539 160.849 157.558C160.839 157.558 160.829 157.558 160.82 157.558V157.577ZM158.46 100.353C157.781 102.437 155.889 108.841 155.058 117.568C154.131 127.256 154.37 141.85 160.648 156.684L158.46 100.363V100.353Z" fill="url(#paint70_linear_275_1545)"/>
<path d="M160.82 157.577C160.82 157.577 160.734 157.558 160.705 157.519C160.638 157.433 154.065 148.83 150.415 137.433C147.042 126.901 145.542 111.769 157.562 99.4601C157.619 99.4025 157.705 99.3929 157.762 99.4601C157.82 99.5177 157.82 99.6041 157.762 99.6617C145.838 111.865 147.328 126.891 150.682 137.347C154.323 148.696 160.868 157.26 160.935 157.337C160.982 157.404 160.973 157.49 160.906 157.538C160.877 157.558 160.849 157.567 160.82 157.567V157.577Z" fill="url(#paint71_linear_275_1545)"/>
<path d="M160.82 157.577C160.82 157.577 160.753 157.567 160.725 157.538C160.533 157.366 142.15 139.843 143.21 121.38C143.698 112.95 148.131 105.567 156.377 99.4409C156.434 99.3929 156.52 99.4025 156.578 99.4697C156.625 99.5369 156.616 99.6233 156.549 99.6713C148.37 105.749 143.975 113.056 143.497 121.39C142.436 139.718 160.734 157.145 160.916 157.318C160.973 157.375 160.973 157.462 160.916 157.519C160.887 157.548 160.849 157.567 160.81 157.567L160.82 157.577Z" fill="url(#paint72_linear_275_1545)"/>
<path d="M160.82 157.577C160.82 157.577 160.763 157.577 160.744 157.558C160.677 157.519 160.658 157.423 160.705 157.356C160.763 157.27 166.534 148.235 169.267 136.656C171.789 125.989 172.162 110.914 159.664 99.6713C159.606 99.6137 159.597 99.5273 159.654 99.4697C159.702 99.4121 159.798 99.4025 159.855 99.4601C172.458 110.79 172.076 125.979 169.534 136.732C166.792 148.36 160.992 157.433 160.935 157.519C160.906 157.558 160.858 157.586 160.82 157.586V157.577Z" fill="url(#paint73_linear_275_1545)"/>
<path d="M160.82 157.577C160.82 157.577 160.791 157.577 160.782 157.577C160.705 157.558 160.667 157.471 160.686 157.404C160.791 157.039 171.283 120.948 158.45 99.6617C158.412 99.5945 158.431 99.5081 158.498 99.4696C158.565 99.4312 158.651 99.4504 158.689 99.5177C165.426 110.703 165.684 125.873 164.709 136.627C163.658 148.273 160.982 157.394 160.954 157.49C160.935 157.558 160.877 157.596 160.82 157.596V157.577Z" fill="url(#paint74_linear_275_1545)"/>
<path d="M160.82 157.577C160.82 157.577 160.744 157.567 160.715 157.538C160.658 157.481 160.658 157.394 160.715 157.337C160.868 157.183 175.783 141.831 174.847 124.203C174.369 115.11 169.792 106.959 161.26 99.9593C161.202 99.9113 161.193 99.8249 161.24 99.7577C161.288 99.7001 161.384 99.6905 161.441 99.7385C170.041 106.786 174.646 115.014 175.133 124.193C176.07 141.946 161.068 157.394 160.916 157.548C160.887 157.577 160.849 157.586 160.81 157.586L160.82 157.577Z" fill="url(#paint75_linear_275_1545)"/>
<path d="M160.83 157.798L160.658 157.682C145.637 147.447 141.567 134.995 140.802 126.353C139.981 117.069 142.666 109.33 143.736 107.564C144.347 106.555 146.048 104.395 146.746 103.685C153.1 97.2134 163.228 99.0856 168.13 101.784C169.85 102.734 171.273 104.136 172.028 105.134C182.529 119.018 178.955 132.575 174.111 141.504C168.885 151.144 161.078 157.606 160.992 157.663L160.83 157.798ZM158.001 99.8633C154.189 99.8633 150.214 100.967 147.147 104.088C146.488 104.76 144.796 106.901 144.214 107.861C143.573 108.927 140.487 116.406 141.366 126.305C142.121 134.793 146.105 147.006 160.801 157.087C161.938 156.108 168.865 149.992 173.624 141.216C178.382 132.441 181.889 119.114 171.579 105.48C170.862 104.53 169.506 103.195 167.862 102.283C165.483 100.967 161.833 99.8537 158.011 99.8537L158.001 99.8633Z" fill="url(#paint76_linear_275_1545)"/>
<path d="M160.505 228.953C122.103 228.953 90.8584 219.467 90.8584 207.801C90.8584 196.136 122.103 186.65 160.505 186.65C198.906 186.65 230.151 196.136 230.151 207.801C230.151 219.467 198.906 228.953 160.505 228.953ZM160.505 187.168C122.39 187.168 91.3744 196.424 91.3744 207.801C91.3744 219.179 122.38 228.435 160.505 228.435C198.629 228.435 229.635 219.179 229.635 207.801C229.635 196.424 198.629 187.168 160.505 187.168Z" fill="url(#paint77_linear_275_1545)"/>
<path d="M160.505 243.633C129.059 243.633 99.4962 239.947 77.2522 233.245C54.8457 226.495 42.5103 217.46 42.5103 207.792C42.5103 198.123 54.8457 189.088 77.2522 182.339C99.4962 175.637 129.059 171.95 160.505 171.95C191.95 171.95 221.513 175.637 243.758 182.339C266.164 189.088 278.499 198.123 278.499 207.792C278.499 217.46 266.164 226.495 243.758 233.245C221.513 239.947 191.95 243.633 160.505 243.633ZM160.505 172.833C95.9322 172.833 43.3893 188.512 43.3893 207.792C43.3893 227.071 95.9227 242.75 160.505 242.75C225.087 242.75 277.62 227.071 277.62 207.792C277.62 188.512 225.087 172.833 160.505 172.833Z" fill="url(#paint78_linear_275_1545)"/>
<path d="M160.505 232.333C115.835 232.333 79.4878 221.33 79.4878 207.801C79.4878 194.273 115.835 183.27 160.505 183.27C205.174 183.27 241.521 194.273 241.521 207.801C241.521 221.33 205.174 232.333 160.505 232.333ZM160.505 183.654C116.045 183.654 79.8795 194.484 79.8795 207.801C79.8795 221.118 116.045 231.939 160.505 231.939C204.964 231.939 241.13 221.109 241.13 207.801C241.13 194.494 204.964 183.654 160.505 183.654Z" fill="url(#paint79_linear_275_1545)"/>
<path d="M160.505 247.368C125.438 247.368 92.4638 243.249 67.6591 235.78C42.6728 228.252 28.9136 218.171 28.9136 207.389C28.9136 196.606 42.6728 186.525 67.6591 178.997C92.4638 171.528 125.438 167.409 160.505 167.409C195.572 167.409 228.546 171.528 253.351 178.997C278.337 186.525 292.096 196.606 292.096 207.389C292.096 218.171 278.337 228.252 253.351 235.78C228.546 243.249 195.572 247.368 160.505 247.368ZM160.505 168.407C88.4794 168.407 29.8882 185.901 29.8882 207.398C29.8882 228.895 88.4794 246.389 160.505 246.389C232.53 246.389 291.122 228.895 291.122 207.398C291.122 185.901 232.53 168.407 160.505 168.407Z" fill="url(#paint80_linear_275_1545)"/>
<path d="M160.505 256C117.698 256 77.4528 250.978 47.173 241.857C16.7499 232.698 0 220.456 0 207.398C0 194.34 16.7499 182.089 47.173 172.929C77.4528 163.808 117.698 158.787 160.505 158.787C203.311 158.787 243.557 163.808 273.837 172.929C304.26 182.089 321.01 194.331 321.01 207.398C321.01 220.465 304.26 232.707 273.837 241.867C243.557 250.988 203.311 256.01 160.505 256.01V256ZM160.505 159.564C72.4268 159.564 0.773954 181.023 0.773954 207.398C0.773954 233.773 72.4268 255.232 160.505 255.232C248.583 255.232 320.236 233.773 320.236 207.398C320.236 181.023 248.583 159.564 160.505 159.564Z" fill="url(#paint81_linear_275_1545)"/>
</g>
<defs>
<linearGradient id="paint0_linear_275_1545" x1="160.639" y1="37.7812" x2="162.636" y2="274.991" gradientUnits="userSpaceOnUse">
<stop stop-color="#C09440"/>
<stop offset="0.5" stop-color="#F5E283"/>
<stop offset="0.89" stop-color="#D3B058"/>
</linearGradient>
<linearGradient id="paint1_linear_275_1545" x1="222.32" y1="77.9001" x2="226.848" y2="84.0286" gradientUnits="userSpaceOnUse">
<stop stop-color="#C09440"/>
<stop offset="0.5" stop-color="#F5E283"/>
<stop offset="0.89" stop-color="#D3B058"/>
</linearGradient>
<linearGradient id="paint2_linear_275_1545" x1="222.312" y1="77.9059" x2="231.039" y2="89.7156" gradientUnits="userSpaceOnUse">
<stop stop-color="#C09440"/>
<stop offset="0.5" stop-color="#F5E283"/>
<stop offset="0.89" stop-color="#D3B058"/>
</linearGradient>
<linearGradient id="paint3_linear_275_1545" x1="222.299" y1="77.9038" x2="234.193" y2="93.9995" gradientUnits="userSpaceOnUse">
<stop stop-color="#C09440"/>
<stop offset="0.5" stop-color="#F5E283"/>
<stop offset="0.89" stop-color="#D3B058"/>
</linearGradient>
<linearGradient id="paint4_linear_275_1545" x1="223.599" y1="79.6576" x2="215.989" y2="69.3587" gradientUnits="userSpaceOnUse">
<stop stop-color="#C09440"/>
<stop offset="0.5" stop-color="#F5E283"/>
<stop offset="0.89" stop-color="#D3B058"/>
</linearGradient>
<linearGradient id="paint5_linear_275_1545" x1="224.369" y1="80.7094" x2="219.789" y2="74.5116" gradientUnits="userSpaceOnUse">
<stop stop-color="#C09440"/>
<stop offset="0.5" stop-color="#F5E283"/>
<stop offset="0.89" stop-color="#D3B058"/>
</linearGradient>
<linearGradient id="paint6_linear_275_1545" x1="222.74" y1="78.1112" x2="213.41" y2="65.4843" gradientUnits="userSpaceOnUse">
<stop stop-color="#C09440"/>
<stop offset="0.5" stop-color="#F5E283"/>
<stop offset="0.89" stop-color="#D3B058"/>
</linearGradient>
<linearGradient id="paint7_linear_275_1545" x1="210.984" y1="62.2976" x2="235.997" y2="96.1465" gradientUnits="userSpaceOnUse">
<stop stop-color="#C09440"/>
<stop offset="0.5" stop-color="#F5E283"/>
<stop offset="0.89" stop-color="#D3B058"/>
</linearGradient>
<linearGradient id="paint8_linear_275_1545" x1="205.468" y1="66.4411" x2="212.327" y2="71.4112" gradientUnits="userSpaceOnUse">
<stop stop-color="#C09440"/>
<stop offset="0.5" stop-color="#F5E283"/>
<stop offset="0.89" stop-color="#D3B058"/>
</linearGradient>
<linearGradient id="paint9_linear_275_1545" x1="205.47" y1="66.4545" x2="218.668" y2="76.0185" gradientUnits="userSpaceOnUse">
<stop stop-color="#C09440"/>
<stop offset="0.5" stop-color="#F5E283"/>
<stop offset="0.89" stop-color="#D3B058"/>
</linearGradient>
<linearGradient id="paint10_linear_275_1545" x1="205.457" y1="66.4566" x2="223.445" y2="79.4912" gradientUnits="userSpaceOnUse">
<stop stop-color="#C09440"/>
<stop offset="0.5" stop-color="#F5E283"/>
<stop offset="0.89" stop-color="#D3B058"/>
</linearGradient>
<linearGradient id="paint11_linear_275_1545" x1="207.435" y1="67.9016" x2="195.91" y2="59.5506" gradientUnits="userSpaceOnUse">
<stop stop-color="#C09440"/>
<stop offset="0.5" stop-color="#F5E283"/>
<stop offset="0.89" stop-color="#D3B058"/>
</linearGradient>
<linearGradient id="paint12_linear_275_1545" x1="208.601" y1="68.7549" x2="201.672" y2="63.7343" gradientUnits="userSpaceOnUse">
<stop stop-color="#C09440"/>
<stop offset="0.5" stop-color="#F5E283"/>
<stop offset="0.89" stop-color="#D3B058"/>
</linearGradient>
<linearGradient id="paint13_linear_275_1545" x1="206.007" y1="66.5603" x2="191.887" y2="56.328" gradientUnits="userSpaceOnUse">
<stop stop-color="#C09440"/>
<stop offset="0.5" stop-color="#F5E283"/>
<stop offset="0.89" stop-color="#D3B058"/>
</linearGradient>
<linearGradient id="paint14_linear_275_1545" x1="188.241" y1="53.7419" x2="226.078" y2="81.159" gradientUnits="userSpaceOnUse">
<stop stop-color="#C09440"/>
<stop offset="0.5" stop-color="#F5E283"/>
<stop offset="0.89" stop-color="#D3B058"/>
</linearGradient>
<linearGradient id="paint15_linear_275_1545" x1="183.036" y1="56.5071" x2="191.796" y2="59.076" gradientUnits="userSpaceOnUse">
<stop stop-color="#C09440"/>
<stop offset="0.5" stop-color="#F5E283"/>
<stop offset="0.89" stop-color="#D3B058"/>
</linearGradient>
<linearGradient id="paint16_linear_275_1545" x1="183.033" y1="56.5163" x2="200.048" y2="61.5062" gradientUnits="userSpaceOnUse">
<stop stop-color="#C09440"/>
<stop offset="0.5" stop-color="#F5E283"/>
<stop offset="0.89" stop-color="#D3B058"/>
</linearGradient>
<linearGradient id="paint17_linear_275_1545" x1="183.033" y1="56.5162" x2="206.276" y2="63.3327" gradientUnits="userSpaceOnUse">
<stop stop-color="#C09440"/>
<stop offset="0.5" stop-color="#F5E283"/>
<stop offset="0.89" stop-color="#D3B058"/>
</linearGradient>
<linearGradient id="paint18_linear_275_1545" x1="185.268" y1="57.1878" x2="170.408" y2="52.83" gradientUnits="userSpaceOnUse">
<stop stop-color="#C09440"/>
<stop offset="0.5" stop-color="#F5E283"/>
<stop offset="0.89" stop-color="#D3B058"/>
</linearGradient>
<linearGradient id="paint19_linear_275_1545" x1="186.801" y1="57.6318" x2="177.931" y2="55.0306" gradientUnits="userSpaceOnUse">
<stop stop-color="#C09440"/>
<stop offset="0.5" stop-color="#F5E283"/>
<stop offset="0.89" stop-color="#D3B058"/>
</linearGradient>
<linearGradient id="paint20_linear_275_1545" x1="183.538" y1="56.3952" x2="165.046" y2="50.9722" gradientUnits="userSpaceOnUse">
<stop stop-color="#C09440"/>
<stop offset="0.5" stop-color="#F5E283"/>
<stop offset="0.89" stop-color="#D3B058"/>
</linearGradient>
<linearGradient id="paint21_linear_275_1545" x1="160.303" y1="49.6851" x2="209.604" y2="64.1439" gradientUnits="userSpaceOnUse">
<stop stop-color="#C09440"/>
<stop offset="0.5" stop-color="#F5E283"/>
<stop offset="0.89" stop-color="#D3B058"/>
</linearGradient>
<linearGradient id="paint22_linear_275_1545" x1="97.5389" y1="77.8886" x2="93.0047" y2="84.0247" gradientUnits="userSpaceOnUse">
<stop stop-color="#C09440"/>
<stop offset="0.5" stop-color="#F5E283"/>
<stop offset="0.89" stop-color="#D3B058"/>
</linearGradient>
<linearGradient id="paint23_linear_275_1545" x1="97.554" y1="77.8999" x2="88.8216" y2="89.7174" gradientUnits="userSpaceOnUse">
<stop stop-color="#C09440"/>
<stop offset="0.5" stop-color="#F5E283"/>
<stop offset="0.89" stop-color="#D3B058"/>
</linearGradient>
<linearGradient id="paint24_linear_275_1545" x1="97.5539" y1="77.8998" x2="85.66" y2="93.9956" gradientUnits="userSpaceOnUse">
<stop stop-color="#C09440"/>
<stop offset="0.5" stop-color="#F5E283"/>
<stop offset="0.89" stop-color="#D3B058"/>
</linearGradient>
<linearGradient id="paint25_linear_275_1545" x1="96.2536" y1="79.6535" x2="103.87" y2="69.3469" gradientUnits="userSpaceOnUse">
<stop stop-color="#C09440"/>
<stop offset="0.5" stop-color="#F5E283"/>
<stop offset="0.89" stop-color="#D3B058"/>
</linearGradient>
<linearGradient id="paint26_linear_275_1545" x1="95.4837" y1="80.7054" x2="100.064" y2="74.5076" gradientUnits="userSpaceOnUse">
<stop stop-color="#C09440"/>
<stop offset="0.5" stop-color="#F5E283"/>
<stop offset="0.89" stop-color="#D3B058"/>
</linearGradient>
<linearGradient id="paint27_linear_275_1545" x1="97.1201" y1="78.1129" x2="106.451" y2="65.486" gradientUnits="userSpaceOnUse">
<stop stop-color="#C09440"/>
<stop offset="0.5" stop-color="#F5E283"/>
<stop offset="0.89" stop-color="#D3B058"/>
</linearGradient>
<linearGradient id="paint28_linear_275_1545" x1="108.876" y1="62.2992" x2="83.8695" y2="96.1404" gradientUnits="userSpaceOnUse">
<stop stop-color="#C09440"/>
<stop offset="0.5" stop-color="#F5E283"/>
<stop offset="0.89" stop-color="#D3B058"/>
</linearGradient>
<linearGradient id="paint29_linear_275_1545" x1="114.406" y1="66.4321" x2="107.547" y2="71.4022" gradientUnits="userSpaceOnUse">
<stop stop-color="#C09440"/>
<stop offset="0.5" stop-color="#F5E283"/>
<stop offset="0.89" stop-color="#D3B058"/>
</linearGradient>
<linearGradient id="paint30_linear_275_1545" x1="114.411" y1="66.4398" x2="101.205" y2="76.0094" gradientUnits="userSpaceOnUse">
<stop stop-color="#C09440"/>
<stop offset="0.5" stop-color="#F5E283"/>
<stop offset="0.89" stop-color="#D3B058"/>
</linearGradient>
<linearGradient id="paint31_linear_275_1545" x1="114.411" y1="66.4398" x2="96.4234" y2="79.4745" gradientUnits="userSpaceOnUse">
<stop stop-color="#C09440"/>
<stop offset="0.5" stop-color="#F5E283"/>
<stop offset="0.89" stop-color="#D3B058"/>
</linearGradient>
<linearGradient id="paint32_linear_275_1545" x1="112.439" y1="67.8926" x2="123.964" y2="59.5417" gradientUnits="userSpaceOnUse">
<stop stop-color="#C09440"/>
<stop offset="0.5" stop-color="#F5E283"/>
<stop offset="0.89" stop-color="#D3B058"/>
</linearGradient>
<linearGradient id="paint33_linear_275_1545" x1="111.273" y1="68.746" x2="118.201" y2="63.7253" gradientUnits="userSpaceOnUse">
<stop stop-color="#C09440"/>
<stop offset="0.5" stop-color="#F5E283"/>
<stop offset="0.89" stop-color="#D3B058"/>
</linearGradient>
<linearGradient id="paint34_linear_275_1545" x1="113.874" y1="66.5456" x2="127.995" y2="56.3133" gradientUnits="userSpaceOnUse">
<stop stop-color="#C09440"/>
<stop offset="0.5" stop-color="#F5E283"/>
<stop offset="0.89" stop-color="#D3B058"/>
</linearGradient>
<linearGradient id="paint35_linear_275_1545" x1="131.632" y1="53.7329" x2="93.7963" y2="81.15" gradientUnits="userSpaceOnUse">
<stop stop-color="#C09440"/>
<stop offset="0.5" stop-color="#F5E283"/>
<stop offset="0.89" stop-color="#D3B058"/>
</linearGradient>
<linearGradient id="paint36_linear_275_1545" x1="136.824" y1="56.5043" x2="128.073" y2="59.0705" gradientUnits="userSpaceOnUse">
<stop stop-color="#C09440"/>
<stop offset="0.5" stop-color="#F5E283"/>
<stop offset="0.89" stop-color="#D3B058"/>
</linearGradient>
<linearGradient id="paint37_linear_275_1545" x1="136.826" y1="56.5135" x2="119.812" y2="61.5035" gradientUnits="userSpaceOnUse">
<stop stop-color="#C09440"/>
<stop offset="0.5" stop-color="#F5E283"/>
<stop offset="0.89" stop-color="#D3B058"/>
</linearGradient>
<linearGradient id="paint38_linear_275_1545" x1="136.826" y1="56.5135" x2="113.584" y2="63.33" gradientUnits="userSpaceOnUse">
<stop stop-color="#C09440"/>
<stop offset="0.5" stop-color="#F5E283"/>
<stop offset="0.89" stop-color="#D3B058"/>
</linearGradient>
<linearGradient id="paint39_linear_275_1545" x1="134.592" y1="57.1851" x2="149.461" y2="52.8246" gradientUnits="userSpaceOnUse">
<stop stop-color="#C09440"/>
<stop offset="0.5" stop-color="#F5E283"/>
<stop offset="0.89" stop-color="#D3B058"/>
</linearGradient>
<linearGradient id="paint40_linear_275_1545" x1="133.059" y1="57.6291" x2="141.938" y2="55.0251" gradientUnits="userSpaceOnUse">
<stop stop-color="#C09440"/>
<stop offset="0.5" stop-color="#F5E283"/>
<stop offset="0.89" stop-color="#D3B058"/>
</linearGradient>
<linearGradient id="paint41_linear_275_1545" x1="136.322" y1="56.3925" x2="154.823" y2="50.9667" gradientUnits="userSpaceOnUse">
<stop stop-color="#C09440"/>
<stop offset="0.5" stop-color="#F5E283"/>
<stop offset="0.89" stop-color="#D3B058"/>
</linearGradient>
<linearGradient id="paint42_linear_275_1545" x1="159.566" y1="49.6797" x2="110.265" y2="64.1385" gradientUnits="userSpaceOnUse">
<stop stop-color="#C09440"/>
<stop offset="0.5" stop-color="#F5E283"/>
<stop offset="0.89" stop-color="#D3B058"/>
</linearGradient>
<linearGradient id="paint43_linear_275_1545" x1="157.056" y1="55.2651" x2="166.104" y2="55.2651" gradientUnits="userSpaceOnUse">
<stop stop-color="#C09440"/>
<stop offset="0.5" stop-color="#F5E283"/>
<stop offset="0.89" stop-color="#D3B058"/>
</linearGradient>
<linearGradient id="paint44_linear_275_1545" x1="157.056" y1="55.2748" x2="174.857" y2="55.2748" gradientUnits="userSpaceOnUse">
<stop stop-color="#C09440"/>
<stop offset="0.5" stop-color="#F5E283"/>
<stop offset="0.89" stop-color="#D3B058"/>
</linearGradient>
<linearGradient id="paint45_linear_275_1545" x1="157.056" y1="55.2844" x2="181.488" y2="55.2844" gradientUnits="userSpaceOnUse">
<stop stop-color="#C09440"/>
<stop offset="0.5" stop-color="#F5E283"/>
<stop offset="0.89" stop-color="#D3B058"/>
</linearGradient>
<linearGradient id="paint46_linear_275_1545" x1="158.957" y1="55.2748" x2="143.363" y2="55.2748" gradientUnits="userSpaceOnUse">
<stop stop-color="#C09440"/>
<stop offset="0.5" stop-color="#F5E283"/>
<stop offset="0.89" stop-color="#D3B058"/>
</linearGradient>
<linearGradient id="paint47_linear_275_1545" x1="160.581" y1="55.2651" x2="151.38" y2="55.2651" gradientUnits="userSpaceOnUse">
<stop stop-color="#C09440"/>
<stop offset="0.5" stop-color="#F5E283"/>
<stop offset="0.89" stop-color="#D3B058"/>
</linearGradient>
<linearGradient id="paint48_linear_275_1545" x1="157.505" y1="55.0156" x2="137.583" y2="55.0156" gradientUnits="userSpaceOnUse">
<stop stop-color="#C09440"/>
<stop offset="0.5" stop-color="#F5E283"/>
<stop offset="0.89" stop-color="#D3B058"/>
</linearGradient>
<linearGradient id="paint49_linear_275_1545" x1="132.566" y1="55.1788" x2="184.966" y2="55.1788" gradientUnits="userSpaceOnUse">
<stop stop-color="#C09440"/>
<stop offset="0.5" stop-color="#F5E283"/>
<stop offset="0.89" stop-color="#D3B058"/>
</linearGradient>
<linearGradient id="paint50_linear_275_1545" x1="69.1559" y1="91.3868" x2="129.643" y2="107.979" gradientUnits="userSpaceOnUse">
<stop stop-color="#C09440"/>
<stop offset="0.5" stop-color="#F5E283"/>
<stop offset="0.89" stop-color="#D3B058"/>
</linearGradient>
<linearGradient id="paint51_linear_275_1545" x1="68.1604" y1="94.547" x2="128.675" y2="111.146" gradientUnits="userSpaceOnUse">
<stop stop-color="#C09440"/>
<stop offset="0.5" stop-color="#F5E283"/>
<stop offset="0.89" stop-color="#D3B058"/>
</linearGradient>
<linearGradient id="paint52_linear_275_1545" x1="69.1937" y1="88.9373" x2="129.339" y2="105.435" gradientUnits="userSpaceOnUse">
<stop stop-color="#C09440"/>
<stop offset="0.5" stop-color="#F5E283"/>
<stop offset="0.89" stop-color="#D3B058"/>
</linearGradient>
<linearGradient id="paint53_linear_275_1545" x1="67.5143" y1="96.9376" x2="127.817" y2="113.479" gradientUnits="userSpaceOnUse">
<stop stop-color="#C09440"/>
<stop offset="0.5" stop-color="#F5E283"/>
<stop offset="0.89" stop-color="#D3B058"/>
</linearGradient>
<linearGradient id="paint54_linear_275_1545" x1="67.8908" y1="90.9766" x2="130.009" y2="108.016" gradientUnits="userSpaceOnUse">
<stop stop-color="#C09440"/>
<stop offset="0.5" stop-color="#F5E283"/>
<stop offset="0.89" stop-color="#D3B058"/>
</linearGradient>
<linearGradient id="paint55_linear_275_1545" x1="90.1611" y1="112.921" x2="152.527" y2="112.921" gradientUnits="userSpaceOnUse">
<stop stop-color="#C09440"/>
<stop offset="0.5" stop-color="#F5E283"/>
<stop offset="0.89" stop-color="#D3B058"/>
</linearGradient>
<linearGradient id="paint56_linear_275_1545" x1="90.0273" y1="115.869" x2="152.412" y2="115.869" gradientUnits="userSpaceOnUse">
<stop stop-color="#C09440"/>
<stop offset="0.5" stop-color="#F5E283"/>
<stop offset="0.89" stop-color="#D3B058"/>
</linearGradient>
<linearGradient id="paint57_linear_275_1545" x1="89.5493" y1="110.694" x2="151.58" y2="110.694" gradientUnits="userSpaceOnUse">
<stop stop-color="#C09440"/>
<stop offset="0.5" stop-color="#F5E283"/>
<stop offset="0.89" stop-color="#D3B058"/>
</linearGradient>
<linearGradient id="paint58_linear_275_1545" x1="90.0274" y1="118.077" x2="152.202" y2="118.077" gradientUnits="userSpaceOnUse">
<stop stop-color="#C09440"/>
<stop offset="0.5" stop-color="#F5E283"/>
<stop offset="0.89" stop-color="#D3B058"/>
</linearGradient>
<linearGradient id="paint59_linear_275_1545" x1="88.8901" y1="112.489" x2="152.794" y2="112.489" gradientUnits="userSpaceOnUse">
<stop stop-color="#C09440"/>
<stop offset="0.5" stop-color="#F5E283"/>
<stop offset="0.89" stop-color="#D3B058"/>
</linearGradient>
<linearGradient id="paint60_linear_275_1545" x1="254.042" y1="91.4004" x2="193.555" y2="107.992" gradientUnits="userSpaceOnUse">
<stop stop-color="#C09440"/>
<stop offset="0.5" stop-color="#F5E283"/>
<stop offset="0.89" stop-color="#D3B058"/>
</linearGradient>
<linearGradient id="paint61_linear_275_1545" x1="255.038" y1="94.5607" x2="194.523" y2="111.16" gradientUnits="userSpaceOnUse">
<stop stop-color="#C09440"/>
<stop offset="0.5" stop-color="#F5E283"/>
<stop offset="0.89" stop-color="#D3B058"/>
</linearGradient>
<linearGradient id="paint62_linear_275_1545" x1="253.995" y1="88.9534" x2="193.859" y2="105.449" gradientUnits="userSpaceOnUse">
<stop stop-color="#C09440"/>
<stop offset="0.5" stop-color="#F5E283"/>
<stop offset="0.89" stop-color="#D3B058"/>
</linearGradient>
<linearGradient id="paint63_linear_275_1545" x1="255.681" y1="96.9421" x2="195.379" y2="113.483" gradientUnits="userSpaceOnUse">
<stop stop-color="#C09440"/>
<stop offset="0.5" stop-color="#F5E283"/>
<stop offset="0.89" stop-color="#D3B058"/>
</linearGradient>
<linearGradient id="paint64_linear_275_1545" x1="255.295" y1="90.9836" x2="193.177" y2="108.023" gradientUnits="userSpaceOnUse">
<stop stop-color="#C09440"/>
<stop offset="0.5" stop-color="#F5E283"/>
<stop offset="0.89" stop-color="#D3B058"/>
</linearGradient>
<linearGradient id="paint65_linear_275_1545" x1="233.027" y1="112.921" x2="170.671" y2="112.921" gradientUnits="userSpaceOnUse">
<stop stop-color="#C09440"/>
<stop offset="0.5" stop-color="#F5E283"/>
<stop offset="0.89" stop-color="#D3B058"/>
</linearGradient>
<linearGradient id="paint66_linear_275_1545" x1="233.161" y1="115.869" x2="170.776" y2="115.869" gradientUnits="userSpaceOnUse">
<stop stop-color="#C09440"/>
<stop offset="0.5" stop-color="#F5E283"/>
<stop offset="0.89" stop-color="#D3B058"/>
</linearGradient>
<linearGradient id="paint67_linear_275_1545" x1="233.639" y1="110.694" x2="171.617" y2="110.694" gradientUnits="userSpaceOnUse">
<stop stop-color="#C09440"/>
<stop offset="0.5" stop-color="#F5E283"/>
<stop offset="0.89" stop-color="#D3B058"/>
</linearGradient>
<linearGradient id="paint68_linear_275_1545" x1="233.17" y1="118.077" x2="170.987" y2="118.077" gradientUnits="userSpaceOnUse">
<stop stop-color="#C09440"/>
<stop offset="0.5" stop-color="#F5E283"/>
<stop offset="0.89" stop-color="#D3B058"/>
</linearGradient>
<linearGradient id="paint69_linear_275_1545" x1="234.298" y1="112.489" x2="170.394" y2="112.489" gradientUnits="userSpaceOnUse">
<stop stop-color="#C09440"/>
<stop offset="0.5" stop-color="#F5E283"/>
<stop offset="0.89" stop-color="#D3B058"/>
</linearGradient>
<linearGradient id="paint70_linear_275_1545" x1="160.963" y1="128.504" x2="154.37" y2="128.504" gradientUnits="userSpaceOnUse">
<stop stop-color="#C09440"/>
<stop offset="0.5" stop-color="#F5E283"/>
<stop offset="0.89" stop-color="#D3B058"/>
</linearGradient>
<linearGradient id="paint71_linear_275_1545" x1="160.963" y1="128.494" x2="148.007" y2="128.494" gradientUnits="userSpaceOnUse">
<stop stop-color="#C09440"/>
<stop offset="0.5" stop-color="#F5E283"/>
<stop offset="0.89" stop-color="#D3B058"/>
</linearGradient>
<linearGradient id="paint72_linear_275_1545" x1="160.963" y1="128.504" x2="143.162" y2="128.504" gradientUnits="userSpaceOnUse">
<stop stop-color="#C09440"/>
<stop offset="0.5" stop-color="#F5E283"/>
<stop offset="0.89" stop-color="#D3B058"/>
</linearGradient>
<linearGradient id="paint73_linear_275_1545" x1="159.616" y1="128.504" x2="170.958" y2="128.504" gradientUnits="userSpaceOnUse">
<stop stop-color="#C09440"/>
<stop offset="0.5" stop-color="#F5E283"/>
<stop offset="0.89" stop-color="#D3B058"/>
</linearGradient>
<linearGradient id="paint74_linear_275_1545" x1="158.431" y1="128.504" x2="165.129" y2="128.504" gradientUnits="userSpaceOnUse">
<stop stop-color="#C09440"/>
<stop offset="0.5" stop-color="#F5E283"/>
<stop offset="0.89" stop-color="#D3B058"/>
</linearGradient>
<linearGradient id="paint75_linear_275_1545" x1="160.677" y1="128.638" x2="175.181" y2="128.638" gradientUnits="userSpaceOnUse">
<stop stop-color="#C09440"/>
<stop offset="0.5" stop-color="#F5E283"/>
<stop offset="0.89" stop-color="#D3B058"/>
</linearGradient>
<linearGradient id="paint76_linear_275_1545" x1="178.841" y1="128.542" x2="140.649" y2="128.542" gradientUnits="userSpaceOnUse">
<stop stop-color="#C09440"/>
<stop offset="0.5" stop-color="#F5E283"/>
<stop offset="0.89" stop-color="#D3B058"/>
</linearGradient>
<linearGradient id="paint77_linear_275_1545" x1="90.8584" y1="207.801" x2="230.151" y2="207.801" gradientUnits="userSpaceOnUse">
<stop stop-color="#C09440"/>
<stop offset="0.5" stop-color="#F5E283"/>
<stop offset="0.89" stop-color="#D3B058"/>
</linearGradient>
<linearGradient id="paint78_linear_275_1545" x1="42.5103" y1="207.801" x2="278.49" y2="207.801" gradientUnits="userSpaceOnUse">
<stop stop-color="#C09440"/>
<stop offset="0.5" stop-color="#F5E283"/>
<stop offset="0.89" stop-color="#D3B058"/>
</linearGradient>
<linearGradient id="paint79_linear_275_1545" x1="79.4878" y1="207.801" x2="241.512" y2="207.801" gradientUnits="userSpaceOnUse">
<stop stop-color="#C09440"/>
<stop offset="0.5" stop-color="#F5E283"/>
<stop offset="0.89" stop-color="#D3B058"/>
</linearGradient>
<linearGradient id="paint80_linear_275_1545" x1="28.904" y1="207.398" x2="292.096" y2="207.398" gradientUnits="userSpaceOnUse">
<stop stop-color="#C09440"/>
<stop offset="0.5" stop-color="#F5E283"/>
<stop offset="0.89" stop-color="#D3B058"/>
</linearGradient>
<linearGradient id="paint81_linear_275_1545" x1="0" y1="207.398" x2="321" y2="207.398" gradientUnits="userSpaceOnUse">
<stop stop-color="#C09440"/>
<stop offset="0.5" stop-color="#F5E283"/>
<stop offset="0.89" stop-color="#D3B058"/>
</linearGradient>
<clipPath id="clip0_275_1545">
<rect width="321" height="256" fill="white"/>
</clipPath>
</defs>
</svg>
