<svg width="334" height="236" viewBox="0 0 334 236" fill="none" xmlns="http://www.w3.org/2000/svg">
<g opacity="0.6" clip-path="url(#clip0_275_20630)">
<path d="M252.593 183.36C193.881 183.36 146.109 168.914 146.109 151.16C146.109 133.405 193.881 118.959 252.593 118.959C311.305 118.959 359.076 133.405 359.076 151.16C359.076 168.914 311.305 183.36 252.593 183.36ZM252.593 119.742C194.312 119.742 146.908 133.837 146.908 151.16C146.908 168.482 194.328 182.577 252.593 182.577C310.858 182.577 358.278 168.482 358.278 151.16C358.278 133.837 310.858 119.742 252.593 119.742Z" fill="url(#paint0_linear_275_20630)"/>
<path d="M262 236C117.536 236 0 200.443 0 156.753C0 113.062 117.536 77.5054 262 77.5054C406.464 77.5054 524 113.062 524 156.753C524 200.443 406.464 236 262 236ZM262 79.471C118.606 79.455 1.94855 114.133 1.94855 156.753C1.94855 199.373 118.606 234.034 261.984 234.034C405.362 234.034 522.036 199.357 522.036 156.753C522.036 114.149 405.378 79.471 261.984 79.471H262Z" fill="url(#paint1_linear_275_20630)"/>
<path d="M262 207.379C169.412 207.379 94.0735 184.671 94.0735 156.753C94.0735 128.835 169.412 106.111 262 106.111C354.588 106.111 429.927 128.819 429.927 156.753C429.927 184.687 354.588 207.379 262 207.379ZM262 106.91C169.859 106.91 94.888 129.266 94.888 156.737C94.888 184.207 169.859 206.564 262 206.564C354.141 206.564 429.128 184.207 429.128 156.737C429.128 129.266 354.157 106.91 262 106.91Z" fill="url(#paint2_linear_275_20630)"/>
<path d="M262 213.611C158.008 213.611 73.3901 188.09 73.3901 156.737C73.3901 125.383 157.992 99.8621 262 99.8621C366.008 99.8621 450.61 125.383 450.61 156.737C450.61 188.09 366.008 213.611 262 213.611ZM262 100.773C158.503 100.773 74.3005 125.878 74.3005 156.737C74.3005 187.595 158.503 212.7 262 212.7C365.497 212.7 449.7 187.595 449.7 156.737C449.7 125.878 365.497 100.773 262 100.773Z" fill="url(#paint3_linear_275_20630)"/>
<path d="M411.687 72.4875C411.687 72.4875 329.928 65.3443 299.757 122.554C298.783 124.424 297.473 127.828 297.457 131.216C297.409 139.334 303.383 154.883 323.092 154.803C325.04 154.803 330.998 154.26 333.569 153.78C340.613 152.47 404.196 131.136 411.687 72.4875Z" fill="#1C3232"/>
<path d="M411.687 72.4875L302.616 145.774C302.616 145.774 368.755 123.785 411.687 72.4875Z" fill="#1C3232"/>
<path d="M302.616 146.03C302.504 146.03 302.409 145.982 302.361 145.902C302.281 145.79 302.313 145.662 302.441 145.582L411.511 72.2958C411.623 72.2159 411.783 72.2159 411.895 72.3118C412.007 72.3917 412.007 72.5355 411.927 72.6314C369.426 123.401 303.383 145.79 302.712 146.014C302.68 146.014 302.632 146.03 302.6 146.03H302.616ZM410.218 73.7979L304.469 144.847C315.681 140.74 371.965 118.527 410.218 73.7979Z" fill="url(#paint4_linear_275_20630)"/>
<path d="M303.542 147.148C303.383 147.148 303.255 147.037 303.239 146.893C303.239 146.765 303.367 146.653 303.542 146.637C339.591 146.413 366.998 126.23 383.641 109.355C401.689 91.0409 411.32 72.5675 411.415 72.3757C411.479 72.2478 411.655 72.1999 411.799 72.2478C411.942 72.3118 412.022 72.4556 411.958 72.5834C411.863 72.7752 402.2 91.3126 384.104 109.674C367.381 126.645 339.83 146.909 303.542 147.148Z" fill="url(#paint5_linear_275_20630)"/>
<path d="M317.678 149.482C313.445 149.482 309.133 149.194 304.757 148.619C304.597 148.603 304.485 148.475 304.517 148.331C304.533 148.203 304.661 148.123 304.804 148.123C304.804 148.123 304.836 148.123 304.852 148.123C345.644 153.429 372.413 132.574 387.714 114.149C404.308 94.1571 411.336 72.6314 411.416 72.4236C411.448 72.2958 411.623 72.2159 411.783 72.2478C411.943 72.2798 412.039 72.4236 411.991 72.5515C411.927 72.7592 404.867 94.3808 388.209 114.436C378.418 126.23 367.27 135.195 355.083 141.076C343.52 146.653 330.982 149.466 317.694 149.466L317.678 149.482Z" fill="url(#paint6_linear_275_20630)"/>
<path d="M301.354 144.576C301.354 144.576 301.306 144.576 301.274 144.576C301.115 144.544 301.019 144.4 301.067 144.272C309.66 115.012 339.271 96.9856 362.606 87.0138C387.857 76.227 411.399 72.2798 411.639 72.2319C411.639 72.2319 411.671 72.2319 411.687 72.2319C411.831 72.2319 411.958 72.3118 411.974 72.4396C412.006 72.5674 411.895 72.6953 411.735 72.7272C411.495 72.7592 388.033 76.6904 362.845 87.4613C339.639 97.3852 310.155 115.315 301.626 144.384C301.594 144.496 301.466 144.576 301.338 144.576H301.354Z" fill="url(#paint7_linear_275_20630)"/>
<path d="M302.616 146.03C302.616 146.03 302.52 146.03 302.473 145.998C302.329 145.934 302.281 145.774 302.361 145.662C330.024 103.793 410.761 72.5834 411.575 72.2638C411.735 72.2319 411.895 72.2638 411.959 72.3917C412.023 72.5195 411.959 72.6633 411.799 72.7273C410.984 73.0309 330.423 104.177 302.856 145.902C302.808 145.982 302.696 146.03 302.6 146.03H302.616Z" fill="url(#paint8_linear_275_20630)"/>
<path d="M300.22 142.274C300.22 142.274 300.188 142.274 300.156 142.274C299.997 142.242 299.885 142.115 299.933 141.971C303.702 126.134 311.928 112.599 324.386 101.764C334.336 93.1024 347.001 86.1189 362.031 81.0531C387.602 72.4076 411.463 72.2319 411.703 72.2319C411.863 72.2319 412.006 72.3437 412.006 72.4875C412.006 72.6314 411.879 72.7432 411.703 72.7432C411.463 72.7432 387.697 72.919 362.239 81.5325C338.776 89.4748 309.005 106.43 300.524 142.083C300.492 142.194 300.364 142.29 300.236 142.29L300.22 142.274Z" fill="url(#paint9_linear_275_20630)"/>
<path d="M322.916 155.298C315.857 155.298 309.963 153.349 305.411 149.482C299.054 144.096 296.834 136.282 296.866 131.216C296.898 127.94 298.112 124.488 299.23 122.347C329.225 65.4561 410.952 71.9122 411.767 71.9762L412.358 72.0241L412.294 72.5355C408.349 103.426 388.672 123.561 372.86 135.019C355.882 147.308 338.233 153.429 333.713 154.276C331.158 154.755 325.2 155.298 323.108 155.298H322.932H322.916ZM403.541 72.7432C382.187 72.7432 324.37 77.1379 300.316 122.762C299.23 124.808 298.08 128.1 298.048 131.232C298.016 136.106 300.156 143.617 306.258 148.778C310.586 152.438 316.192 154.308 322.932 154.308H323.108C325.12 154.308 331.014 153.764 333.473 153.301C336.205 152.79 353.901 147.436 372.093 134.268C387.65 123.002 406.991 103.234 411.064 72.951C409.946 72.8871 407.327 72.7432 403.557 72.7432H403.541Z" fill="url(#paint10_linear_275_20630)"/>
<path d="M374.185 38.1295C374.185 38.1295 284.297 54.3177 274.634 124.025C274.314 126.294 274.266 130.321 275.576 133.917C278.706 142.578 291.18 157.392 312.135 151.575C314.212 151 320.345 148.699 322.9 147.436C329.88 144 389.231 102.771 374.169 38.1295H374.185Z" fill="#1C3232"/>
<path d="M374.186 38.1295L286.788 147.916C286.788 147.916 348.599 105.248 374.186 38.1295Z" fill="#1C3232"/>
<path d="M286.788 148.187C286.788 148.187 286.629 148.171 286.565 148.107C286.453 148.011 286.421 147.868 286.517 147.74L373.914 37.9697C373.994 37.8578 374.185 37.8258 374.329 37.8738C374.473 37.9377 374.553 38.0815 374.489 38.2094C349.158 104.64 287.619 147.708 286.996 148.139C286.932 148.171 286.852 148.203 286.788 148.203V148.187ZM373.131 39.9512L288.433 146.365C298.783 138.711 349.972 98.6796 373.131 39.9512Z" fill="url(#paint11_linear_275_20630)"/>
<path d="M288.226 149.13C288.082 149.13 287.954 149.05 287.922 148.938C287.858 148.794 287.954 148.635 288.13 148.587C326.43 137.848 347.704 108.396 358.805 85.5756C370.831 60.8218 373.834 38.3212 373.866 38.0975C373.882 37.9537 374.026 37.8418 374.201 37.8418H374.233C374.425 37.8578 374.553 38.0016 374.537 38.1455C374.505 38.3692 371.502 60.9496 359.428 85.7673C348.279 108.699 326.893 138.295 288.353 149.098C288.321 149.098 288.274 149.114 288.242 149.114L288.226 149.13Z" fill="url(#paint12_linear_275_20630)"/>
<path d="M290.142 150.329C289.982 150.329 289.839 150.233 289.823 150.089C289.791 149.945 289.919 149.785 290.094 149.769C335.598 143.569 355.946 113.557 365.018 89.4748C374.84 63.3467 373.882 38.3852 373.866 38.1295C373.866 37.9697 374.026 37.8258 374.201 37.8418C374.377 37.8418 374.521 37.9537 374.537 38.1135C374.537 38.3692 375.511 63.4266 365.656 89.6506C359.859 105.056 351.506 117.84 340.836 127.652C327.484 139.925 310.458 147.564 290.206 150.313C290.19 150.313 290.174 150.313 290.158 150.313L290.142 150.329Z" fill="url(#paint13_linear_275_20630)"/>
<path d="M284.872 147.021C284.696 147.021 284.552 146.909 284.536 146.765C282.204 113.11 306.673 85.2879 327.596 67.8852C350.26 49.0441 373.77 38.0016 374.01 37.8898C374.169 37.8099 374.377 37.8578 374.457 38.0016C374.537 38.1295 374.489 38.3053 374.329 38.3852C374.09 38.497 350.643 49.5076 328.043 68.3007C307.216 85.6235 282.875 113.302 285.191 146.749C285.191 146.909 285.063 147.037 284.887 147.053H284.872V147.021Z" fill="url(#paint14_linear_275_20630)"/>
<path d="M286.788 148.187C286.788 148.187 286.74 148.187 286.724 148.187C286.549 148.155 286.437 148.011 286.469 147.852C299.486 95.1958 373.211 38.481 373.962 37.9057C374.09 37.7939 374.297 37.8099 374.425 37.9217C374.553 38.0336 374.537 38.2094 374.393 38.3212C373.658 38.8806 300.077 95.4995 287.108 147.963C287.076 148.091 286.932 148.187 286.788 148.187Z" fill="url(#paint15_linear_275_20630)"/>
<path d="M282.779 144.895C282.619 144.895 282.476 144.783 282.444 144.64C280.24 126.661 283.69 109.866 292.698 94.7164C299.901 82.5872 310.65 71.4808 324.657 61.7007C348.487 45.049 373.834 37.9217 374.089 37.8578C374.265 37.7939 374.457 37.8898 374.505 38.0336C374.569 38.1774 374.473 38.3372 374.297 38.3852C374.042 38.4651 348.806 45.5604 325.072 62.1482C303.191 77.4415 278.147 104.161 283.131 144.592C283.131 144.735 283.019 144.879 282.827 144.895H282.795H282.779Z" fill="url(#paint16_linear_275_20630)"/>
<path d="M302.872 153.461C298.767 153.461 294.87 152.646 291.18 151.032C282.316 147.148 276.886 139.478 274.937 134.076C273.675 130.577 273.612 126.55 273.963 123.945C283.578 54.6373 373.131 37.7459 374.026 37.5702L374.681 37.4583L374.808 38.0176C382.746 72.0721 369.697 99.2389 357.351 116.034C344.111 134.06 327.708 145.71 323.22 147.915C320.696 149.162 314.563 151.479 312.327 152.102C309.069 153.013 305.906 153.461 302.856 153.461H302.872ZM373.674 38.8007C365.513 40.4626 284.361 58.7123 275.289 124.073C274.937 126.566 275.017 130.417 276.215 133.741C278.1 138.918 283.29 146.301 291.803 150.025C297.921 152.726 304.693 153.045 311.944 151.032C313.876 150.488 319.993 148.235 322.581 146.957C325.28 145.614 342.05 134.764 356.249 115.443C368.388 98.9193 381.229 72.2319 373.658 38.8007H373.674Z" fill="url(#paint17_linear_275_20630)"/>
<path d="M316.192 7.38299C316.192 7.38299 229.578 52.9913 249.606 128.675C250.261 131.136 251.954 135.339 254.861 138.679C261.872 146.701 281.262 158.143 300.572 145.375C302.488 144.112 307.887 139.765 309.995 137.624C315.777 131.807 359.779 69.8987 316.176 7.38299H316.192Z" fill="#1C3232"/>
<path d="M316.192 7.38299L272.589 149.673C272.589 149.673 318.524 85.4637 316.192 7.38299Z" fill="#1C3232"/>
<path d="M272.605 149.977C272.605 149.977 272.509 149.977 272.462 149.961C272.286 149.897 272.206 149.753 272.254 149.593L315.841 7.30309C315.889 7.15926 316.08 7.07936 316.224 7.07936C316.416 7.09534 316.543 7.22319 316.543 7.38299C318.859 84.6647 273.356 149.194 272.893 149.833C272.829 149.929 272.701 149.977 272.589 149.977H272.605ZM315.889 9.63624L273.643 147.532C281.134 136.234 317.134 78.1926 315.889 9.63624Z" fill="url(#paint18_linear_275_20630)"/>
<path d="M274.506 150.488C274.394 150.488 274.282 150.456 274.218 150.376C274.091 150.249 274.123 150.041 274.282 149.945C309.548 126.502 318.971 89.0274 320.664 61.7007C322.501 32.0729 315.905 7.7026 315.841 7.46289C315.793 7.28711 315.921 7.1273 316.112 7.07936C316.352 7.0474 316.512 7.14328 316.56 7.30309C316.623 7.5428 323.236 32.0089 321.399 61.7167C319.69 89.1552 310.219 126.821 274.73 150.408C274.666 150.456 274.586 150.472 274.506 150.472V150.488Z" fill="url(#paint19_linear_275_20630)"/>
<path d="M277.014 151.128C276.886 151.128 276.758 151.064 276.694 150.968C276.598 150.824 276.662 150.632 276.838 150.552C321.559 129.522 329.784 91.776 328.826 63.7942C327.788 33.4472 315.985 7.75054 315.873 7.49485C315.793 7.33505 315.873 7.15926 316.08 7.09534C316.24 7.01544 316.48 7.09534 316.544 7.27113C316.655 7.52682 328.506 33.3193 329.561 63.7782C330.183 81.6763 327.005 97.6728 320.121 111.304C311.528 128.355 297.074 141.747 277.189 151.096C277.125 151.128 277.077 151.128 277.014 151.128Z" fill="url(#paint20_linear_275_20630)"/>
<path d="M270.098 149.37C269.954 149.37 269.826 149.29 269.762 149.178C252.8 114.868 266.265 78.0807 280.543 53.263C296.004 26.3838 315.729 7.36701 315.921 7.17524C316.064 7.0474 316.272 7.03142 316.432 7.15926C316.575 7.27113 316.591 7.46289 316.464 7.59074C316.272 7.7825 296.611 26.7514 281.182 53.5507C266.967 78.2565 253.567 114.868 270.433 148.954C270.513 149.114 270.433 149.29 270.242 149.354C270.194 149.37 270.146 149.37 270.098 149.37Z" fill="url(#paint21_linear_275_20630)"/>
<path d="M272.605 149.977C272.43 149.977 272.27 149.865 272.238 149.705C263.07 90.7213 315.346 8.05417 315.873 7.23917C315.969 7.07936 316.192 7.0474 316.368 7.11132C316.544 7.19122 316.607 7.38299 316.528 7.52682C316 8.3578 263.821 90.8331 272.973 149.625C273.005 149.801 272.861 149.945 272.653 149.977H272.605Z" fill="url(#paint22_linear_275_20630)"/>
<path d="M266.999 147.836C266.856 147.836 266.728 147.772 266.664 147.66C256.602 129.65 252.928 111.048 255.771 92.3833C258.039 77.4575 264.444 62.4358 274.793 47.7817C292.41 22.8202 315.729 7.28711 315.969 7.14328C316.128 7.0474 316.352 7.06338 316.48 7.20721C316.591 7.33505 316.575 7.5428 316.416 7.63868C316.176 7.7825 292.953 23.2676 275.4 48.1333C259.221 71.0493 244.687 106.894 267.319 147.404C267.399 147.564 267.319 147.74 267.143 147.82C267.095 147.836 267.031 147.852 266.983 147.852L266.999 147.836Z" fill="url(#paint23_linear_275_20630)"/>
<path d="M282.284 151.719C281.006 151.719 279.697 151.639 278.403 151.495C267.542 150.249 258.63 144.016 254.302 139.046C251.475 135.818 249.67 131.631 248.919 128.803C228.987 53.5666 314.946 7.31907 315.809 6.85563L316.448 6.52004L316.831 7.06338C339.798 39.9832 337.946 72.4556 332.339 93.8854C326.334 116.897 314.275 134.284 310.57 138.008C308.478 140.117 303.111 144.48 301.035 145.838C295.141 149.737 288.849 151.703 282.284 151.703V151.719ZM315.953 8.24594C308.158 12.6086 231.542 57.5618 250.341 128.531C251.059 131.232 252.784 135.227 255.484 138.311C259.636 143.073 268.197 149.066 278.611 150.265C286.149 151.16 293.432 149.322 300.156 144.879C301.945 143.697 307.328 139.382 309.468 137.225C311.72 134.971 324.481 118.304 330.934 93.6298C336.444 72.5355 338.297 40.6384 315.984 8.24594H315.953Z" fill="url(#paint24_linear_275_20630)"/>
<path d="M95.5269 72.4875C95.5269 72.4875 177.286 65.3443 207.457 122.554C208.447 124.424 209.741 127.828 209.757 131.216C209.804 139.334 203.831 154.883 184.122 154.803C182.173 154.803 176.216 154.26 173.645 153.78C166.601 152.47 103.018 131.136 95.5269 72.4875Z" fill="#1C3232"/>
<path d="M95.5269 72.4875L204.598 145.774C204.598 145.774 138.459 123.785 95.5269 72.4875Z" fill="#1C3232"/>
<path d="M204.598 146.03C204.598 146.03 204.518 146.03 204.486 146.014C203.831 145.79 137.772 123.401 95.2712 72.6314C95.1914 72.5355 95.1914 72.3917 95.3032 72.3118C95.415 72.2159 95.5747 72.2159 95.6865 72.2958L204.757 145.582C204.869 145.662 204.901 145.79 204.837 145.902C204.789 145.982 204.677 146.03 204.582 146.03H204.598ZM96.9962 73.7979C135.232 118.527 191.533 140.74 202.745 144.847L96.9962 73.7979Z" fill="url(#paint25_linear_275_20630)"/>
<path d="M203.671 147.148C167.384 146.909 139.848 126.645 123.126 109.674C105.014 91.3126 95.3671 72.7592 95.2713 72.5834C95.2074 72.4556 95.2713 72.3118 95.431 72.2478C95.5907 72.2159 95.7505 72.2478 95.8143 72.3757C95.9102 72.5675 105.541 91.0569 123.605 109.371C140.248 126.246 167.639 146.413 203.687 146.653C203.847 146.653 203.991 146.765 203.991 146.909C203.991 147.053 203.863 147.164 203.687 147.164L203.671 147.148Z" fill="url(#paint26_linear_275_20630)"/>
<path d="M189.536 149.482C176.248 149.482 163.71 146.669 152.147 141.092C139.96 135.211 128.812 126.246 119.021 114.452C102.363 94.3808 95.3033 72.7752 95.2394 72.5674C95.1915 72.4396 95.2873 72.2958 95.4471 72.2638C95.6068 72.2478 95.7665 72.2958 95.8144 72.4396C95.8943 72.6633 102.922 94.1891 119.516 114.181C134.801 132.606 161.602 153.445 202.362 148.139C202.378 148.139 202.394 148.139 202.41 148.139C202.553 148.139 202.681 148.235 202.697 148.347C202.729 148.491 202.617 148.603 202.458 148.635C198.081 149.21 193.769 149.498 189.536 149.498V149.482Z" fill="url(#paint27_linear_275_20630)"/>
<path d="M205.875 144.576C205.748 144.576 205.62 144.496 205.588 144.384C197.043 115.315 167.575 97.3852 144.352 87.4453C119.165 76.6904 95.7185 72.7592 95.4789 72.7272C95.3192 72.6953 95.2074 72.5674 95.2394 72.4396C95.2713 72.3118 95.3991 72.2319 95.5268 72.2319C95.5428 72.2319 95.5588 72.2319 95.5748 72.2319C95.8143 72.2638 119.341 76.211 144.608 87.0138C167.943 96.9856 197.554 115.012 206.147 144.272C206.195 144.4 206.099 144.544 205.939 144.576C205.907 144.576 205.891 144.576 205.859 144.576H205.875Z" fill="url(#paint28_linear_275_20630)"/>
<path d="M204.598 146.03C204.486 146.03 204.39 145.982 204.342 145.902C176.759 104.177 96.2136 73.0309 95.399 72.7272C95.2393 72.6633 95.1754 72.5195 95.2393 72.3917C95.3192 72.2638 95.4789 72.2159 95.6226 72.2638C96.4372 72.5834 177.174 103.793 204.837 145.662C204.917 145.79 204.869 145.934 204.725 145.998C204.678 146.014 204.63 146.03 204.582 146.03H204.598Z" fill="url(#paint29_linear_275_20630)"/>
<path d="M206.993 142.274C206.85 142.274 206.722 142.195 206.706 142.067C198.225 106.414 168.47 89.4589 144.991 81.5166C119.532 72.9031 95.7664 72.7273 95.5269 72.7273C95.3671 72.7273 95.2234 72.6154 95.2234 72.4716C95.2234 72.3278 95.3512 72.2159 95.5269 72.2159C95.7664 72.2159 119.628 72.3917 145.199 81.0372C160.228 86.119 172.894 93.0865 182.844 101.748C195.302 112.583 203.528 126.102 207.297 141.955C207.329 142.083 207.217 142.227 207.057 142.258C207.041 142.258 207.025 142.258 206.993 142.258V142.274Z" fill="url(#paint30_linear_275_20630)"/>
<path d="M184.298 155.299H184.122C182.014 155.299 176.072 154.755 173.517 154.276C168.997 153.445 151.348 147.324 134.37 135.019C118.558 123.577 98.881 103.442 94.936 72.5355L94.8721 72.0241L95.463 71.9762C96.2616 71.9123 177.989 65.4401 208 122.347C209.118 124.488 210.332 127.94 210.348 131.216C210.38 136.266 208.159 144.096 201.803 149.466C197.235 153.333 191.357 155.283 184.282 155.283L184.298 155.299ZM96.1818 72.935C100.239 103.218 119.58 122.986 135.137 134.252C153.329 147.436 171.041 152.774 173.772 153.285C176.392 153.78 182.317 154.276 184.122 154.292H184.298C191.038 154.292 196.644 152.422 200.972 148.762C207.073 143.601 209.198 136.09 209.166 131.216C209.15 128.1 207.984 124.808 206.914 122.762C178.612 69.0997 103.657 72.4876 96.1818 72.951V72.935Z" fill="url(#paint31_linear_275_20630)"/>
<path d="M133.029 38.1295C133.029 38.1295 222.917 54.3177 232.58 124.025C232.9 126.294 232.948 130.321 231.638 133.917C228.508 142.578 216.034 157.392 195.079 151.575C193.002 151 186.869 148.699 184.314 147.436C177.334 144 117.983 102.771 133.045 38.1295H133.029Z" fill="#1C3232"/>
<path d="M133.029 38.1295L220.426 147.916C220.426 147.916 158.615 105.248 133.029 38.1295Z" fill="#1C3232"/>
<path d="M220.426 148.187C220.426 148.187 220.282 148.171 220.218 148.123C219.595 147.692 158.04 104.624 132.725 38.1934C132.677 38.0655 132.741 37.9217 132.885 37.8578C133.045 37.8099 133.22 37.8418 133.3 37.9537L220.697 147.74C220.793 147.852 220.777 148.011 220.649 148.107C220.586 148.155 220.506 148.187 220.426 148.187ZM134.083 39.9512C157.242 98.6956 208.447 138.711 218.797 146.365L134.083 39.9512Z" fill="url(#paint32_linear_275_20630)"/>
<path d="M218.988 149.13C218.988 149.13 218.925 149.13 218.877 149.114C180.337 138.311 158.951 108.715 147.802 85.7833C135.728 60.9656 132.725 38.4011 132.693 38.1614C132.677 38.0176 132.805 37.8738 132.997 37.8578H133.029C133.188 37.8578 133.332 37.9697 133.364 38.1135C133.396 38.3372 136.383 60.8378 148.425 85.5916C159.526 108.412 180.784 137.864 219.1 148.603C219.276 148.651 219.372 148.81 219.308 148.954C219.26 149.066 219.132 149.146 219.004 149.146L218.988 149.13Z" fill="url(#paint33_linear_275_20630)"/>
<path d="M217.072 150.329C217.072 150.329 217.04 150.329 217.024 150.329C196.788 147.564 179.746 139.941 166.394 127.668C155.725 117.856 147.371 105.072 141.574 89.6666C131.703 63.4426 132.677 38.3852 132.693 38.1295C132.693 37.9697 132.869 37.8738 133.045 37.8578C133.22 37.8578 133.364 37.9856 133.364 38.1455C133.364 38.3852 132.39 63.3787 142.229 89.5068C151.284 113.589 171.632 143.585 217.136 149.785C217.312 149.801 217.439 149.961 217.407 150.105C217.375 150.233 217.248 150.345 217.088 150.345L217.072 150.329Z" fill="url(#paint34_linear_275_20630)"/>
<path d="M222.343 147.021H222.327C222.151 147.021 222.007 146.877 222.023 146.717C224.339 113.27 199.998 85.5916 179.155 68.2687C156.555 49.4756 133.109 38.481 132.885 38.3692C132.725 38.2893 132.661 38.1295 132.757 37.9856C132.837 37.8418 133.029 37.7939 133.204 37.8738C133.444 37.9856 156.954 49.0282 179.618 67.8692C200.557 85.2719 225.01 113.094 222.678 146.749C222.678 146.893 222.518 147.005 222.343 147.005V147.021Z" fill="url(#paint35_linear_275_20630)"/>
<path d="M220.426 148.187C220.266 148.187 220.138 148.091 220.106 147.963C207.121 95.4995 133.556 38.8965 132.821 38.3212C132.677 38.2254 132.661 38.0336 132.789 37.9217C132.901 37.8099 133.108 37.7939 133.252 37.9057C134.003 38.4651 207.728 95.1958 220.761 147.852C220.793 147.995 220.681 148.155 220.506 148.187C220.49 148.187 220.458 148.187 220.442 148.187H220.426Z" fill="url(#paint36_linear_275_20630)"/>
<path d="M224.435 144.895H224.403C224.211 144.879 224.099 144.735 224.099 144.592C229.067 104.145 204.023 77.4255 182.142 62.1322C158.408 45.5444 133.172 38.4651 132.933 38.3852C132.757 38.3372 132.661 38.1774 132.725 38.0336C132.773 37.8898 132.981 37.8099 133.14 37.8578C133.396 37.9217 158.743 45.049 182.573 61.7007C196.58 71.4808 207.329 82.5872 214.532 94.7164C223.54 109.882 226.99 126.677 224.786 144.64C224.77 144.783 224.626 144.895 224.451 144.895H224.435Z" fill="url(#paint37_linear_275_20630)"/>
<path d="M204.326 153.461C201.276 153.461 198.097 153.013 194.855 152.102C192.619 151.479 186.502 149.178 183.962 147.915C179.474 145.71 163.071 134.044 149.831 116.034C137.485 99.2389 124.436 72.0721 132.374 38.0176L132.502 37.4583L133.156 37.5702C134.051 37.73 223.62 54.6373 233.219 123.945C233.587 126.534 233.523 130.561 232.245 134.076C230.312 139.462 224.882 147.132 216.018 151.032C212.328 152.646 208.415 153.461 204.31 153.461H204.326ZM133.54 38.8007C125.969 72.2319 138.81 98.9033 150.965 115.443C165.164 134.764 181.918 145.614 184.633 146.957C187.221 148.235 193.338 150.504 195.27 151.032C202.553 153.061 209.31 152.71 215.427 150.025C223.94 146.285 229.13 138.918 230.999 133.741C232.197 130.385 232.261 126.55 231.925 124.073C222.854 58.6804 141.717 40.4626 133.54 38.8007Z" fill="url(#paint38_linear_275_20630)"/>
<path d="M191.022 7.38299C191.022 7.38299 277.636 52.9913 257.608 128.675C256.953 131.136 255.26 135.339 252.353 138.679C245.341 146.701 225.952 158.143 206.642 145.375C204.725 144.112 199.327 139.765 197.219 137.624C191.437 131.807 147.435 69.8987 191.038 7.38299H191.022Z" fill="#1C3232"/>
<path d="M191.022 7.38299L234.624 149.673C234.624 149.673 188.674 85.4637 191.022 7.38299Z" fill="#1C3232"/>
<path d="M234.608 149.977C234.481 149.977 234.369 149.929 234.305 149.833C233.842 149.194 188.338 84.6487 190.654 7.38299C190.654 7.22318 190.798 7.09534 190.974 7.07936C191.181 7.07936 191.325 7.15926 191.357 7.30309L234.96 149.593C235.008 149.737 234.912 149.897 234.752 149.961C234.704 149.977 234.656 149.977 234.608 149.977ZM191.325 9.63624C190.095 78.1926 226.096 136.234 233.57 147.532L191.325 9.63624Z" fill="url(#paint39_linear_275_20630)"/>
<path d="M232.708 150.488C232.628 150.488 232.548 150.472 232.484 150.424C197.011 126.837 187.524 89.1712 185.815 61.7327C183.962 32.0249 190.574 7.55878 190.654 7.31907C190.686 7.15926 190.862 7.03142 191.102 7.09534C191.293 7.1273 191.421 7.30309 191.373 7.47887C191.309 7.71858 184.713 32.1048 186.55 61.7327C188.259 89.0433 197.682 126.518 232.931 149.961C233.091 150.057 233.123 150.265 232.995 150.392C232.931 150.472 232.82 150.504 232.708 150.504V150.488Z" fill="url(#paint40_linear_275_20630)"/>
<path d="M230.216 151.128C230.216 151.128 230.104 151.128 230.041 151.096C210.156 141.747 195.717 128.355 187.109 111.304C180.241 97.6728 177.062 81.6763 177.685 63.7782C178.739 33.3193 190.574 7.52681 190.686 7.27113C190.766 7.11132 190.99 7.03142 191.149 7.09534C191.341 7.15926 191.437 7.33505 191.357 7.49485C191.245 7.75054 179.442 33.4632 178.404 63.8101C177.446 91.776 185.687 129.522 230.392 150.552C230.568 150.632 230.631 150.824 230.536 150.968C230.472 151.064 230.344 151.128 230.216 151.128Z" fill="url(#paint41_linear_275_20630)"/>
<path d="M237.116 149.37C237.116 149.37 237.02 149.37 236.972 149.354C236.781 149.29 236.701 149.114 236.781 148.954C253.647 114.868 240.246 78.2565 226.032 53.5506C210.619 26.7513 190.942 7.7825 190.75 7.59074C190.606 7.46289 190.638 7.27113 190.782 7.15926C190.942 7.0474 191.165 7.06338 191.293 7.17524C191.485 7.36701 211.226 26.3838 226.686 53.263C240.965 78.0807 254.429 114.884 237.467 149.178C237.404 149.29 237.276 149.37 237.132 149.37H237.116Z" fill="url(#paint42_linear_275_20630)"/>
<path d="M234.609 149.977H234.561C234.369 149.961 234.209 149.801 234.241 149.625C243.393 90.8331 191.213 8.3578 190.686 7.52681C190.591 7.38299 190.654 7.19122 190.846 7.11132C191.006 7.0474 191.245 7.07936 191.341 7.23917C191.868 8.07015 244.16 90.7213 234.976 149.705C234.944 149.865 234.784 149.977 234.609 149.977Z" fill="url(#paint43_linear_275_20630)"/>
<path d="M240.215 147.836C240.215 147.836 240.103 147.836 240.055 147.804C239.879 147.724 239.799 147.548 239.879 147.388C262.527 106.862 247.977 71.0333 231.798 48.1173C214.245 23.2516 191.022 7.7825 190.782 7.6227C190.622 7.51083 190.59 7.31907 190.718 7.19122C190.846 7.06338 191.086 7.0474 191.229 7.1273C191.469 7.28711 214.788 22.8202 232.404 47.7657C242.77 62.4358 249.159 77.4415 251.427 92.3673C254.254 111.033 250.596 129.634 240.534 147.644C240.47 147.756 240.342 147.82 240.199 147.82L240.215 147.836Z" fill="url(#paint44_linear_275_20630)"/>
<path d="M224.93 151.719C218.365 151.719 212.072 149.753 206.179 145.854C204.31 144.608 198.88 140.277 196.644 138.024C192.922 134.3 180.896 116.913 174.874 93.9014C169.268 72.4556 167.416 39.9992 190.383 7.07936L190.766 6.53602L191.405 6.87161C192.284 7.33505 278.227 53.5826 258.311 128.819C257.576 131.631 255.771 135.802 252.928 139.062C248.6 144.016 239.688 150.249 228.827 151.511C227.517 151.655 226.223 151.735 224.946 151.735L224.93 151.719ZM191.261 8.24594C168.949 40.6384 170.802 72.5195 176.312 93.6298C182.764 118.304 195.526 134.971 197.762 137.225C199.918 139.382 205.3 143.697 207.089 144.879C213.813 149.338 221.096 151.176 228.635 150.265C239.049 149.066 247.61 143.073 251.762 138.311C254.477 135.211 256.186 131.232 256.889 128.531C275.672 57.5618 199.056 12.6086 191.261 8.24594Z" fill="url(#paint45_linear_275_20630)"/>
<path d="M249.287 0.910888C249.287 0.910888 179.698 67.1501 224.738 136.346C226.208 138.599 229.274 142.29 233.251 144.847C242.818 150.968 265.658 157.36 280.288 140.037C281.741 138.327 285.574 132.718 286.932 130.097C290.653 122.954 312.998 51.3294 249.287 0.894908V0.910888Z" fill="#1C3232"/>
<path d="M249.287 0.910889L254.302 151.223C254.302 151.223 277.78 76.8662 249.287 0.910889Z" fill="#1C3232"/>
<path d="M254.302 151.527H254.254C254.078 151.511 253.934 151.383 253.934 151.223L248.903 0.910889C248.903 0.751084 249.031 0.607259 249.207 0.591279C249.382 0.575298 249.558 0.655201 249.622 0.815006C277.828 75.9873 254.877 150.552 254.637 151.303C254.605 151.431 254.446 151.527 254.286 151.527H254.302ZM249.734 3.18012L254.589 148.842C258.135 135.914 273.947 70.0585 249.734 3.18012Z" fill="url(#paint46_linear_275_20630)"/>
<path d="M256.33 151.543C256.33 151.543 256.17 151.527 256.107 151.495C255.947 151.399 255.899 151.191 256.027 151.048C282.731 119.31 279.377 80.2221 271.871 53.0233C263.741 23.5393 249.095 1.27844 248.951 1.05471C248.855 0.894908 248.919 0.703142 249.095 0.62324C249.287 0.527357 249.51 0.591279 249.606 0.735103C249.75 0.95883 264.444 23.2996 272.605 52.8795C280.144 80.2061 283.498 119.486 256.634 151.415C256.554 151.495 256.442 151.543 256.33 151.543Z" fill="url(#paint47_linear_275_20630)"/>
<path d="M258.997 151.543C258.902 151.543 258.806 151.511 258.726 151.447C258.582 151.319 258.582 151.128 258.726 151C295.493 119.278 290.893 80.2221 280.559 53.0393C269.363 23.5712 249.191 1.3104 248.983 1.10265C248.855 0.95883 248.887 0.767064 249.047 0.655201C249.223 0.543337 249.43 0.575298 249.574 0.719123C249.766 0.94285 270.034 23.2836 281.294 52.8795C287.906 70.2662 290.158 86.7262 288.002 101.796C285.303 120.653 275.624 137.368 259.269 151.463C259.189 151.527 259.109 151.559 258.997 151.559V151.543Z" fill="url(#paint48_linear_275_20630)"/>
<path d="M251.65 151.543C251.539 151.543 251.427 151.511 251.363 151.431C223.221 122.027 224.067 82.6192 229.737 54.7332C235.87 24.5461 248.807 1.00677 248.951 0.767064C249.047 0.62324 249.255 0.543337 249.446 0.62324C249.638 0.703142 249.718 0.878928 249.622 1.03873C249.494 1.27844 236.589 24.7538 230.472 54.8611C224.834 82.6032 223.987 121.819 251.954 151.032C252.082 151.176 252.066 151.367 251.906 151.479C251.826 151.527 251.746 151.543 251.666 151.543H251.65Z" fill="url(#paint49_linear_275_20630)"/>
<path d="M254.302 151.527C254.158 151.527 254.03 151.463 253.95 151.335C225.169 95.8031 248.68 1.77384 248.919 0.830986C248.967 0.655201 249.175 0.527357 249.366 0.591279C249.558 0.62324 249.702 0.799025 249.654 0.974811C249.414 1.91766 225.968 95.7392 254.653 151.096C254.733 151.255 254.653 151.447 254.461 151.511C254.413 151.527 254.366 151.527 254.302 151.527Z" fill="url(#paint50_linear_275_20630)"/>
<path d="M248.089 150.824C247.977 150.824 247.881 150.792 247.817 150.712C231.909 135.563 222.087 118.24 218.589 99.2389C215.81 84.0414 217.04 67.7413 222.262 50.786C231.159 21.9412 248.791 0.926869 248.983 0.719123C249.095 0.575298 249.334 0.543337 249.51 0.63922C249.67 0.735103 249.718 0.94285 249.59 1.08667C249.414 1.29442 231.845 22.2289 222.981 50.9778C214.82 77.4735 212.583 116.21 248.376 150.313C248.52 150.44 248.504 150.632 248.344 150.76C248.28 150.824 248.184 150.84 248.105 150.84L248.089 150.824Z" fill="url(#paint51_linear_275_20630)"/>
<path d="M255.707 151.879C246.428 151.879 237.819 148.571 232.788 145.359C228.923 142.882 225.744 139.238 224.067 136.649C179.299 67.8532 248.025 1.1506 248.728 0.479415L249.239 0L249.798 0.447454C283.354 27.007 292.442 59.2877 294.135 81.6923C295.972 105.743 289.999 125.783 287.619 130.353C286.261 132.958 282.46 138.567 280.911 140.405C275.528 146.765 268.66 150.52 260.483 151.575C258.886 151.783 257.304 151.879 255.723 151.879H255.707ZM249.335 1.82178C243.153 8.02221 183.132 71.1452 225.377 136.042C226.974 138.503 230.009 141.987 233.682 144.336C239.32 147.947 249.638 151.671 260.227 150.313C268.005 149.306 274.538 145.726 279.665 139.654C281.15 137.896 284.92 132.319 286.229 129.826C287.667 127.061 294.582 107.533 292.618 81.7562C290.941 59.7031 282.061 27.9978 249.319 1.78982L249.335 1.82178Z" fill="url(#paint52_linear_275_20630)"/>
<path d="M203.528 150.057C208.495 131.663 187.572 121.931 172.814 119.199C157.928 116.45 147.195 118 134.019 125.015C123.989 130.353 113.303 137.145 101.708 133.981C104.152 144.624 123.893 150.68 132.933 153.573C145.63 157.648 158.999 161.147 172.415 161.259C183.307 161.339 200.445 159.805 203.528 150.073V150.057Z" fill="#1C3232"/>
<path d="M204.134 146.813C191.565 130.225 166.106 131.44 148.074 137.528C131.894 142.978 119.436 139.638 103.656 135.371L102.379 135.019L102.634 134.348L103.928 134.7C119.548 138.918 131.894 142.258 147.786 136.873C166.074 130.689 192.012 129.49 204.853 146.445L204.15 146.829L204.134 146.813Z" fill="url(#paint53_linear_275_20630)"/>
<path d="M143.49 147.788C138.411 147.788 133.635 147.228 129.563 146.126C118.654 143.153 105.094 137.608 102.187 134.923L102.81 134.444C105.637 137.065 119.021 142.514 129.818 145.455C138.203 147.74 149.639 147.612 160.404 145.135C163.231 144.48 165.786 143.745 168.246 143.025C173.101 141.619 177.701 140.293 183.451 139.893C191.533 139.302 197.682 142.594 203.607 145.758L204.693 146.333L204.246 146.925L203.16 146.349C197.075 143.105 191.357 140.053 183.499 140.596C177.845 140.996 173.293 142.306 168.486 143.697C166.01 144.416 163.439 145.151 160.596 145.822C154.894 147.132 148.984 147.804 143.458 147.804L143.49 147.788Z" fill="url(#paint54_linear_275_20630)"/>
<path d="M202.569 146.078C200.238 138.375 195.302 132.958 187.923 129.953C168.23 121.931 137.197 133.629 136.894 133.757C122.312 138.231 101.836 134.364 101.628 134.332L101.82 133.629C102.011 133.661 122.264 137.464 136.59 133.102C136.878 132.99 168.262 121.18 188.291 129.314C195.909 132.414 200.988 137.992 203.384 145.902L202.569 146.078Z" fill="url(#paint55_linear_275_20630)"/>
<path d="M155.932 154.42C147.722 154.42 140.2 152.374 132.294 150.217L131.431 149.977C120.97 147.116 109.71 141.939 106.244 139.478C105.094 138.663 104.2 137.688 103.337 136.745C102.922 136.298 102.507 135.834 102.059 135.387L102.698 134.923C103.161 135.371 103.577 135.834 104.008 136.298C104.838 137.209 105.701 138.151 106.787 138.918C110.125 141.284 121.481 146.493 131.703 149.29L132.565 149.53C140.407 151.671 147.882 153.7 155.964 153.7C157.146 153.7 158.344 153.668 159.542 153.573C164.445 153.189 169.332 152.086 174.06 151.016C178.356 150.041 182.812 149.018 187.3 148.555C189.808 148.299 192.331 148.027 194.839 147.772L198.624 147.372C199.119 147.324 199.662 147.292 200.237 147.276C201.467 147.228 202.745 147.18 203.655 146.813L204.007 147.452C202.937 147.868 201.579 147.931 200.269 147.979C199.726 147.995 199.199 148.027 198.72 148.075L194.935 148.475C192.427 148.731 189.904 149.002 187.396 149.258C182.972 149.721 178.548 150.728 174.283 151.687C169.524 152.774 164.605 153.892 159.621 154.276C158.392 154.372 157.162 154.42 155.948 154.42H155.932Z" fill="url(#paint56_linear_275_20630)"/>
<path d="M173.229 161.866C172.958 161.866 172.686 161.866 172.415 161.866C158.28 161.755 144.4 157.903 132.677 154.148L131.942 153.908C122.695 150.952 103.465 144.799 101.005 134.108L100.766 133.086L101.932 133.405C112.137 136.17 121.609 131.04 130.792 126.054C131.751 125.527 132.709 125.015 133.651 124.52C146.844 117.489 157.864 115.843 172.99 118.639C182.573 120.413 194.983 125.223 201.116 133.421C204.853 138.407 205.907 144.064 204.246 150.233C201.084 160.316 183.835 161.898 173.261 161.898L173.229 161.866ZM102.698 134.859C105.956 144.288 123.749 149.977 132.438 152.758L133.188 152.997C144.784 156.721 158.519 160.524 172.415 160.636C172.686 160.636 172.958 160.636 173.229 160.636C183.387 160.636 199.886 159.166 202.809 149.897C204.374 144.064 203.384 138.727 199.87 134.028C193.961 126.15 181.934 121.516 172.654 119.79C157.769 117.041 147.403 118.591 134.386 125.527C133.444 126.038 132.485 126.55 131.527 127.077C122.439 132.015 113.048 137.113 102.666 134.859H102.698Z" fill="url(#paint57_linear_275_20630)"/>
<path d="M241.237 154.643C241.077 135.611 218.285 131.727 203.336 132.974C188.243 134.236 178.308 138.535 167.495 148.762C159.27 156.545 150.789 165.894 138.746 165.894C143.953 175.514 164.621 176.153 174.124 176.569C187.46 177.16 201.292 177.016 214.261 173.596C224.786 170.816 240.901 164.823 241.237 154.627V154.643Z" fill="#1C3232"/>
<path d="M139.705 166.709V166.005H140.999C157.21 165.973 170.003 165.957 183.915 156.577C199.886 145.806 224.563 137.848 241.525 150.808L240.965 151.335C224.371 138.647 200.158 146.525 184.442 157.12C170.307 166.645 157.386 166.677 141.03 166.709H139.721H139.705Z" fill="url(#paint58_linear_275_20630)"/>
<path d="M168.853 170.272C157.529 170.272 142.995 168.482 139.481 166.661L139.912 166.053C143.314 167.827 157.641 169.569 168.853 169.569H168.901C177.59 169.569 188.594 166.453 198.305 161.211C200.861 159.837 203.128 158.447 205.317 157.12C209.613 154.483 213.67 152.007 219.116 150.105C226.783 147.42 233.555 148.97 240.135 150.456L241.333 150.728L241.125 151.415L239.911 151.144C233.171 149.609 226.815 148.171 219.436 150.76C214.101 152.63 210.076 155.091 205.812 157.696C203.608 159.038 201.34 160.428 198.768 161.819C188.914 167.124 177.765 170.288 168.917 170.288H168.869L168.853 170.272Z" fill="url(#paint59_linear_275_20630)"/>
<path d="M138.778 166.245L138.698 165.542C138.906 165.526 159.446 163.88 172.095 155.89C172.335 155.714 196.181 138.423 216.896 138.423C218.621 138.423 220.33 138.551 221.991 138.807C229.657 140.005 235.711 144 239.975 150.696L239.24 151.032C235.12 144.528 229.258 140.66 221.847 139.494C200.557 136.186 172.91 156.225 172.622 156.433C159.765 164.567 139.002 166.229 138.794 166.245H138.778Z" fill="url(#paint60_linear_275_20630)"/>
<path d="M173.485 173.5H171.744C160.883 173.5 148.633 171.455 144.624 170.001C143.298 169.505 142.18 168.818 141.094 168.131C140.567 167.795 140.04 167.46 139.481 167.156L139.928 166.565C140.503 166.884 141.046 167.22 141.589 167.556C142.628 168.211 143.714 168.882 144.959 169.345C148.809 170.752 161.155 172.797 171.744 172.797H172.638C181.934 172.781 190.766 172.797 199.742 169.601C204.358 167.939 208.782 165.59 213.047 163.321C216.928 161.243 220.937 159.102 225.138 157.472L229.21 155.89C231.398 155.043 233.571 154.196 235.727 153.349C236.19 153.157 236.717 152.997 237.26 152.822C238.426 152.454 239.64 152.07 240.438 151.479L240.997 152.007C240.087 152.678 238.793 153.093 237.548 153.493C237.02 153.668 236.509 153.812 236.062 153.988C233.906 154.819 231.734 155.682 229.546 156.529L225.457 158.111C221.32 159.725 217.327 161.85 213.462 163.912C209.166 166.197 204.71 168.578 200.03 170.256C191.182 173.42 182.557 173.5 173.453 173.5H173.485Z" fill="url(#paint61_linear_275_20630)"/>
<path d="M185.224 177.463C181.375 177.463 177.638 177.352 174.076 177.192L173.277 177.16C163.566 176.728 143.346 175.849 138.092 166.149L137.628 165.286H138.746C149.336 165.286 157.098 157.823 164.621 150.6C165.403 149.849 166.186 149.098 166.952 148.363C177.781 138.119 187.955 133.645 203.256 132.366C212.919 131.535 226.112 132.926 234.257 139.126C239.304 142.978 241.892 148.187 241.956 154.627C241.588 165.43 224.578 171.503 214.468 174.171C204.758 176.744 194.663 177.447 185.224 177.447V177.463ZM139.912 166.485C145.534 174.731 164.221 175.546 173.357 175.945L174.172 175.977C186.358 176.521 200.605 176.585 214.053 173.037C223.796 170.464 240.167 164.663 240.518 154.643C240.47 148.555 238.043 143.649 233.299 140.037C225.489 134.092 212.727 132.83 203.4 133.581C188.307 134.843 178.724 139.062 168.023 149.178C167.24 149.913 166.473 150.648 165.691 151.399C158.232 158.559 150.534 165.973 139.896 166.469L139.912 166.485Z" fill="url(#paint62_linear_275_20630)"/>
<path d="M309.117 150.057C304.149 131.663 325.072 121.931 339.83 119.199C354.716 116.45 365.449 118 378.625 125.015C388.656 130.353 399.341 137.145 410.952 133.981C408.508 144.624 388.767 150.68 379.727 153.573C367.03 157.648 353.662 161.147 340.245 161.259C329.353 161.339 312.199 159.805 309.133 150.073L309.117 150.057Z" fill="#1C3232"/>
<path d="M308.51 146.813L307.807 146.429C320.648 129.474 346.586 130.673 364.874 136.857C380.782 142.242 393.112 138.903 408.732 134.684L410.01 134.348L410.265 135.019L408.988 135.355C393.208 139.622 380.734 142.978 364.57 137.512C346.554 131.424 321.079 130.209 308.51 146.797V146.813Z" fill="url(#paint63_linear_275_20630)"/>
<path d="M369.154 147.788C363.612 147.788 357.719 147.132 352.017 145.806C349.174 145.151 346.602 144.4 344.127 143.681C339.319 142.29 334.767 140.98 329.113 140.58C321.303 140.037 315.537 143.089 309.452 146.333L308.366 146.909L307.919 146.317L309.005 145.742C314.93 142.578 321.111 139.286 329.161 139.877C334.927 140.277 339.511 141.603 344.366 143.009C346.842 143.729 349.381 144.464 352.208 145.119C362.957 147.596 374.409 147.74 382.794 145.439C393.607 142.498 406.975 137.049 409.802 134.428L410.425 134.907C407.518 137.592 393.958 143.137 383.05 146.11C378.977 147.212 374.201 147.772 369.138 147.772L369.154 147.788Z" fill="url(#paint64_linear_275_20630)"/>
<path d="M310.075 146.078L309.26 145.902C311.656 137.992 316.735 132.414 324.354 129.314C344.398 121.164 375.782 132.99 376.102 133.118C390.413 137.48 410.649 133.677 410.84 133.629L411.032 134.332C410.824 134.364 390.349 138.215 375.798 133.773C375.447 133.645 344.398 121.963 324.721 129.969C317.342 132.974 312.423 138.391 310.075 146.094V146.078Z" fill="url(#paint65_linear_275_20630)"/>
<path d="M356.712 154.42C355.514 154.42 354.285 154.372 353.039 154.276C348.072 153.892 343.136 152.774 338.377 151.687C334.112 150.712 329.688 149.721 325.264 149.258L313.94 148.075C313.477 148.027 312.934 147.995 312.391 147.979C311.081 147.931 309.724 147.868 308.637 147.452L308.989 146.813C309.915 147.18 311.193 147.228 312.423 147.276C312.998 147.292 313.541 147.324 314.036 147.372L325.36 148.555C329.848 149.018 334.288 150.041 338.6 151.016C343.328 152.086 348.231 153.205 353.119 153.573C362.606 154.308 371.103 151.991 380.095 149.53L380.941 149.306C391.147 146.525 402.519 141.3 405.857 138.934C406.943 138.167 407.79 137.241 408.62 136.33C409.052 135.85 409.483 135.371 409.946 134.923L410.585 135.387C410.122 135.834 409.706 136.298 409.275 136.761C408.429 137.704 407.534 138.663 406.4 139.462C402.934 141.923 391.674 147.116 381.213 149.961L380.366 150.185C372.46 152.342 364.922 154.404 356.712 154.404V154.42Z" fill="url(#paint66_linear_275_20630)"/>
<path d="M339.399 161.866C328.826 161.866 311.576 160.268 308.414 150.217C306.753 144.032 307.791 138.375 311.544 133.389C317.677 125.191 330.103 120.381 339.671 118.607C354.764 115.811 365.8 117.473 379.009 124.488C379.951 124.983 380.894 125.511 381.852 126.022C391.036 131.024 400.523 136.186 410.729 133.389L411.895 133.07L411.655 134.092C409.211 144.783 389.965 150.936 380.718 153.892L379.983 154.132C368.26 157.887 354.38 161.739 340.246 161.85C339.974 161.85 339.702 161.85 339.431 161.85L339.399 161.866ZM309.803 149.913C312.742 159.166 329.225 160.652 339.383 160.652C339.655 160.652 339.942 160.652 340.198 160.652C354.109 160.54 367.845 156.721 379.44 153.013L380.191 152.774C388.895 149.993 406.672 144.304 409.93 134.875C399.596 137.113 390.157 132.015 381.053 127.077C380.095 126.566 379.153 126.038 378.226 125.543C365.209 118.607 354.844 117.057 339.958 119.806C330.662 121.532 318.636 126.182 312.742 134.044C309.212 138.743 308.222 144.08 309.803 149.913Z" fill="url(#paint67_linear_275_20630)"/>
<path d="M271.407 154.643C271.567 135.611 294.359 131.727 309.308 132.974C324.402 134.236 334.336 138.535 345.149 148.762C353.374 156.545 361.855 165.894 373.898 165.894C368.691 175.514 348.024 176.153 338.521 176.569C325.184 177.16 311.353 177.016 298.384 173.596C287.858 170.816 271.743 164.823 271.407 154.627V154.643Z" fill="#1C3232"/>
<path d="M372.94 166.709H371.63C355.259 166.677 342.338 166.645 328.219 157.12C312.487 146.525 288.242 138.663 271.695 151.335L271.136 150.808C288.098 137.816 312.774 145.806 328.746 156.577C342.657 165.957 355.451 165.973 371.662 166.005H372.956V166.725L372.94 166.709Z" fill="url(#paint68_linear_275_20630)"/>
<path d="M343.791 170.272H343.743C334.879 170.272 323.731 167.108 313.892 161.803C311.321 160.412 309.037 159.022 306.849 157.68C302.584 155.075 298.575 152.63 293.225 150.744C285.83 148.171 279.489 149.593 272.749 151.128L271.535 151.399L271.328 150.712L272.526 150.44C279.106 148.954 285.894 147.404 293.544 150.089C298.975 151.991 303.031 154.467 307.344 157.104C309.532 158.447 311.8 159.837 314.355 161.195C324.066 166.421 335.055 169.553 343.759 169.553H343.807C355.019 169.553 369.33 167.811 372.748 166.037L373.179 166.645C369.665 168.466 355.131 170.256 343.807 170.256L343.791 170.272Z" fill="url(#paint69_linear_275_20630)"/>
<path d="M373.85 166.245C373.642 166.229 352.879 164.567 340.038 156.449C339.734 156.225 312.087 136.218 290.797 139.494C283.37 140.644 277.525 144.528 273.404 151.032L272.669 150.696C276.918 144 282.971 140.005 290.653 138.807C312.327 135.435 340.293 155.698 340.565 155.906C353.183 163.896 373.722 165.526 373.93 165.542L373.85 166.245Z" fill="url(#paint70_linear_275_20630)"/>
<path d="M339.159 173.5C330.072 173.5 321.431 173.404 312.598 170.256C307.919 168.578 303.463 166.213 299.166 163.928C295.301 161.866 291.308 159.741 287.171 158.127L285.606 157.52C282.588 156.353 279.553 155.171 276.566 154.004C276.119 153.828 275.608 153.668 275.081 153.509C273.835 153.109 272.557 152.71 271.647 152.022L272.206 151.495C272.989 152.086 274.202 152.47 275.384 152.837C275.927 153.013 276.454 153.173 276.918 153.365C279.904 154.515 282.939 155.698 285.958 156.881L287.507 157.488C291.707 159.118 295.716 161.259 299.613 163.337C303.878 165.606 308.302 167.971 312.918 169.617C321.622 172.717 330.151 172.813 339.159 172.813H340.9C351.49 172.813 363.836 170.768 367.685 169.361C368.915 168.914 370.001 168.227 371.039 167.587C371.582 167.236 372.141 166.9 372.716 166.581L373.163 167.172C372.604 167.476 372.077 167.811 371.534 168.147C370.448 168.818 369.346 169.521 368.02 170.001C364.011 171.471 351.761 173.5 340.9 173.5H339.159Z" fill="url(#paint71_linear_275_20630)"/>
<path d="M327.42 177.463C317.981 177.463 307.887 176.76 298.176 174.187C288.066 171.519 271.056 165.43 270.689 154.659C270.737 148.187 273.324 142.978 278.371 139.126C286.517 132.91 299.693 131.519 309.388 132.35C324.689 133.629 334.863 138.103 345.692 148.347C346.459 149.082 347.241 149.833 348.024 150.584C355.546 157.807 363.309 165.27 373.898 165.27H375.016L374.553 166.133C369.298 175.833 349.094 176.712 339.367 177.144L338.569 177.176C335.007 177.336 331.269 177.447 327.42 177.447V177.463ZM272.126 154.643C272.478 164.647 288.865 170.464 298.591 173.037C312.039 176.585 326.318 176.521 338.473 175.977L339.287 175.945C348.423 175.546 367.11 174.731 372.716 166.485C362.095 165.973 354.381 158.574 346.938 151.415C346.155 150.664 345.388 149.913 344.606 149.194C333.905 139.078 324.322 134.843 309.228 133.597C299.901 132.846 287.14 134.108 279.329 140.069C274.602 143.681 272.174 148.587 272.126 154.659V154.643Z" fill="url(#paint72_linear_275_20630)"/>
<path d="M255.052 216.664C255.052 216.664 305.874 181.57 272.989 144.911C271.918 143.713 269.682 141.763 266.776 140.405C259.796 137.161 243.105 133.773 232.42 142.946C231.366 143.856 228.571 146.829 227.565 148.203C224.85 151.991 208.527 189.928 255.052 216.648V216.664Z" fill="#1C3232"/>
<path d="M255.052 216.855C254.956 216.855 254.877 216.807 254.845 216.744C244.08 195.921 243.648 175.338 245.182 161.739C246.843 147.005 251.123 137.065 251.171 136.969C251.203 136.889 251.299 136.841 251.395 136.841H251.427C251.539 136.857 251.618 136.937 251.618 137.033L255.292 216.664C255.292 216.759 255.212 216.839 255.116 216.855C255.1 216.855 255.084 216.855 255.068 216.855H255.052ZM251.203 138.088C250.101 140.948 247.003 149.769 245.645 161.771C244.128 175.114 244.527 195.186 254.781 215.593L251.203 138.072V138.088Z" fill="url(#paint73_linear_275_20630)"/>
<path d="M255.052 216.855C255.052 216.855 254.909 216.823 254.861 216.775C254.749 216.664 244.016 204.822 238.058 189.145C232.548 174.651 230.089 153.828 249.734 136.889C249.83 136.809 249.973 136.809 250.069 136.889C250.149 136.969 250.165 137.097 250.069 137.177C230.6 153.972 233.043 174.635 238.506 189.033C244.447 204.646 255.148 216.44 255.244 216.568C255.324 216.648 255.308 216.775 255.196 216.839C255.148 216.871 255.116 216.871 255.052 216.871V216.855Z" fill="url(#paint74_linear_275_20630)"/>
<path d="M255.052 216.855C255.052 216.855 254.94 216.839 254.892 216.807C254.589 216.568 224.562 192.453 226.303 167.044C227.102 155.442 234.337 145.295 247.801 136.857C247.897 136.777 248.041 136.809 248.12 136.889C248.2 136.985 248.168 137.097 248.073 137.161C234.72 145.518 227.549 155.57 226.75 167.044C225.025 192.277 254.876 216.264 255.196 216.488C255.292 216.568 255.292 216.696 255.196 216.775C255.148 216.807 255.084 216.839 255.02 216.839L255.052 216.855Z" fill="url(#paint75_linear_275_20630)"/>
<path d="M255.052 216.855C255.052 216.855 254.972 216.855 254.924 216.823C254.813 216.759 254.781 216.648 254.861 216.552C254.956 216.424 264.38 203.991 268.836 188.059C272.941 173.372 273.563 152.63 253.168 137.177C253.072 137.097 253.056 136.985 253.152 136.905C253.231 136.825 253.391 136.809 253.471 136.889C274.043 152.486 273.42 173.388 269.283 188.17C264.795 204.167 255.34 216.664 255.244 216.775C255.212 216.839 255.132 216.871 255.052 216.871V216.855Z" fill="url(#paint76_linear_275_20630)"/>
<path d="M255.052 216.855C255.052 216.855 255.004 216.855 254.988 216.855C254.861 216.823 254.797 216.712 254.829 216.616C255.004 216.12 272.126 166.437 251.187 137.145C251.123 137.049 251.155 136.937 251.267 136.873C251.379 136.825 251.507 136.841 251.586 136.937C262.591 152.326 263.006 173.213 261.409 188.011C259.684 204.039 255.308 216.6 255.276 216.728C255.244 216.807 255.148 216.871 255.052 216.871V216.855Z" fill="url(#paint77_linear_275_20630)"/>
<path d="M255.052 216.855C255.052 216.855 254.94 216.839 254.892 216.807C254.813 216.728 254.797 216.6 254.892 216.52C255.132 216.312 279.489 195.186 277.956 170.927C277.173 158.415 269.714 147.18 255.771 137.56C255.675 137.496 255.659 137.368 255.739 137.288C255.835 137.193 255.979 137.193 256.058 137.257C270.098 146.957 277.62 158.271 278.419 170.911C279.952 195.346 255.467 216.6 255.212 216.807C255.164 216.839 255.1 216.855 255.052 216.855Z" fill="url(#paint78_linear_275_20630)"/>
<path d="M255.084 217.159L254.797 216.999C230.264 202.92 223.62 185.773 222.374 173.884C221.033 161.099 225.409 150.456 227.166 148.027C228.204 146.573 231.031 143.585 232.085 142.69C242.451 133.789 258.997 136.362 266.999 140.069C269.826 141.395 272.142 143.313 273.356 144.687C290.494 163.784 284.664 182.449 276.758 194.738C268.213 208.002 255.484 216.903 255.34 216.983L255.068 217.175L255.084 217.159ZM250.468 137.432C244.24 137.432 237.739 138.95 232.756 143.233C231.766 144.096 228.971 147.037 227.98 148.427C226.926 149.897 221.895 160.189 223.317 173.82C224.546 185.502 231.047 202.297 255.052 216.184C256.905 214.842 268.213 206.42 275.991 194.339C283.754 182.258 289.471 163.928 272.637 145.167C271.471 143.872 269.267 142.035 266.568 140.772C262.687 138.966 256.729 137.448 250.484 137.448L250.468 137.432Z" fill="url(#paint79_linear_275_20630)"/>
</g>
<defs>
<linearGradient id="paint0_linear_275_20630" x1="359.076" y1="151.16" x2="146.109" y2="151.16" gradientUnits="userSpaceOnUse">
<stop stop-color="#C09440"/>
<stop offset="0.5" stop-color="#F5E283"/>
<stop offset="0.89" stop-color="#D3B058"/>
</linearGradient>
<linearGradient id="paint1_linear_275_20630" x1="524.016" y1="156.753" x2="0" y2="156.753" gradientUnits="userSpaceOnUse">
<stop stop-color="#C09440"/>
<stop offset="0.5" stop-color="#F5E283"/>
<stop offset="0.89" stop-color="#D3B058"/>
</linearGradient>
<linearGradient id="paint2_linear_275_20630" x1="429.927" y1="156.737" x2="94.0735" y2="156.737" gradientUnits="userSpaceOnUse">
<stop stop-color="#C09440"/>
<stop offset="0.5" stop-color="#F5E283"/>
<stop offset="0.89" stop-color="#D3B058"/>
</linearGradient>
<linearGradient id="paint3_linear_275_20630" x1="450.61" y1="156.737" x2="73.3901" y2="156.737" gradientUnits="userSpaceOnUse">
<stop stop-color="#C09440"/>
<stop offset="0.5" stop-color="#F5E283"/>
<stop offset="0.89" stop-color="#D3B058"/>
</linearGradient>
<linearGradient id="paint4_linear_275_20630" x1="355.329" y1="106.692" x2="362.402" y2="116.305" gradientUnits="userSpaceOnUse">
<stop stop-color="#C09440"/>
<stop offset="0.5" stop-color="#F5E283"/>
<stop offset="0.89" stop-color="#D3B058"/>
</linearGradient>
<linearGradient id="paint5_linear_275_20630" x1="356.229" y1="107.835" x2="368.036" y2="123.883" gradientUnits="userSpaceOnUse">
<stop stop-color="#C09440"/>
<stop offset="0.5" stop-color="#F5E283"/>
<stop offset="0.89" stop-color="#D3B058"/>
</linearGradient>
<linearGradient id="paint6_linear_275_20630" x1="357.425" y1="109.355" x2="372.642" y2="130.036" gradientUnits="userSpaceOnUse">
<stop stop-color="#C09440"/>
<stop offset="0.5" stop-color="#F5E283"/>
<stop offset="0.89" stop-color="#D3B058"/>
</linearGradient>
<linearGradient id="paint7_linear_275_20630" x1="358.848" y1="111.663" x2="345.743" y2="93.8516" gradientUnits="userSpaceOnUse">
<stop stop-color="#C09440"/>
<stop offset="0.5" stop-color="#F5E283"/>
<stop offset="0.89" stop-color="#D3B058"/>
</linearGradient>
<linearGradient id="paint8_linear_275_20630" x1="358.913" y1="111.615" x2="351.413" y2="101.423" gradientUnits="userSpaceOnUse">
<stop stop-color="#C09440"/>
<stop offset="0.5" stop-color="#F5E283"/>
<stop offset="0.89" stop-color="#D3B058"/>
</linearGradient>
<linearGradient id="paint9_linear_275_20630" x1="359.028" y1="111.53" x2="342.013" y2="88.4041" gradientUnits="userSpaceOnUse">
<stop stop-color="#C09440"/>
<stop offset="0.5" stop-color="#F5E283"/>
<stop offset="0.89" stop-color="#D3B058"/>
</linearGradient>
<linearGradient id="paint10_linear_275_20630" x1="338.406" y1="83.4779" x2="375.127" y2="133.385" gradientUnits="userSpaceOnUse">
<stop stop-color="#C09440"/>
<stop offset="0.5" stop-color="#F5E283"/>
<stop offset="0.89" stop-color="#D3B058"/>
</linearGradient>
<linearGradient id="paint11_linear_275_20630" x1="327.833" y1="91.036" x2="338.864" y2="99.0635" gradientUnits="userSpaceOnUse">
<stop stop-color="#C09440"/>
<stop offset="0.5" stop-color="#F5E283"/>
<stop offset="0.89" stop-color="#D3B058"/>
</linearGradient>
<linearGradient id="paint12_linear_275_20630" x1="329.243" y1="92.0037" x2="347.882" y2="105.568" gradientUnits="userSpaceOnUse">
<stop stop-color="#C09440"/>
<stop offset="0.5" stop-color="#F5E283"/>
<stop offset="0.89" stop-color="#D3B058"/>
</linearGradient>
<linearGradient id="paint13_linear_275_20630" x1="331.111" y1="93.2655" x2="355.2" y2="110.796" gradientUnits="userSpaceOnUse">
<stop stop-color="#C09440"/>
<stop offset="0.5" stop-color="#F5E283"/>
<stop offset="0.89" stop-color="#D3B058"/>
</linearGradient>
<linearGradient id="paint14_linear_275_20630" x1="333.16" y1="95.1282" x2="312.52" y2="80.1072" gradientUnits="userSpaceOnUse">
<stop stop-color="#C09440"/>
<stop offset="0.5" stop-color="#F5E283"/>
<stop offset="0.89" stop-color="#D3B058"/>
</linearGradient>
<linearGradient id="paint15_linear_275_20630" x1="333.208" y1="95.0636" x2="321.531" y2="86.5661" gradientUnits="userSpaceOnUse">
<stop stop-color="#C09440"/>
<stop offset="0.5" stop-color="#F5E283"/>
<stop offset="0.89" stop-color="#D3B058"/>
</linearGradient>
<linearGradient id="paint16_linear_275_20630" x1="333.314" y1="94.9438" x2="306.409" y2="75.3639" gradientUnits="userSpaceOnUse">
<stop stop-color="#C09440"/>
<stop offset="0.5" stop-color="#F5E283"/>
<stop offset="0.89" stop-color="#D3B058"/>
</linearGradient>
<linearGradient id="paint17_linear_275_20630" x1="300.591" y1="71.0505" x2="359.129" y2="113.651" gradientUnits="userSpaceOnUse">
<stop stop-color="#C09440"/>
<stop offset="0.5" stop-color="#F5E283"/>
<stop offset="0.89" stop-color="#D3B058"/>
</linearGradient>
<linearGradient id="paint18_linear_275_20630" x1="293.293" y1="78.1937" x2="305.443" y2="81.7723" gradientUnits="userSpaceOnUse">
<stop stop-color="#C09440"/>
<stop offset="0.5" stop-color="#F5E283"/>
<stop offset="0.89" stop-color="#D3B058"/>
</linearGradient>
<linearGradient id="paint19_linear_275_20630" x1="294.845" y1="78.6347" x2="318.241" y2="85.5256" gradientUnits="userSpaceOnUse">
<stop stop-color="#C09440"/>
<stop offset="0.5" stop-color="#F5E283"/>
<stop offset="0.89" stop-color="#D3B058"/>
</linearGradient>
<linearGradient id="paint20_linear_275_20630" x1="294.858" y1="78.5887" x2="328.26" y2="88.4264" gradientUnits="userSpaceOnUse">
<stop stop-color="#C09440"/>
<stop offset="0.5" stop-color="#F5E283"/>
<stop offset="0.89" stop-color="#D3B058"/>
</linearGradient>
<linearGradient id="paint21_linear_275_20630" x1="295.483" y1="78.9585" x2="270.463" y2="71.5892" gradientUnits="userSpaceOnUse">
<stop stop-color="#C09440"/>
<stop offset="0.5" stop-color="#F5E283"/>
<stop offset="0.89" stop-color="#D3B058"/>
</linearGradient>
<linearGradient id="paint22_linear_275_20630" x1="295.501" y1="78.8972" x2="282.753" y2="75.1426" gradientUnits="userSpaceOnUse">
<stop stop-color="#C09440"/>
<stop offset="0.5" stop-color="#F5E283"/>
<stop offset="0.89" stop-color="#D3B058"/>
</linearGradient>
<linearGradient id="paint23_linear_275_20630" x1="295.569" y1="78.6672" x2="261.907" y2="68.7527" gradientUnits="userSpaceOnUse">
<stop stop-color="#C09440"/>
<stop offset="0.5" stop-color="#F5E283"/>
<stop offset="0.89" stop-color="#D3B058"/>
</linearGradient>
<linearGradient id="paint24_linear_275_20630" x1="254.109" y1="66.5068" x2="333.582" y2="89.9144" gradientUnits="userSpaceOnUse">
<stop stop-color="#C09440"/>
<stop offset="0.5" stop-color="#F5E283"/>
<stop offset="0.89" stop-color="#D3B058"/>
</linearGradient>
<linearGradient id="paint25_linear_275_20630" x1="151.845" y1="106.67" x2="144.772" y2="116.283" gradientUnits="userSpaceOnUse">
<stop stop-color="#C09440"/>
<stop offset="0.5" stop-color="#F5E283"/>
<stop offset="0.89" stop-color="#D3B058"/>
</linearGradient>
<linearGradient id="paint26_linear_275_20630" x1="150.949" y1="107.835" x2="139.151" y2="123.87" gradientUnits="userSpaceOnUse">
<stop stop-color="#C09440"/>
<stop offset="0.5" stop-color="#F5E283"/>
<stop offset="0.89" stop-color="#D3B058"/>
</linearGradient>
<linearGradient id="paint27_linear_275_20630" x1="149.75" y1="109.333" x2="134.533" y2="130.013" gradientUnits="userSpaceOnUse">
<stop stop-color="#C09440"/>
<stop offset="0.5" stop-color="#F5E283"/>
<stop offset="0.89" stop-color="#D3B058"/>
</linearGradient>
<linearGradient id="paint28_linear_275_20630" x1="148.326" y1="111.64" x2="161.431" y2="93.8293" gradientUnits="userSpaceOnUse">
<stop stop-color="#C09440"/>
<stop offset="0.5" stop-color="#F5E283"/>
<stop offset="0.89" stop-color="#D3B058"/>
</linearGradient>
<linearGradient id="paint29_linear_275_20630" x1="148.262" y1="111.593" x2="155.752" y2="101.413" gradientUnits="userSpaceOnUse">
<stop stop-color="#C09440"/>
<stop offset="0.5" stop-color="#F5E283"/>
<stop offset="0.89" stop-color="#D3B058"/>
</linearGradient>
<linearGradient id="paint30_linear_275_20630" x1="148.146" y1="111.508" x2="165.162" y2="88.3818" gradientUnits="userSpaceOnUse">
<stop stop-color="#C09440"/>
<stop offset="0.5" stop-color="#F5E283"/>
<stop offset="0.89" stop-color="#D3B058"/>
</linearGradient>
<linearGradient id="paint31_linear_275_20630" x1="168.781" y1="83.465" x2="132.061" y2="133.372" gradientUnits="userSpaceOnUse">
<stop stop-color="#C09440"/>
<stop offset="0.5" stop-color="#F5E283"/>
<stop offset="0.89" stop-color="#D3B058"/>
</linearGradient>
<linearGradient id="paint32_linear_275_20630" x1="179.441" y1="90.9646" x2="168.397" y2="99.0015" gradientUnits="userSpaceOnUse">
<stop stop-color="#C09440"/>
<stop offset="0.5" stop-color="#F5E283"/>
<stop offset="0.89" stop-color="#D3B058"/>
</linearGradient>
<linearGradient id="paint33_linear_275_20630" x1="178.018" y1="91.9418" x2="159.38" y2="105.506" gradientUnits="userSpaceOnUse">
<stop stop-color="#C09440"/>
<stop offset="0.5" stop-color="#F5E283"/>
<stop offset="0.89" stop-color="#D3B058"/>
</linearGradient>
<linearGradient id="paint34_linear_275_20630" x1="176.164" y1="93.1941" x2="152.061" y2="110.734" gradientUnits="userSpaceOnUse">
<stop stop-color="#C09440"/>
<stop offset="0.5" stop-color="#F5E283"/>
<stop offset="0.89" stop-color="#D3B058"/>
</linearGradient>
<linearGradient id="paint35_linear_275_20630" x1="174.101" y1="95.0663" x2="194.741" y2="80.0453" gradientUnits="userSpaceOnUse">
<stop stop-color="#C09440"/>
<stop offset="0.5" stop-color="#F5E283"/>
<stop offset="0.89" stop-color="#D3B058"/>
</linearGradient>
<linearGradient id="paint36_linear_275_20630" x1="174.054" y1="95.0017" x2="185.743" y2="86.4948" gradientUnits="userSpaceOnUse">
<stop stop-color="#C09440"/>
<stop offset="0.5" stop-color="#F5E283"/>
<stop offset="0.89" stop-color="#D3B058"/>
</linearGradient>
<linearGradient id="paint37_linear_275_20630" x1="173.947" y1="94.8819" x2="200.852" y2="75.302" gradientUnits="userSpaceOnUse">
<stop stop-color="#C09440"/>
<stop offset="0.5" stop-color="#F5E283"/>
<stop offset="0.89" stop-color="#D3B058"/>
</linearGradient>
<linearGradient id="paint38_linear_275_20630" x1="206.67" y1="70.9886" x2="148.132" y2="113.589" gradientUnits="userSpaceOnUse">
<stop stop-color="#C09440"/>
<stop offset="0.5" stop-color="#F5E283"/>
<stop offset="0.89" stop-color="#D3B058"/>
</linearGradient>
<linearGradient id="paint39_linear_275_20630" x1="213.914" y1="78.1746" x2="201.764" y2="81.7532" gradientUnits="userSpaceOnUse">
<stop stop-color="#C09440"/>
<stop offset="0.5" stop-color="#F5E283"/>
<stop offset="0.89" stop-color="#D3B058"/>
</linearGradient>
<linearGradient id="paint40_linear_275_20630" x1="212.357" y1="78.6002" x2="188.961" y2="85.4912" gradientUnits="userSpaceOnUse">
<stop stop-color="#C09440"/>
<stop offset="0.5" stop-color="#F5E283"/>
<stop offset="0.89" stop-color="#D3B058"/>
</linearGradient>
<linearGradient id="paint41_linear_275_20630" x1="212.344" y1="78.5542" x2="178.943" y2="88.392" gradientUnits="userSpaceOnUse">
<stop stop-color="#C09440"/>
<stop offset="0.5" stop-color="#F5E283"/>
<stop offset="0.89" stop-color="#D3B058"/>
</linearGradient>
<linearGradient id="paint42_linear_275_20630" x1="211.719" y1="78.924" x2="236.739" y2="71.5547" gradientUnits="userSpaceOnUse">
<stop stop-color="#C09440"/>
<stop offset="0.5" stop-color="#F5E283"/>
<stop offset="0.89" stop-color="#D3B058"/>
</linearGradient>
<linearGradient id="paint43_linear_275_20630" x1="211.701" y1="78.8627" x2="224.449" y2="75.1081" gradientUnits="userSpaceOnUse">
<stop stop-color="#C09440"/>
<stop offset="0.5" stop-color="#F5E283"/>
<stop offset="0.89" stop-color="#D3B058"/>
</linearGradient>
<linearGradient id="paint44_linear_275_20630" x1="211.633" y1="78.6328" x2="245.31" y2="68.7138" gradientUnits="userSpaceOnUse">
<stop stop-color="#C09440"/>
<stop offset="0.5" stop-color="#F5E283"/>
<stop offset="0.89" stop-color="#D3B058"/>
</linearGradient>
<linearGradient id="paint45_linear_275_20630" x1="253.093" y1="66.4724" x2="173.635" y2="89.8754" gradientUnits="userSpaceOnUse">
<stop stop-color="#C09440"/>
<stop offset="0.5" stop-color="#F5E283"/>
<stop offset="0.89" stop-color="#D3B058"/>
</linearGradient>
<linearGradient id="paint46_linear_275_20630" x1="248.903" y1="76.0512" x2="263.677" y2="76.0512" gradientUnits="userSpaceOnUse">
<stop stop-color="#C09440"/>
<stop offset="0.5" stop-color="#F5E283"/>
<stop offset="0.89" stop-color="#D3B058"/>
</linearGradient>
<linearGradient id="paint47_linear_275_20630" x1="248.903" y1="76.0672" x2="277.972" y2="76.0672" gradientUnits="userSpaceOnUse">
<stop stop-color="#C09440"/>
<stop offset="0.5" stop-color="#F5E283"/>
<stop offset="0.89" stop-color="#D3B058"/>
</linearGradient>
<linearGradient id="paint48_linear_275_20630" x1="248.903" y1="76.0672" x2="288.785" y2="76.0672" gradientUnits="userSpaceOnUse">
<stop stop-color="#C09440"/>
<stop offset="0.5" stop-color="#F5E283"/>
<stop offset="0.89" stop-color="#D3B058"/>
</linearGradient>
<linearGradient id="paint49_linear_275_20630" x1="252.018" y1="76.0672" x2="226.559" y2="76.0672" gradientUnits="userSpaceOnUse">
<stop stop-color="#C09440"/>
<stop offset="0.5" stop-color="#F5E283"/>
<stop offset="0.89" stop-color="#D3B058"/>
</linearGradient>
<linearGradient id="paint50_linear_275_20630" x1="254.669" y1="76.0512" x2="239.64" y2="76.0512" gradientUnits="userSpaceOnUse">
<stop stop-color="#C09440"/>
<stop offset="0.5" stop-color="#F5E283"/>
<stop offset="0.89" stop-color="#D3B058"/>
</linearGradient>
<linearGradient id="paint51_linear_275_20630" x1="249.654" y1="75.6996" x2="217.119" y2="75.6996" gradientUnits="userSpaceOnUse">
<stop stop-color="#C09440"/>
<stop offset="0.5" stop-color="#F5E283"/>
<stop offset="0.89" stop-color="#D3B058"/>
</linearGradient>
<linearGradient id="paint52_linear_275_20630" x1="208.926" y1="75.9393" x2="294.471" y2="75.9393" gradientUnits="userSpaceOnUse">
<stop stop-color="#C09440"/>
<stop offset="0.5" stop-color="#F5E283"/>
<stop offset="0.89" stop-color="#D3B058"/>
</linearGradient>
<linearGradient id="paint53_linear_275_20630" x1="105.442" y1="123.984" x2="203.593" y2="151.023" gradientUnits="userSpaceOnUse">
<stop stop-color="#C09440"/>
<stop offset="0.5" stop-color="#F5E283"/>
<stop offset="0.89" stop-color="#D3B058"/>
</linearGradient>
<linearGradient id="paint54_linear_275_20630" x1="104.181" y1="127.78" x2="202.394" y2="154.836" gradientUnits="userSpaceOnUse">
<stop stop-color="#C09440"/>
<stop offset="0.5" stop-color="#F5E283"/>
<stop offset="0.89" stop-color="#D3B058"/>
</linearGradient>
<linearGradient id="paint55_linear_275_20630" x1="105.364" y1="120.78" x2="202.915" y2="147.653" gradientUnits="userSpaceOnUse">
<stop stop-color="#C09440"/>
<stop offset="0.5" stop-color="#F5E283"/>
<stop offset="0.89" stop-color="#D3B058"/>
</linearGradient>
<linearGradient id="paint56_linear_275_20630" x1="103.359" y1="130.703" x2="201.202" y2="157.657" gradientUnits="userSpaceOnUse">
<stop stop-color="#C09440"/>
<stop offset="0.5" stop-color="#F5E283"/>
<stop offset="0.89" stop-color="#D3B058"/>
</linearGradient>
<linearGradient id="paint57_linear_275_20630" x1="103.614" y1="122.8" x2="204.168" y2="150.501" gradientUnits="userSpaceOnUse">
<stop stop-color="#C09440"/>
<stop offset="0.5" stop-color="#F5E283"/>
<stop offset="0.89" stop-color="#D3B058"/>
</linearGradient>
<linearGradient id="paint58_linear_275_20630" x1="139.705" y1="155.394" x2="241.509" y2="155.394" gradientUnits="userSpaceOnUse">
<stop stop-color="#C09440"/>
<stop offset="0.5" stop-color="#F5E283"/>
<stop offset="0.89" stop-color="#D3B058"/>
</linearGradient>
<linearGradient id="paint59_linear_275_20630" x1="139.481" y1="159.453" x2="241.333" y2="159.453" gradientUnits="userSpaceOnUse">
<stop stop-color="#C09440"/>
<stop offset="0.5" stop-color="#F5E283"/>
<stop offset="0.89" stop-color="#D3B058"/>
</linearGradient>
<linearGradient id="paint60_linear_275_20630" x1="138.698" y1="152.342" x2="239.975" y2="152.342" gradientUnits="userSpaceOnUse">
<stop stop-color="#C09440"/>
<stop offset="0.5" stop-color="#F5E283"/>
<stop offset="0.89" stop-color="#D3B058"/>
</linearGradient>
<linearGradient id="paint61_linear_275_20630" x1="139.481" y1="162.506" x2="240.997" y2="162.506" gradientUnits="userSpaceOnUse">
<stop stop-color="#C09440"/>
<stop offset="0.5" stop-color="#F5E283"/>
<stop offset="0.89" stop-color="#D3B058"/>
</linearGradient>
<linearGradient id="paint62_linear_275_20630" x1="137.612" y1="154.803" x2="241.956" y2="154.803" gradientUnits="userSpaceOnUse">
<stop stop-color="#C09440"/>
<stop offset="0.5" stop-color="#F5E283"/>
<stop offset="0.89" stop-color="#D3B058"/>
</linearGradient>
<linearGradient id="paint63_linear_275_20630" x1="407.182" y1="123.932" x2="309.031" y2="150.971" gradientUnits="userSpaceOnUse">
<stop stop-color="#C09440"/>
<stop offset="0.5" stop-color="#F5E283"/>
<stop offset="0.89" stop-color="#D3B058"/>
</linearGradient>
<linearGradient id="paint64_linear_275_20630" x1="408.443" y1="127.729" x2="310.23" y2="154.784" gradientUnits="userSpaceOnUse">
<stop stop-color="#C09440"/>
<stop offset="0.5" stop-color="#F5E283"/>
<stop offset="0.89" stop-color="#D3B058"/>
</linearGradient>
<linearGradient id="paint65_linear_275_20630" x1="407.26" y1="120.728" x2="309.709" y2="147.601" gradientUnits="userSpaceOnUse">
<stop stop-color="#C09440"/>
<stop offset="0.5" stop-color="#F5E283"/>
<stop offset="0.89" stop-color="#D3B058"/>
</linearGradient>
<linearGradient id="paint66_linear_275_20630" x1="409.261" y1="130.636" x2="311.417" y2="157.59" gradientUnits="userSpaceOnUse">
<stop stop-color="#C09440"/>
<stop offset="0.5" stop-color="#F5E283"/>
<stop offset="0.89" stop-color="#D3B058"/>
</linearGradient>
<linearGradient id="paint67_linear_275_20630" x1="409.01" y1="122.749" x2="308.456" y2="150.449" gradientUnits="userSpaceOnUse">
<stop stop-color="#C09440"/>
<stop offset="0.5" stop-color="#F5E283"/>
<stop offset="0.89" stop-color="#D3B058"/>
</linearGradient>
<linearGradient id="paint68_linear_275_20630" x1="372.94" y1="155.394" x2="271.136" y2="155.394" gradientUnits="userSpaceOnUse">
<stop stop-color="#C09440"/>
<stop offset="0.5" stop-color="#F5E283"/>
<stop offset="0.89" stop-color="#D3B058"/>
</linearGradient>
<linearGradient id="paint69_linear_275_20630" x1="373.163" y1="159.453" x2="271.312" y2="159.453" gradientUnits="userSpaceOnUse">
<stop stop-color="#C09440"/>
<stop offset="0.5" stop-color="#F5E283"/>
<stop offset="0.89" stop-color="#D3B058"/>
</linearGradient>
<linearGradient id="paint70_linear_275_20630" x1="373.946" y1="152.342" x2="272.669" y2="152.342" gradientUnits="userSpaceOnUse">
<stop stop-color="#C09440"/>
<stop offset="0.5" stop-color="#F5E283"/>
<stop offset="0.89" stop-color="#D3B058"/>
</linearGradient>
<linearGradient id="paint71_linear_275_20630" x1="373.163" y1="162.506" x2="271.647" y2="162.506" gradientUnits="userSpaceOnUse">
<stop stop-color="#C09440"/>
<stop offset="0.5" stop-color="#F5E283"/>
<stop offset="0.89" stop-color="#D3B058"/>
</linearGradient>
<linearGradient id="paint72_linear_275_20630" x1="375.016" y1="154.803" x2="270.689" y2="154.803" gradientUnits="userSpaceOnUse">
<stop stop-color="#C09440"/>
<stop offset="0.5" stop-color="#F5E283"/>
<stop offset="0.89" stop-color="#D3B058"/>
</linearGradient>
<linearGradient id="paint73_linear_275_20630" x1="255.292" y1="176.856" x2="244.527" y2="176.856" gradientUnits="userSpaceOnUse">
<stop stop-color="#C09440"/>
<stop offset="0.5" stop-color="#F5E283"/>
<stop offset="0.89" stop-color="#D3B058"/>
</linearGradient>
<linearGradient id="paint74_linear_275_20630" x1="255.292" y1="176.856" x2="234.129" y2="176.856" gradientUnits="userSpaceOnUse">
<stop stop-color="#C09440"/>
<stop offset="0.5" stop-color="#F5E283"/>
<stop offset="0.89" stop-color="#D3B058"/>
</linearGradient>
<linearGradient id="paint75_linear_275_20630" x1="255.292" y1="176.856" x2="226.239" y2="176.856" gradientUnits="userSpaceOnUse">
<stop stop-color="#C09440"/>
<stop offset="0.5" stop-color="#F5E283"/>
<stop offset="0.89" stop-color="#D3B058"/>
</linearGradient>
<linearGradient id="paint76_linear_275_20630" x1="253.104" y1="176.856" x2="271.615" y2="176.856" gradientUnits="userSpaceOnUse">
<stop stop-color="#C09440"/>
<stop offset="0.5" stop-color="#F5E283"/>
<stop offset="0.89" stop-color="#D3B058"/>
</linearGradient>
<linearGradient id="paint77_linear_275_20630" x1="251.155" y1="176.856" x2="262.096" y2="176.856" gradientUnits="userSpaceOnUse">
<stop stop-color="#C09440"/>
<stop offset="0.5" stop-color="#F5E283"/>
<stop offset="0.89" stop-color="#D3B058"/>
</linearGradient>
<linearGradient id="paint78_linear_275_20630" x1="254.829" y1="177.048" x2="278.499" y2="177.048" gradientUnits="userSpaceOnUse">
<stop stop-color="#C09440"/>
<stop offset="0.5" stop-color="#F5E283"/>
<stop offset="0.89" stop-color="#D3B058"/>
</linearGradient>
<linearGradient id="paint79_linear_275_20630" x1="284.472" y1="176.904" x2="222.135" y2="176.904" gradientUnits="userSpaceOnUse">
<stop stop-color="#C09440"/>
<stop offset="0.5" stop-color="#F5E283"/>
<stop offset="0.89" stop-color="#D3B058"/>
</linearGradient>
<clipPath id="clip0_275_20630">
<rect width="524" height="236" fill="white"/>
</clipPath>
</defs>
</svg>
