<svg width="294" height="132" viewBox="0 0 294 132" fill="none" xmlns="http://www.w3.org/2000/svg">
<g opacity="0.5" clip-path="url(#clip0_275_21111)">
<path d="M141.722 102.558C108.78 102.558 81.9773 94.4773 81.9773 84.5469C81.9773 74.6165 108.78 66.5364 141.722 66.5364C174.663 66.5364 201.466 74.6165 201.466 84.5469C201.466 94.4773 174.663 102.558 141.722 102.558ZM141.722 66.9743C109.022 66.9743 82.4254 74.8579 82.4254 84.5469C82.4254 94.236 109.031 102.12 141.722 102.12C174.412 102.12 201.018 94.236 201.018 84.5469C201.018 74.8579 174.412 66.9743 141.722 66.9743Z" fill="url(#paint0_linear_275_21111)"/>
<path d="M147 132C65.9457 132 0 112.113 0 87.6753C0 63.2382 65.9457 43.3506 147 43.3506C228.054 43.3506 294 63.2382 294 87.6753C294 112.113 228.054 132 147 132ZM147 44.45C66.5461 44.4411 1.09327 63.837 1.09327 87.6753C1.09327 111.514 66.5461 130.901 146.991 130.901C227.436 130.901 292.898 111.505 292.898 87.6753C292.898 63.846 227.445 44.45 146.991 44.45H147Z" fill="url(#paint1_linear_275_21111)"/>
<path d="M147 115.992C95.0518 115.992 52.7817 103.291 52.7817 87.6754C52.7817 72.0603 95.0518 59.3501 147 59.3501C198.948 59.3501 241.218 72.0513 241.218 87.6754C241.218 103.299 198.948 115.992 147 115.992ZM147 59.797C95.3028 59.797 53.2388 72.3016 53.2388 87.6665C53.2388 103.031 95.3028 115.536 147 115.536C198.697 115.536 240.77 103.031 240.77 87.6665C240.77 72.3016 198.706 59.797 147 59.797Z" fill="url(#paint2_linear_275_21111)"/>
<path d="M147 119.478C88.6533 119.478 41.1768 105.203 41.1768 87.6664C41.1768 70.1296 88.6444 55.8552 147 55.8552C205.355 55.8552 252.823 70.1296 252.823 87.6664C252.823 105.203 205.355 119.478 147 119.478ZM147 56.3647C88.9311 56.3647 41.6875 70.4067 41.6875 87.6664C41.6875 104.926 88.9311 118.968 147 118.968C205.069 118.968 252.312 104.926 252.312 87.6664C252.312 70.4067 205.069 56.3647 147 56.3647Z" fill="url(#paint3_linear_275_21111)"/>
<path d="M230.985 40.5438C230.985 40.5438 185.112 36.5484 168.184 68.5473C167.638 69.5931 166.903 71.497 166.894 73.3919C166.867 77.9325 170.219 86.6294 181.277 86.5847C182.37 86.5847 185.713 86.2808 187.155 86.0127C191.107 85.2797 226.782 73.3472 230.985 40.5438Z" fill="#1C3232"/>
<path d="M230.985 40.5437L169.788 81.5345C169.788 81.5345 206.897 69.2355 230.985 40.5437Z" fill="#1C3232"/>
<path d="M169.788 81.6776C169.726 81.6776 169.672 81.6508 169.645 81.6061C169.6 81.5435 169.618 81.472 169.69 81.4273L230.886 40.4365C230.949 40.3918 231.038 40.3918 231.101 40.4455C231.164 40.4902 231.164 40.5706 231.119 40.6242C207.273 69.021 170.219 81.5435 169.842 81.6687C169.824 81.6687 169.797 81.6776 169.779 81.6776H169.788ZM230.16 41.2767L170.828 81.0162C177.119 78.719 208.698 66.2949 230.16 41.2767Z" fill="url(#paint4_linear_275_21111)"/>
<path d="M170.308 82.3032C170.219 82.3032 170.147 82.2406 170.138 82.1602C170.138 82.0886 170.21 82.0261 170.308 82.0172C190.534 81.892 205.911 70.603 215.249 61.1642C225.375 50.921 230.779 40.5884 230.832 40.4811C230.868 40.4096 230.967 40.3828 231.047 40.4096C231.128 40.4454 231.173 40.5258 231.137 40.5973C231.083 40.7046 225.662 51.0729 215.509 61.343C206.126 70.8354 190.668 82.1691 170.308 82.3032Z" fill="url(#paint5_linear_275_21111)"/>
<path d="M178.239 83.6082C175.864 83.6082 173.445 83.4474 170.989 83.1256C170.9 83.1166 170.837 83.0451 170.855 82.9647C170.864 82.8932 170.936 82.8485 171.016 82.8485C171.016 82.8485 171.034 82.8485 171.043 82.8485C193.93 85.816 208.949 74.1516 217.534 63.8458C226.845 52.664 230.788 40.6242 230.832 40.508C230.85 40.4365 230.949 40.3918 231.038 40.4097C231.128 40.4276 231.182 40.508 231.155 40.5795C231.119 40.6957 227.158 52.7892 217.812 64.0067C212.318 70.6031 206.064 75.6175 199.226 78.9067C192.738 82.0262 185.704 83.5993 178.248 83.5993L178.239 83.6082Z" fill="url(#paint6_linear_275_21111)"/>
<path d="M169.081 80.8643C169.081 80.8643 169.054 80.8643 169.036 80.8643C168.946 80.8464 168.892 80.766 168.919 80.6945C173.74 64.3286 190.355 54.2462 203.447 48.6688C217.615 42.6354 230.823 40.4277 230.958 40.4009C230.958 40.4009 230.976 40.4009 230.985 40.4009C231.065 40.4009 231.137 40.4456 231.146 40.5171C231.164 40.5886 231.101 40.6601 231.012 40.678C230.877 40.6958 217.713 42.8946 203.581 48.919C190.561 54.4697 174.018 64.4984 169.233 80.7571C169.215 80.8196 169.143 80.8643 169.072 80.8643H169.081Z" fill="url(#paint7_linear_275_21111)"/>
<path d="M169.789 81.6775C169.789 81.6775 169.735 81.6775 169.708 81.6596C169.627 81.6239 169.6 81.5345 169.645 81.4719C185.166 58.0537 230.465 40.5973 230.922 40.4186C231.012 40.4007 231.101 40.4186 231.137 40.4901C231.173 40.5616 231.137 40.642 231.047 40.6778C230.59 40.8476 185.39 58.2682 169.923 81.606C169.896 81.6507 169.833 81.6775 169.78 81.6775H169.789Z" fill="url(#paint8_linear_275_21111)"/>
<path d="M168.444 79.5772C168.444 79.5772 168.426 79.5772 168.408 79.5772C168.319 79.5593 168.256 79.4878 168.283 79.4074C170.398 70.5496 175.013 62.9789 182.003 56.9188C187.585 52.0742 194.692 48.1682 203.124 45.3348C217.471 40.4992 230.859 40.4009 230.994 40.4009C231.083 40.4009 231.164 40.4634 231.164 40.5439C231.164 40.6243 231.092 40.6869 230.994 40.6869C230.859 40.6869 217.525 40.7852 203.241 45.6029C190.077 50.0452 173.373 59.5287 168.614 79.47C168.597 79.5325 168.525 79.5861 168.453 79.5861L168.444 79.5772Z" fill="url(#paint9_linear_275_21111)"/>
<path d="M181.178 86.8618C177.217 86.8618 173.911 85.7713 171.357 83.6082C167.79 80.5961 166.545 76.2253 166.562 73.3918C166.58 71.5595 167.261 69.6288 167.889 68.4311C184.718 36.6109 230.573 40.222 231.03 40.2578L231.361 40.2846L231.325 40.5706C229.112 57.8482 218.072 69.1104 209.2 75.5191C199.674 82.3926 189.772 85.816 187.236 86.2897C185.802 86.5579 182.46 86.8618 181.286 86.8618H181.187H181.178ZM226.415 40.6868C214.433 40.6868 181.994 43.1448 168.498 68.6635C167.889 69.8076 167.244 71.6489 167.226 73.4008C167.208 76.1269 168.408 80.3279 171.832 83.215C174.26 85.2618 177.406 86.3076 181.187 86.3076H181.286C182.415 86.3076 185.722 86.0037 187.102 85.7445C188.634 85.4585 198.563 82.4641 208.77 75.099C217.498 68.7976 228.35 57.741 230.635 40.803C230.008 40.7672 228.538 40.6868 226.423 40.6868H226.415Z" fill="url(#paint10_linear_275_21111)"/>
<path d="M209.944 21.3264C209.944 21.3264 159.51 30.3809 154.088 69.3695C153.909 70.6387 153.882 72.8912 154.617 74.9023C156.373 79.7468 163.372 88.0325 175.129 84.779C176.294 84.4572 179.735 83.1701 181.169 82.464C185.085 80.5423 218.385 57.4816 209.935 21.3264H209.944Z" fill="#1C3232"/>
<path d="M209.944 21.3264L160.908 82.7322C160.908 82.7322 195.588 58.867 209.944 21.3264Z" fill="#1C3232"/>
<path d="M160.908 82.8842C160.908 82.8842 160.818 82.8752 160.782 82.8395C160.72 82.7858 160.702 82.7054 160.755 82.6339L209.791 21.2371C209.836 21.1745 209.944 21.1566 210.024 21.1835C210.105 21.2192 210.15 21.2996 210.114 21.3712C195.901 58.5274 161.374 82.616 161.024 82.8573C160.988 82.8752 160.944 82.8931 160.908 82.8931V82.8842ZM209.352 22.3454L161.831 81.8652C167.638 77.5838 196.358 55.1935 209.352 22.3454Z" fill="url(#paint11_linear_275_21111)"/>
<path d="M161.714 83.4115C161.634 83.4115 161.562 83.3668 161.544 83.3042C161.508 83.2238 161.562 83.1344 161.661 83.1076C183.15 77.1011 195.086 60.6279 201.314 47.8641C208.062 34.0187 209.747 21.4337 209.764 21.3085C209.773 21.2281 209.854 21.1655 209.953 21.1655H209.971C210.078 21.1745 210.15 21.2549 210.141 21.3354C210.123 21.4605 208.438 34.0902 201.664 47.9713C195.409 60.7977 183.409 77.3513 161.786 83.3936C161.768 83.3936 161.741 83.4025 161.723 83.4025L161.714 83.4115Z" fill="url(#paint12_linear_275_21111)"/>
<path d="M162.79 84.082C162.7 84.082 162.619 84.0284 162.61 83.948C162.592 83.8675 162.664 83.7781 162.763 83.7692C188.293 80.3012 199.71 63.5151 204.8 50.0452C210.311 35.4312 209.773 21.4696 209.764 21.3266C209.764 21.2372 209.854 21.1568 209.953 21.1657C210.051 21.1657 210.132 21.2283 210.141 21.3177C210.141 21.4607 210.687 35.4759 205.158 50.1435C201.905 58.76 197.219 65.9106 191.233 71.3987C183.741 78.2632 174.188 82.5357 162.825 84.0731C162.817 84.0731 162.808 84.0731 162.799 84.0731L162.79 84.082Z" fill="url(#paint13_linear_275_21111)"/>
<path d="M159.832 82.2317C159.734 82.2317 159.653 82.1691 159.644 82.0887C158.336 63.2647 172.064 47.7033 183.804 37.9695C196.52 27.4313 209.711 21.255 209.845 21.1924C209.935 21.1477 210.051 21.1746 210.096 21.255C210.141 21.3265 210.114 21.4248 210.024 21.4695C209.89 21.5321 196.735 27.6905 184.055 38.2019C172.369 47.891 158.712 63.372 160.012 82.0798C160.012 82.1691 159.94 82.2406 159.841 82.2496H159.832V82.2317Z" fill="url(#paint14_linear_275_21111)"/>
<path d="M160.908 82.8842C160.908 82.8842 160.881 82.8842 160.872 82.8842C160.773 82.8663 160.711 82.7859 160.729 82.6965C168.032 53.245 209.397 21.5232 209.818 21.2014C209.89 21.1388 210.006 21.1478 210.078 21.2103C210.15 21.2729 210.141 21.3712 210.06 21.4338C209.648 21.7466 168.364 53.4148 161.087 82.7591C161.069 82.8306 160.989 82.8842 160.908 82.8842Z" fill="url(#paint15_linear_275_21111)"/>
<path d="M158.659 81.043C158.569 81.043 158.488 80.9804 158.47 80.9C157.234 70.8445 159.169 61.4504 164.223 52.9769C168.265 46.1928 174.296 39.9807 182.155 34.5105C195.525 25.1968 209.747 21.2104 209.89 21.1746C209.988 21.1389 210.096 21.1925 210.123 21.2729C210.159 21.3534 210.105 21.4428 210.006 21.4696C209.863 21.5143 195.704 25.4829 182.388 34.7608C170.111 43.3147 156.06 58.2594 158.856 80.8732C158.856 80.9536 158.793 81.034 158.685 81.043H158.668H158.659Z" fill="url(#paint16_linear_275_21111)"/>
<path d="M169.932 85.8339C167.629 85.8339 165.442 85.378 163.372 84.4753C158.399 82.3033 155.352 78.0129 154.259 74.9918C153.551 73.0343 153.515 70.7819 153.712 69.325C159.107 30.5598 209.352 21.1121 209.854 21.0137L210.221 20.9512L210.293 21.264C214.747 40.3114 207.426 55.5064 200.499 64.9005C193.07 74.9829 183.866 81.4988 181.348 82.7323C179.933 83.4295 176.491 84.7256 175.237 85.0741C173.409 85.5836 171.634 85.8339 169.923 85.8339H169.932ZM209.657 21.702C205.078 22.6316 159.546 32.839 154.456 69.3965C154.259 70.7908 154.303 72.9449 154.975 74.8041C156.033 77.7001 158.945 81.8296 163.722 83.9122C167.154 85.4227 170.953 85.6015 175.022 84.4753C176.106 84.1714 179.538 82.9111 180.99 82.196C182.504 81.4452 191.914 75.3761 199.88 64.5698C206.691 55.3277 213.896 40.4008 209.648 21.702H209.657Z" fill="url(#paint17_linear_275_21111)"/>
<path d="M177.406 4.12939C177.406 4.12939 128.809 29.6391 140.046 71.9707C140.414 73.3472 141.363 75.6979 142.994 77.566C146.928 82.053 157.807 88.4528 168.641 81.3111C169.717 80.605 172.746 78.1738 173.929 76.9761C177.173 73.7226 201.861 39.0958 177.397 4.12939H177.406Z" fill="#1C3232"/>
<path d="M177.406 4.12964L152.941 83.7158C152.941 83.7158 178.714 47.8019 177.406 4.12964Z" fill="#1C3232"/>
<path d="M152.95 83.8855C152.95 83.8855 152.897 83.8855 152.87 83.8766C152.771 83.8408 152.726 83.7604 152.753 83.671L177.208 4.08485C177.235 4.00441 177.343 3.95972 177.424 3.95972C177.531 3.96866 177.603 4.04016 177.603 4.12954C178.902 47.3549 153.372 83.4475 153.112 83.8051C153.076 83.8587 153.004 83.8855 152.941 83.8855H152.95ZM177.235 5.38984L153.533 82.5179C157.736 76.1986 177.934 43.7349 177.235 5.38984Z" fill="url(#paint18_linear_275_21111)"/>
<path d="M154.017 84.1713C153.954 84.1713 153.891 84.1534 153.856 84.1087C153.784 84.0372 153.802 83.921 153.891 83.8674C173.678 70.755 178.965 49.7948 179.915 34.5104C180.945 17.9389 177.244 4.30807 177.208 4.174C177.182 4.07568 177.253 3.98629 177.361 3.95948C177.495 3.9416 177.585 3.99523 177.612 4.08462C177.648 4.21869 181.358 17.9031 180.327 34.5193C179.368 49.8663 174.054 70.9338 154.142 84.1266C154.106 84.1534 154.062 84.1624 154.017 84.1624V84.1713Z" fill="url(#paint19_linear_275_21111)"/>
<path d="M155.424 84.5289C155.352 84.5289 155.28 84.4932 155.244 84.4396C155.191 84.3591 155.227 84.2519 155.325 84.2072C180.417 72.4444 185.032 51.3323 184.494 35.6814C183.911 18.7077 177.289 4.335 177.226 4.19199C177.182 4.10261 177.226 4.00429 177.343 3.96854C177.432 3.92385 177.567 3.96854 177.603 4.06686C177.665 4.20987 184.315 18.6362 184.906 35.6725C185.256 45.6833 183.472 54.6305 179.61 62.2548C174.789 71.7919 166.679 79.2822 155.522 84.5111C155.486 84.529 155.46 84.5289 155.424 84.5289Z" fill="url(#paint20_linear_275_21111)"/>
<path d="M151.543 83.5457C151.463 83.5457 151.391 83.501 151.355 83.4384C141.838 64.248 149.393 43.6721 157.404 29.791C166.078 14.7569 177.146 4.1204 177.253 4.01314C177.334 3.94164 177.45 3.9327 177.54 4.0042C177.62 4.06677 177.629 4.17403 177.558 4.24554C177.45 4.35279 166.419 14.9625 157.762 29.9519C149.787 43.7705 142.268 64.248 151.732 83.3133C151.776 83.4026 151.732 83.501 151.624 83.5367C151.597 83.5457 151.57 83.5457 151.543 83.5457Z" fill="url(#paint21_linear_275_21111)"/>
<path d="M152.95 83.8854C152.852 83.8854 152.762 83.8228 152.744 83.7334C147.601 50.7424 176.931 4.50483 177.226 4.04898C177.28 3.95959 177.406 3.94172 177.504 3.97747C177.603 4.02216 177.639 4.12942 177.594 4.20986C177.298 4.67465 148.022 50.8049 153.157 83.6887C153.174 83.7871 153.094 83.8675 152.977 83.8854H152.95Z" fill="url(#paint22_linear_275_21111)"/>
<path d="M149.805 82.6878C149.724 82.6878 149.653 82.652 149.617 82.5895C143.971 72.5161 141.91 62.1119 143.505 51.6721C144.778 43.3238 148.371 34.9218 154.178 26.7254C164.062 12.7639 177.146 4.07592 177.28 3.99547C177.37 3.94184 177.495 3.95078 177.567 4.03123C177.629 4.10273 177.62 4.21893 177.531 4.27256C177.396 4.353 164.367 13.0142 154.518 26.9221C145.441 39.7395 137.286 59.788 149.984 82.4464C150.029 82.5358 149.984 82.6342 149.885 82.6788C149.859 82.6878 149.823 82.6967 149.796 82.6967L149.805 82.6878Z" fill="url(#paint23_linear_275_21111)"/>
<path d="M158.381 84.8596C157.664 84.8596 156.929 84.8149 156.203 84.7345C150.11 84.0373 145.109 80.5514 142.681 77.7716C141.095 75.9661 140.082 73.6242 139.661 72.0422C128.477 29.9609 176.706 4.09364 177.19 3.83443L177.549 3.64673L177.764 3.95063C190.65 22.3634 189.611 40.5259 186.465 52.5121C183.096 65.3832 176.33 75.108 174.251 77.1906C173.077 78.3705 170.066 80.8106 168.901 81.5704C165.595 83.7513 162.064 84.8507 158.381 84.8507V84.8596ZM177.271 4.61206C172.898 7.0522 129.911 32.1955 140.458 71.8902C140.862 73.4008 141.829 75.6354 143.344 77.3604C145.674 80.024 150.477 83.3759 156.32 84.0462C160.549 84.5468 164.636 83.5189 168.408 81.0341C169.412 80.3726 172.432 77.9593 173.633 76.7526C174.896 75.4923 182.056 66.1698 185.677 52.3691C188.768 40.5706 189.808 22.7299 177.289 4.61206H177.271Z" fill="url(#paint24_linear_275_21111)"/>
<path d="M53.5972 40.5438C53.5972 40.5438 99.4697 36.5484 116.397 68.5473C116.953 69.5931 117.679 71.497 117.688 73.3919C117.715 77.9325 114.363 86.6294 103.305 86.5847C102.212 86.5847 98.8693 86.2808 97.4265 86.0127C93.4746 85.2797 57.8 73.3472 53.5972 40.5438Z" fill="#1C3232"/>
<path d="M53.5972 40.5437L114.793 81.5345C114.793 81.5345 77.685 69.2355 53.5972 40.5437Z" fill="#1C3232"/>
<path d="M114.793 81.6776C114.793 81.6776 114.749 81.6776 114.731 81.6687C114.363 81.5435 77.2996 69.021 53.4538 40.6242C53.409 40.5706 53.409 40.4902 53.4717 40.4455C53.5344 40.3918 53.624 40.3918 53.6868 40.4365L114.883 81.4273C114.946 81.472 114.964 81.5435 114.928 81.6061C114.901 81.6508 114.838 81.6776 114.784 81.6776H114.793ZM54.4216 41.2767C75.8748 66.2949 107.463 78.719 113.754 81.0162L54.4216 41.2767Z" fill="url(#paint25_linear_275_21111)"/>
<path d="M114.274 82.3033C93.9136 82.1693 78.4645 70.8356 69.0821 61.3431C58.92 51.0731 53.5074 40.6958 53.4537 40.5975C53.4178 40.526 53.4537 40.4455 53.5433 40.4098C53.6329 40.3919 53.7225 40.4098 53.7584 40.4813C53.8121 40.5885 59.2157 50.9301 69.3509 61.1733C78.6885 70.6121 94.057 81.8922 114.282 82.0262C114.372 82.0262 114.453 82.0888 114.453 82.1693C114.453 82.2497 114.381 82.3123 114.282 82.3123L114.274 82.3033Z" fill="url(#paint26_linear_275_21111)"/>
<path d="M106.343 83.6082C98.8872 83.6082 91.8527 82.0351 85.3648 78.9157C78.5273 75.6264 72.2724 70.612 66.7792 64.0156C57.4326 52.7892 53.4717 40.7047 53.4359 40.5885C53.409 40.517 53.4628 40.4365 53.5524 40.4186C53.642 40.4097 53.7316 40.4365 53.7585 40.517C53.8033 40.6421 57.7463 52.6819 67.057 63.8636C75.6329 74.1694 90.6698 85.8249 113.539 82.8574C113.548 82.8574 113.557 82.8574 113.566 82.8574C113.646 82.8574 113.718 82.9111 113.727 82.9736C113.745 83.0541 113.682 83.1166 113.593 83.1345C111.137 83.4563 108.718 83.6172 106.343 83.6172V83.6082Z" fill="url(#paint27_linear_275_21111)"/>
<path d="M115.51 80.8643C115.439 80.8643 115.367 80.8196 115.349 80.7571C110.555 64.4984 94.0213 54.4697 80.9917 48.9101C66.8598 42.8946 53.7048 40.6958 53.5703 40.678C53.4807 40.6601 53.418 40.5886 53.4359 40.5171C53.4538 40.4456 53.5255 40.4009 53.5972 40.4009C53.6062 40.4009 53.6152 40.4009 53.6241 40.4009C53.7585 40.4188 66.9584 42.6265 81.1351 48.6688C94.2274 54.2462 110.842 64.3286 115.663 80.6945C115.69 80.766 115.636 80.8464 115.546 80.8643C115.528 80.8643 115.519 80.8643 115.501 80.8643H115.51Z" fill="url(#paint28_linear_275_21111)"/>
<path d="M114.793 81.6776C114.731 81.6776 114.677 81.6508 114.65 81.6061C99.174 58.2683 53.9825 40.8477 53.5255 40.6779C53.4359 40.6421 53.4 40.5617 53.4359 40.4902C53.4807 40.4186 53.5703 40.3918 53.6509 40.4186C54.1079 40.5974 99.407 58.0538 114.928 81.472C114.973 81.5435 114.946 81.624 114.865 81.6597C114.838 81.6687 114.811 81.6776 114.784 81.6776H114.793Z" fill="url(#paint29_linear_275_21111)"/>
<path d="M116.138 79.5774C116.057 79.5774 115.985 79.5327 115.976 79.4612C111.218 59.5199 94.5232 50.0365 81.3502 45.5941C67.066 40.7764 53.7317 40.6781 53.5973 40.6781C53.5077 40.6781 53.427 40.6155 53.427 40.5351C53.427 40.4547 53.4987 40.3921 53.5973 40.3921C53.7317 40.3921 67.1198 40.4904 81.4667 45.326C89.8992 48.1684 97.0055 52.0654 102.588 56.91C109.578 62.9701 114.193 70.5319 116.308 79.3986C116.326 79.4701 116.263 79.5505 116.174 79.5684C116.165 79.5684 116.156 79.5684 116.138 79.5684V79.5774Z" fill="url(#paint30_linear_275_21111)"/>
<path d="M103.404 86.8618H103.305C102.122 86.8618 98.7886 86.5579 97.3548 86.2898C94.8188 85.825 84.9166 82.4016 75.3909 75.5192C66.5192 69.1194 55.479 57.8572 53.2656 40.5706L53.2297 40.2846L53.5613 40.2578C54.0094 40.222 99.864 36.602 116.702 68.4311C117.329 69.6289 118.01 71.5595 118.019 73.3919C118.037 76.2164 116.792 80.5961 113.225 83.5993C110.662 85.7624 107.365 86.8529 103.395 86.8529L103.404 86.8618ZM53.9646 40.7941C56.2407 57.7321 67.0928 68.7887 75.821 75.0901C86.0278 82.4642 95.9658 85.4496 97.4982 85.7356C98.9678 86.0127 102.292 86.2898 103.305 86.2987H103.404C107.185 86.2987 110.331 85.2529 112.759 83.2061C116.182 80.319 117.374 76.118 117.356 73.3919C117.347 71.6489 116.693 69.8076 116.093 68.6635C100.213 38.6489 58.1584 40.5438 53.9646 40.803V40.7941Z" fill="url(#paint31_linear_275_21111)"/>
<path d="M74.6382 21.3264C74.6382 21.3264 125.072 30.3809 130.494 69.3695C130.673 70.6387 130.7 72.8912 129.965 74.9023C128.208 79.7468 121.21 88.0325 109.453 84.779C108.288 84.4572 104.847 83.1701 103.413 82.464C99.4967 80.5423 66.1968 57.4816 74.6472 21.3264H74.6382Z" fill="#1C3232"/>
<path d="M74.6384 21.3267L123.674 82.7324C123.674 82.7324 88.9943 58.8673 74.6384 21.3267Z" fill="#1C3232"/>
<path d="M123.674 82.8843C123.674 82.8843 123.594 82.8754 123.558 82.8486C123.208 82.6072 88.6716 58.5187 74.4681 21.3624C74.4412 21.2909 74.477 21.2104 74.5577 21.1747C74.6473 21.1478 74.7459 21.1657 74.7907 21.2283L123.826 82.634C123.88 82.6966 123.871 82.786 123.8 82.8396C123.764 82.8664 123.719 82.8843 123.674 82.8843ZM75.2298 22.3456C88.2235 55.2026 116.953 77.5839 122.76 81.8653L75.2298 22.3456Z" fill="url(#paint32_linear_275_21111)"/>
<path d="M122.867 83.4116C122.867 83.4116 122.832 83.4116 122.805 83.4026C101.181 77.3604 89.1822 60.8067 82.9273 47.9804C76.1526 34.0993 74.4679 21.4785 74.45 21.3444C74.441 21.2639 74.5127 21.1835 74.6202 21.1746H74.6382C74.7278 21.1746 74.8084 21.2371 74.8263 21.3176C74.8443 21.4427 76.52 34.0278 83.2768 47.8731C89.5048 60.6369 101.432 77.1101 122.93 83.1166C123.029 83.1434 123.083 83.2328 123.047 83.3132C123.02 83.3758 122.948 83.4205 122.876 83.4205L122.867 83.4116Z" fill="url(#paint33_linear_275_21111)"/>
<path d="M121.792 84.0819C121.792 84.0819 121.774 84.0819 121.765 84.0819C110.411 82.5356 100.85 78.2721 93.3582 71.4075C87.3721 65.9194 82.6854 58.7688 79.4325 50.1524C73.8944 35.4847 74.4411 21.4695 74.45 21.3265C74.45 21.2371 74.5486 21.1835 74.6472 21.1746C74.7458 21.1746 74.8264 21.2461 74.8264 21.3354C74.8264 21.4695 74.2798 35.4489 79.7999 50.063C84.8809 63.5329 96.2975 80.31 121.828 83.778C121.927 83.787 121.998 83.8764 121.98 83.9568C121.962 84.0283 121.891 84.0909 121.801 84.0909L121.792 84.0819Z" fill="url(#paint34_linear_275_21111)"/>
<path d="M124.749 82.2316H124.741C124.642 82.2316 124.561 82.1512 124.57 82.0618C125.87 63.354 112.213 47.873 100.518 38.1839C87.8382 27.6726 74.6831 21.523 74.5576 21.4605C74.468 21.4158 74.4322 21.3264 74.486 21.246C74.5308 21.1655 74.6383 21.1387 74.7369 21.1834C74.8713 21.246 88.0622 27.4223 100.778 37.9605C112.526 47.6942 126.246 63.2557 124.938 82.0797C124.938 82.1601 124.848 82.2227 124.749 82.2227V82.2316Z" fill="url(#paint35_linear_275_21111)"/>
<path d="M123.674 82.8842C123.585 82.8842 123.513 82.8306 123.495 82.7591C116.209 53.4148 74.9341 21.7556 74.5219 21.4338C74.4412 21.3802 74.4322 21.2729 74.5039 21.2103C74.5667 21.1478 74.6832 21.1388 74.7638 21.2014C75.185 21.5142 116.55 53.245 123.862 82.6965C123.88 82.777 123.818 82.8663 123.719 82.8842C123.71 82.8842 123.692 82.8842 123.683 82.8842H123.674Z" fill="url(#paint36_linear_275_21111)"/>
<path d="M125.923 81.0429H125.905C125.798 81.034 125.735 80.9535 125.735 80.8731C128.522 58.2504 114.471 43.3056 102.194 34.7517C88.8776 25.4738 74.7188 21.5142 74.5844 21.4695C74.4859 21.4427 74.4321 21.3533 74.4679 21.2729C74.4948 21.1924 74.6113 21.1477 74.7009 21.1745C74.8443 21.2103 89.0658 25.1968 102.436 34.5104C110.295 39.9806 116.326 46.1927 120.367 52.9768C125.421 61.4592 127.357 70.8533 126.12 80.8999C126.111 80.9803 126.031 81.0429 125.932 81.0429H125.923Z" fill="url(#paint37_linear_275_21111)"/>
<path d="M114.641 85.8339C112.93 85.8339 111.146 85.5836 109.327 85.0741C108.073 84.7256 104.64 83.4384 103.216 82.7323C100.697 81.4988 91.4943 74.9739 84.0654 64.9005C77.1384 55.5064 69.8171 40.3114 74.2708 21.264L74.3425 20.9512L74.7099 21.0137C75.2117 21.1031 125.466 30.5598 130.852 69.325C131.058 70.7729 131.022 73.0254 130.305 74.9918C129.221 78.004 126.174 82.2944 121.201 84.4753C119.131 85.378 116.935 85.8339 114.632 85.8339H114.641ZM74.925 21.702C70.6773 40.4008 77.8822 55.3187 84.7017 64.5698C92.6682 75.3761 102.069 81.4452 103.592 82.196C105.044 82.9111 108.476 84.1803 109.56 84.4753C113.646 85.6104 117.437 85.4138 120.869 83.9122C125.646 81.8206 128.558 77.7001 129.606 74.8041C130.278 72.9271 130.314 70.7819 130.126 69.3965C125.036 32.8212 79.5131 22.6316 74.925 21.702Z" fill="url(#paint38_linear_275_21111)"/>
<path d="M107.176 4.12964C107.176 4.12964 155.773 29.6394 144.536 71.9709C144.168 73.3474 143.218 75.6982 141.587 77.5663C137.653 82.0533 126.774 88.453 115.94 81.3114C114.865 80.6053 111.836 78.1741 110.653 76.9763C107.409 73.7228 82.7211 39.0961 107.185 4.12964H107.176Z" fill="#1C3232"/>
<path d="M107.176 4.12964L131.64 83.7158C131.64 83.7158 105.859 47.8019 107.176 4.12964Z" fill="#1C3232"/>
<path d="M131.631 83.8855C131.56 83.8855 131.497 83.8587 131.461 83.8051C131.201 83.4475 105.671 47.346 106.97 4.12954C106.97 4.04016 107.051 3.96866 107.149 3.95972C107.266 3.95972 107.346 4.00441 107.364 4.08485L131.829 83.671C131.855 83.7514 131.802 83.8408 131.712 83.8766C131.685 83.8855 131.658 83.8855 131.631 83.8855ZM107.346 5.38984C106.656 43.7349 126.855 76.1986 131.049 82.5179L107.346 5.38984Z" fill="url(#paint39_linear_275_21111)"/>
<path d="M130.565 84.1715C130.52 84.1715 130.476 84.1626 130.44 84.1357C110.537 70.9429 105.214 49.8755 104.255 34.5285C103.215 17.9123 106.925 4.22784 106.97 4.09377C106.988 4.00438 107.087 3.93288 107.221 3.96863C107.329 3.98651 107.4 4.08483 107.373 4.18315C107.338 4.31722 103.637 17.957 104.667 34.5285C105.626 49.804 110.913 70.7641 130.691 83.8765C130.78 83.9302 130.798 84.0464 130.726 84.1179C130.691 84.1626 130.628 84.1804 130.565 84.1804V84.1715Z" fill="url(#paint40_linear_275_21111)"/>
<path d="M129.167 84.529C129.167 84.529 129.104 84.529 129.069 84.5112C117.912 79.2823 109.811 71.792 104.981 62.2549C101.127 54.6306 99.3441 45.6834 99.6936 35.6726C100.285 18.6363 106.925 4.20997 106.988 4.06696C107.033 3.97758 107.158 3.93289 107.248 3.96864C107.355 4.00439 107.409 4.10271 107.364 4.1921C107.302 4.33511 100.679 18.7167 100.097 35.6905C99.5592 51.3324 104.183 72.4445 129.266 84.2073C129.364 84.252 129.4 84.3592 129.346 84.4397C129.31 84.4933 129.239 84.529 129.167 84.529Z" fill="url(#paint41_linear_275_21111)"/>
<path d="M133.038 83.5458C133.038 83.5458 132.985 83.5458 132.958 83.5369C132.85 83.5011 132.805 83.4028 132.85 83.3134C142.313 64.2481 134.795 43.7706 126.819 29.9521C118.172 14.9627 107.131 4.35296 107.024 4.2457C106.943 4.17419 106.961 4.06693 107.042 4.00437C107.131 3.9418 107.257 3.95074 107.329 4.0133C107.436 4.12056 118.512 14.7571 127.187 29.7912C135.198 43.6723 142.752 64.2571 133.236 83.4385C133.2 83.5011 133.128 83.5458 133.047 83.5458H133.038Z" fill="url(#paint42_linear_275_21111)"/>
<path d="M131.631 83.8854H131.605C131.497 83.8764 131.407 83.7871 131.425 83.6887C136.56 50.8049 107.284 4.67465 106.988 4.20986C106.934 4.12942 106.97 4.02216 107.078 3.97747C107.167 3.94172 107.302 3.95959 107.355 4.04898C107.651 4.51376 136.99 50.7424 131.838 83.7334C131.82 83.8228 131.73 83.8854 131.631 83.8854Z" fill="url(#paint43_linear_275_21111)"/>
<path d="M134.777 82.6878C134.777 82.6878 134.714 82.6878 134.687 82.6699C134.589 82.6252 134.544 82.5269 134.589 82.4375C147.296 59.7701 139.132 39.7306 130.054 26.9131C120.206 13.0052 107.176 4.35301 107.042 4.26363C106.952 4.20106 106.934 4.0938 107.006 4.0223C107.078 3.95079 107.212 3.94185 107.293 3.98655C107.427 4.07593 120.51 12.7639 130.395 26.7165C136.211 34.9218 139.795 43.3148 141.068 51.6631C142.654 62.103 140.602 72.5071 134.956 82.5805C134.92 82.6431 134.848 82.6789 134.768 82.6789L134.777 82.6878Z" fill="url(#paint44_linear_275_21111)"/>
<path d="M126.201 84.8597C122.518 84.8597 118.987 83.7603 115.681 81.5794C114.632 80.8822 111.585 78.4599 110.331 77.1996C108.243 75.117 101.495 65.3922 98.1165 52.5211C94.9711 40.526 93.9316 22.3724 106.818 3.95966L107.033 3.65576L107.391 3.84346C107.884 4.10267 156.105 29.97 144.93 72.0512C144.518 73.6244 143.505 75.9572 141.91 77.7806C139.482 80.5515 134.481 84.0374 128.388 84.7435C127.653 84.824 126.927 84.8687 126.21 84.8687L126.201 84.8597ZM107.311 4.61215C94.7919 22.73 95.8314 40.5618 98.923 52.3692C102.543 66.1698 109.703 75.4924 110.958 76.7527C112.168 77.9594 115.188 80.3727 116.191 81.0342C119.964 83.5279 124.05 84.5558 128.28 84.0463C134.123 83.376 138.926 80.0241 141.256 77.3605C142.779 75.6265 143.738 73.4009 144.132 71.8903C154.671 32.1956 111.684 7.05229 107.311 4.61215Z" fill="url(#paint45_linear_275_21111)"/>
<path d="M139.867 0.509427C139.867 0.509427 100.823 37.5585 126.094 76.2611C126.918 77.5213 128.639 79.5861 130.87 81.0162C136.238 84.4396 149.052 88.0148 157.261 78.3258C158.076 77.3694 160.227 74.2321 160.989 72.7662C163.077 68.7708 175.613 28.7096 139.867 0.500488V0.509427Z" fill="#1C3232"/>
<path d="M139.867 0.509521L142.681 84.5827C142.681 84.5827 155.854 42.993 139.867 0.509521Z" fill="#1C3232"/>
<path d="M142.681 84.7524H142.654C142.555 84.7435 142.475 84.672 142.475 84.5826L139.652 0.509477C139.652 0.420095 139.724 0.339651 139.822 0.330712C139.921 0.321774 140.019 0.366465 140.055 0.455848C155.881 42.5014 143.003 84.2072 142.869 84.6273C142.851 84.6988 142.761 84.7524 142.672 84.7524H142.681ZM140.118 1.77871L142.842 83.2508C144.831 76.0198 153.703 39.1853 140.118 1.77871Z" fill="url(#paint46_linear_275_21111)"/>
<path d="M143.819 84.7613C143.819 84.7613 143.729 84.7523 143.693 84.7345C143.604 84.6808 143.577 84.5646 143.649 84.4842C158.632 66.7328 156.75 44.8699 152.538 29.657C147.977 13.1659 139.759 0.714967 139.679 0.589831C139.625 0.500449 139.661 0.39319 139.759 0.348499C139.867 0.294869 139.992 0.330622 140.046 0.411066C140.127 0.536202 148.371 13.0319 152.95 29.5766C157.18 44.861 159.062 66.8312 143.989 84.6898C143.944 84.7345 143.882 84.7613 143.819 84.7613Z" fill="url(#paint47_linear_275_21111)"/>
<path d="M145.315 84.7614C145.262 84.7614 145.208 84.7435 145.163 84.7078C145.082 84.6363 145.082 84.529 145.163 84.4575C165.792 66.7151 163.211 44.87 157.413 29.666C151.131 13.1839 139.813 0.732949 139.697 0.616752C139.625 0.536308 139.643 0.429049 139.732 0.366481C139.831 0.303914 139.947 0.32179 140.028 0.402234C140.136 0.52737 151.507 13.023 157.825 29.5767C161.535 39.3015 162.799 48.5079 161.589 56.9366C160.074 67.4838 154.644 76.8332 145.468 84.7167C145.423 84.7525 145.378 84.7703 145.315 84.7703V84.7614Z" fill="url(#paint48_linear_275_21111)"/>
<path d="M141.193 84.7613C141.13 84.7613 141.068 84.7434 141.032 84.6987C125.242 68.2524 125.717 46.2107 128.898 30.6134C132.339 13.7291 139.598 0.563037 139.679 0.428963C139.732 0.348519 139.849 0.303828 139.957 0.348519C140.064 0.39321 140.109 0.491531 140.055 0.580914C139.983 0.714987 132.743 13.8453 129.311 30.6849C126.147 46.2017 125.672 68.1362 141.363 84.4753C141.435 84.5557 141.426 84.663 141.337 84.7256C141.292 84.7524 141.247 84.7613 141.202 84.7613H141.193Z" fill="url(#paint49_linear_275_21111)"/>
<path d="M142.681 84.7524C142.6 84.7524 142.528 84.7166 142.484 84.6451C126.335 53.5847 139.526 0.99207 139.661 0.464713C139.688 0.366393 139.804 0.294887 139.912 0.33064C140.019 0.348516 140.1 0.446837 140.073 0.545158C139.939 1.07251 126.784 53.549 142.878 84.511C142.923 84.6004 142.878 84.7077 142.77 84.7434C142.743 84.7524 142.717 84.7524 142.681 84.7524Z" fill="url(#paint50_linear_275_21111)"/>
<path d="M139.195 84.3592C139.132 84.3592 139.078 84.3413 139.043 84.2966C130.117 75.8232 124.606 66.1341 122.644 55.5065C121.084 47.0063 121.774 37.8893 124.705 28.4058C129.696 12.2722 139.589 0.518448 139.697 0.402251C139.76 0.321807 139.894 0.30393 139.993 0.35756C140.082 0.411189 140.109 0.527386 140.037 0.60783C139.939 0.724028 130.081 12.4331 125.108 28.513C120.529 43.3326 119.274 64.9989 139.356 84.0732C139.437 84.1447 139.428 84.2519 139.338 84.3234C139.303 84.3592 139.249 84.3681 139.204 84.3681L139.195 84.3592Z" fill="url(#paint51_linear_275_21111)"/>
<path d="M143.469 84.9491C138.263 84.9491 133.433 83.0989 130.61 81.3023C128.441 79.9169 126.658 77.8789 125.717 76.4309C100.599 37.9518 139.159 0.643554 139.553 0.268147L139.84 0L140.154 0.250271C158.981 15.1056 164.08 33.1609 165.03 45.6923C166.061 59.1444 162.709 70.3529 161.374 72.9093C160.612 74.3662 158.479 77.5035 157.61 78.5314C154.59 82.0889 150.737 84.1893 146.149 84.7793C145.253 84.8955 144.366 84.9491 143.478 84.9491H143.469ZM139.894 1.01896C136.426 4.487 102.75 39.7931 126.452 76.0913C127.348 77.4678 129.051 79.4163 131.112 80.7302C134.275 82.7503 140.064 84.8329 146.005 84.0731C150.37 83.51 154.035 81.5079 156.911 78.1113C157.745 77.1281 159.859 74.0087 160.594 72.6143C161.401 71.068 165.281 60.1455 164.179 45.7281C163.238 33.3933 158.255 15.6598 139.885 1.00108L139.894 1.01896Z" fill="url(#paint52_linear_275_21111)"/>
<path d="M114.193 83.9301C116.98 73.6422 105.241 68.1988 96.9606 66.6703C88.6087 65.133 82.5868 66 75.1938 69.9239C69.5661 72.9092 63.571 76.708 57.0652 74.9382C58.4363 80.8911 69.5123 84.2787 74.5844 85.8965C81.7086 88.1758 89.2091 90.1332 96.7365 90.1958C102.848 90.2405 112.464 89.3824 114.193 83.939V83.9301Z" fill="#1C3232"/>
<path d="M114.533 82.1157C107.481 72.8378 93.1967 73.5171 83.0795 76.9226C74.0018 79.9705 67.012 78.1024 58.1583 75.7159L57.4414 75.5193L57.5848 75.1439L58.3106 75.3405C67.0747 77.7002 74.0018 79.5683 82.9182 76.5561C93.1788 73.097 107.732 72.4267 114.937 81.9101L114.542 82.1247L114.533 82.1157Z" fill="url(#paint53_linear_275_21111)"/>
<path d="M80.5077 82.6609C77.658 82.6609 74.9786 82.3481 72.6935 81.7314C66.573 80.0689 58.9649 76.9673 57.334 75.4657L57.6835 75.1975C59.2696 76.6634 66.7791 79.7113 72.8369 81.356C77.5416 82.6341 83.9578 82.5626 89.9977 81.1772C91.5838 80.8107 93.0176 80.3996 94.3976 79.9973C97.1218 79.2108 99.7027 78.4689 102.929 78.2455C107.463 77.9147 110.913 79.756 114.238 81.5258L114.847 81.8476L114.596 82.1783L113.987 81.8565C110.573 80.042 107.365 78.3348 102.956 78.6387C99.7833 78.8622 97.2294 79.5951 94.532 80.3728C93.1431 80.775 91.7003 81.1861 90.1052 81.5615C86.906 82.2945 83.5904 82.6699 80.4898 82.6699L80.5077 82.6609Z" fill="url(#paint54_linear_275_21111)"/>
<path d="M113.655 81.7045C112.347 77.3963 109.578 74.3662 105.438 72.6858C94.3886 68.1988 76.9769 74.7416 76.8067 74.8131C68.6251 77.3158 57.1368 75.1528 57.0203 75.1349L57.1278 74.7416C57.2353 74.7595 68.5982 76.8868 76.6364 74.4467C76.7977 74.3841 94.4065 67.7787 105.644 72.3283C109.918 74.0623 112.768 77.1818 114.112 81.6062L113.655 81.7045Z" fill="url(#paint55_linear_275_21111)"/>
<path d="M87.4884 86.3702C82.8824 86.3702 78.6616 85.2261 74.2258 84.0195L73.7419 83.8854C67.8723 82.2855 61.5546 79.3895 59.61 78.013C58.9648 77.5571 58.463 77.0119 57.9791 76.4845C57.7461 76.2343 57.5131 75.9751 57.2622 75.7248L57.6207 75.4656C57.8805 75.7158 58.1135 75.9751 58.3555 76.2343C58.8215 76.7437 59.3054 77.2711 59.9147 77.7001C61.7876 79.023 68.1591 81.9369 73.8942 83.5011L74.3782 83.6351C78.7781 84.8329 82.972 85.968 87.5064 85.968C88.1695 85.968 88.8416 85.9501 89.5137 85.8965C92.2648 85.682 95.0069 85.0653 97.6594 84.4664C100.07 83.9212 102.57 83.3491 105.088 83.0899C106.495 82.9469 107.911 82.7949 109.318 82.6519L111.442 82.4285C111.72 82.4017 112.024 82.3838 112.347 82.3748C113.037 82.348 113.754 82.3212 114.265 82.1156L114.462 82.4732C113.861 82.7056 113.1 82.7413 112.365 82.7681C112.06 82.7771 111.764 82.7949 111.496 82.8218L109.372 83.0452C107.965 83.1882 106.549 83.3402 105.142 83.4832C102.66 83.7424 100.178 84.3055 97.7849 84.8418C95.1144 85.4496 92.3544 86.0753 89.5585 86.2898C88.8685 86.3434 88.1784 86.3702 87.4974 86.3702H87.4884Z" fill="url(#paint56_linear_275_21111)"/>
<path d="M97.1935 90.5355C97.0411 90.5355 96.8888 90.5355 96.7365 90.5355C88.8058 90.473 81.0185 88.3189 74.4409 86.2184L74.0287 86.0843C68.8401 84.4307 58.0508 80.9895 56.6708 75.0098L56.5364 74.4378L57.1905 74.6165C62.9168 76.1628 68.2308 73.2937 73.3835 70.5049C73.9212 70.21 74.4588 69.9239 74.9875 69.6469C82.3895 65.714 88.5728 64.7934 97.0591 66.3576C102.436 67.3497 109.399 70.0401 112.84 74.6255C114.937 77.4142 115.528 80.5783 114.596 84.0285C112.822 89.6685 103.144 90.5534 97.2114 90.5534L97.1935 90.5355ZM57.6207 75.4299C59.4488 80.7035 69.4316 83.8855 74.3065 85.4407L74.7277 85.5748C81.2335 87.6574 88.9402 89.7847 96.7365 89.8473C96.8888 89.8473 97.0411 89.8473 97.1935 89.8473C102.893 89.8473 112.15 89.025 113.79 83.8408C114.668 80.5783 114.112 77.593 112.141 74.9651C108.825 70.5586 102.077 67.9665 96.8709 67.0011C88.519 65.4638 82.7032 66.3308 75.3998 70.21C74.8711 70.496 74.3334 70.782 73.7957 71.077C68.6968 73.8389 63.4276 76.6902 57.6028 75.4299H57.6207Z" fill="url(#paint57_linear_275_21111)"/>
<path d="M135.35 86.4956C135.261 75.8501 122.473 73.6781 114.085 74.3753C105.617 75.0814 100.043 77.4858 93.9764 83.2063C89.3614 87.5592 84.603 92.7881 77.8462 92.7881C80.7676 98.1689 92.3634 98.5264 97.6953 98.7588C105.178 99.0895 112.938 99.0091 120.215 97.0963C126.12 95.5411 135.162 92.1892 135.35 86.4866V86.4956Z" fill="#1C3232"/>
<path d="M78.384 93.2438V92.8505H79.1099C88.2055 92.8326 95.3835 92.8237 103.189 87.577C112.15 81.5526 125.995 77.1013 135.512 84.3502L135.198 84.6452C125.888 77.5482 112.302 81.9548 103.484 87.8808C95.5538 93.208 88.3041 93.2259 79.1278 93.2438H78.393H78.384Z" fill="url(#paint58_linear_275_21111)"/>
<path d="M94.7382 95.2372C88.3847 95.2372 80.23 94.2361 78.2585 93.2171L78.5005 92.8775C80.4092 93.8696 88.4475 94.8439 94.7382 94.8439H94.7651C99.64 94.8439 105.814 93.1009 111.263 90.1692C112.697 89.4005 113.969 88.6229 115.197 87.881C117.607 86.4062 119.883 85.0208 122.939 83.9571C127.241 82.4555 131.04 83.3225 134.732 84.1538L135.404 84.3057L135.288 84.69L134.607 84.5381C130.825 83.68 127.259 82.8756 123.118 84.3236C120.125 85.3693 117.867 86.7458 115.475 88.2028C114.238 88.9536 112.965 89.7312 111.523 90.5088C105.994 93.4763 99.7386 95.2461 94.7741 95.2461H94.7472L94.7382 95.2372Z" fill="url(#paint59_linear_275_21111)"/>
<path d="M77.8641 92.9846L77.8193 92.5913C77.9358 92.5824 89.46 91.6617 96.5573 87.1926C96.6917 87.0943 110.071 77.4231 121.694 77.4231C122.661 77.4231 123.62 77.4946 124.552 77.6376C128.854 78.308 132.25 80.5425 134.642 84.2877L134.23 84.4754C131.918 80.8375 128.63 78.6744 124.471 78.022C112.526 76.1717 97.0143 87.3803 96.853 87.4965C89.6392 92.0461 77.9896 92.9756 77.8731 92.9846H77.8641Z" fill="url(#paint60_linear_275_21111)"/>
<path d="M97.337 97.0425H96.3602C90.2666 97.0425 83.3933 95.8984 81.1441 95.085C80.4003 94.8079 79.773 94.4236 79.1636 94.0392C78.8679 93.8515 78.5722 93.6638 78.2585 93.494L78.5095 93.1633C78.8321 93.3421 79.1367 93.5298 79.4414 93.7175C80.0239 94.0839 80.6333 94.4593 81.3322 94.7185C83.4919 95.5051 90.4189 96.6492 96.3602 96.6492H96.8621C102.077 96.6403 107.033 96.6492 112.069 94.8616C114.659 93.932 117.141 92.6181 119.534 91.3488C121.712 90.1869 123.961 88.9891 126.318 88.0774L128.603 87.1925C129.83 86.7188 131.049 86.2451 132.259 85.7714C132.519 85.6641 132.815 85.5747 133.119 85.4764C133.773 85.2708 134.454 85.0563 134.902 84.7256L135.216 85.0205C134.705 85.396 133.979 85.6284 133.28 85.8518C132.985 85.9501 132.698 86.0306 132.447 86.1289C131.237 86.5937 130.019 87.0763 128.791 87.5501L126.497 88.435C124.176 89.3377 121.936 90.5265 119.767 91.6795C117.356 92.9577 114.856 94.2895 112.231 95.228C107.266 96.9978 102.427 97.0425 97.3191 97.0425H97.337Z" fill="url(#paint61_linear_275_21111)"/>
<path d="M103.923 99.2593C101.764 99.2593 99.6669 99.1967 97.6685 99.1073L97.2205 99.0894C91.772 98.8481 80.4271 98.3565 77.4789 92.931L77.219 92.4483H77.8463C83.7876 92.4483 88.1427 88.2742 92.3635 84.2341C92.8026 83.814 93.2417 83.3939 93.6718 82.9827C99.7475 77.2533 105.456 74.7506 114.041 74.0355C119.462 73.5708 126.864 74.3484 131.434 77.8164C134.266 79.9705 135.718 82.8844 135.754 86.4865C135.548 92.5288 126.004 95.9253 120.331 97.418C114.883 98.857 109.22 99.2503 103.923 99.2503V99.2593ZM78.5005 93.1187C81.6548 97.7308 92.1394 98.1867 97.2653 98.4101L97.7223 98.428C104.56 98.7319 112.553 98.7677 120.098 96.7834C125.565 95.3443 134.75 92.0997 134.947 86.4955C134.92 83.09 133.558 80.3459 130.897 78.3259C126.515 75.0009 119.355 74.2947 114.121 74.7148C105.653 75.421 100.276 77.7807 94.2722 83.4386C93.8331 83.8497 93.403 84.2609 92.9639 84.681C88.779 88.6853 84.4597 92.8327 78.4915 93.1098L78.5005 93.1187Z" fill="url(#paint62_linear_275_21111)"/>
<path d="M173.436 83.9303C170.649 73.6424 182.388 68.199 190.668 66.6706C199.02 65.1332 205.042 66.0002 212.435 69.9241C218.063 72.9095 224.058 76.7082 230.573 74.9385C229.202 80.8913 218.125 84.2789 213.053 85.8967C205.929 88.176 198.429 90.1335 190.901 90.196C184.79 90.2407 175.165 89.3827 173.445 83.9393L173.436 83.9303Z" fill="#1C3232"/>
<path d="M173.095 82.1159L172.701 81.9013C179.906 72.4179 194.459 73.0882 204.719 76.5473C213.645 79.5595 220.563 77.6914 229.327 75.3317L230.044 75.144L230.187 75.5194L229.47 75.7071C220.617 78.0937 213.618 79.9707 204.549 76.9138C194.441 73.5083 180.148 72.829 173.095 82.1069V82.1159Z" fill="url(#paint63_linear_275_21111)"/>
<path d="M207.121 82.6611C204.011 82.6611 200.705 82.2946 197.506 81.5527C195.911 81.1863 194.468 80.7662 193.079 80.364C190.381 79.5863 187.828 78.8534 184.655 78.6299C180.273 78.326 177.038 80.0332 173.624 81.8477L173.015 82.1695L172.764 81.8388L173.373 81.517C176.698 79.7472 180.166 77.9059 184.682 78.2367C187.917 78.4601 190.489 79.202 193.213 79.9886C194.602 80.3908 196.027 80.8019 197.613 81.1684C203.644 82.5538 210.069 82.6343 214.774 81.3472C220.841 79.7025 228.341 76.6546 229.927 75.1887L230.277 75.4569C228.646 76.9585 221.038 80.0601 214.917 81.7226C212.632 82.3393 209.953 82.6522 207.112 82.6522L207.121 82.6611Z" fill="url(#paint64_linear_275_21111)"/>
<path d="M173.973 81.7045L173.516 81.6062C174.861 77.1818 177.71 74.0623 181.985 72.3283C193.231 67.7698 210.84 74.3841 211.019 74.4556C219.048 76.8957 230.402 74.7684 230.51 74.7416L230.617 75.1349C230.501 75.1528 219.013 77.3069 210.849 74.8221C210.652 74.7506 193.231 68.2167 182.191 72.6948C178.051 74.3752 175.291 77.4052 173.973 81.7134V81.7045Z" fill="url(#paint65_linear_275_21111)"/>
<path d="M200.14 86.3702C199.468 86.3702 198.778 86.3434 198.079 86.2898C195.292 86.0753 192.523 85.4496 189.853 84.8418C187.46 84.2966 184.978 83.7424 182.496 83.4832L176.142 82.8218C175.882 82.7949 175.578 82.7771 175.273 82.7681C174.538 82.7413 173.776 82.7056 173.167 82.4732L173.364 82.1156C173.884 82.3212 174.601 82.348 175.291 82.3748C175.613 82.3838 175.918 82.4017 176.196 82.4285L182.549 83.0899C185.068 83.3491 187.559 83.9212 189.978 84.4664C192.631 85.0653 195.382 85.6909 198.124 85.8965C203.447 86.3077 208.214 85.0116 213.26 83.6351L213.734 83.51C219.461 81.9547 225.841 79.0319 227.714 77.7091C228.323 77.28 228.798 76.7616 229.264 76.2521C229.506 75.984 229.748 75.7158 230.008 75.4656L230.367 75.7248C230.107 75.9751 229.874 76.2343 229.632 76.4935C229.157 77.0208 228.655 77.5571 228.019 78.004C226.074 79.3805 219.756 82.2855 213.887 83.8765L213.412 84.0016C208.976 85.2083 204.746 86.3613 200.14 86.3613V86.3702Z" fill="url(#paint66_linear_275_21111)"/>
<path d="M190.426 90.5356C184.494 90.5356 174.816 89.6417 173.041 84.0196C172.109 80.5605 172.692 77.3964 174.798 74.6076C178.239 70.0223 185.211 67.3319 190.579 66.3397C199.047 64.7755 205.239 65.7051 212.65 69.629C213.179 69.9061 213.708 70.2011 214.245 70.4871C219.398 73.2848 224.721 76.1718 230.447 74.6076L231.101 74.4289L230.967 75.0009C229.596 80.9806 218.797 84.4218 213.609 86.0754L213.197 86.2095C206.619 88.3099 198.832 90.4641 190.901 90.5266C190.749 90.5266 190.596 90.5266 190.444 90.5266L190.426 90.5356ZM173.821 83.8498C175.47 89.025 184.718 89.8563 190.417 89.8563C190.57 89.8563 190.731 89.8563 190.874 89.8563C198.68 89.7937 206.386 87.6575 212.892 85.5838L213.313 85.4497C218.197 83.8945 228.171 80.7124 229.999 75.4389C224.201 76.6902 218.905 73.8389 213.797 71.077C213.259 70.791 212.731 70.496 212.211 70.2189C204.908 66.3397 199.092 65.4727 190.74 67.0101C185.524 67.9754 178.777 70.5765 175.47 74.9741C173.49 77.6019 172.934 80.5873 173.821 83.8498Z" fill="url(#paint67_linear_275_21111)"/>
<path d="M152.278 86.4953C152.368 75.8499 165.156 73.6779 173.543 74.3751C182.012 75.0812 187.586 77.4856 193.652 83.206C198.267 87.559 203.026 92.7878 209.783 92.7878C206.861 98.1687 195.265 98.5262 189.933 98.7586C182.451 99.0893 174.69 99.0089 167.414 97.0961C161.508 95.5408 152.467 92.189 152.278 86.4864V86.4953Z" fill="#1C3232"/>
<path d="M209.245 93.2436H208.51C199.325 93.2257 192.075 93.2079 184.153 87.8807C175.327 81.9546 161.723 77.557 152.44 84.645L152.126 84.3501C161.643 77.0833 175.488 81.5524 184.449 87.5768C192.254 92.8235 199.432 92.8325 208.528 92.8503H209.254V93.2526L209.245 93.2436Z" fill="url(#paint68_linear_275_21111)"/>
<path d="M192.89 95.2368H192.864C187.89 95.2368 181.635 93.4671 176.115 90.4996C174.672 89.7219 173.391 88.9443 172.163 88.1935C169.771 86.7366 167.521 85.369 164.519 84.3143C160.37 82.8752 156.813 83.6707 153.031 84.5288L152.35 84.6808L152.233 84.2964L152.905 84.1445C156.598 83.3132 160.406 82.4462 164.698 83.9478C167.745 85.0115 170.021 86.3969 172.441 87.8717C173.669 88.6225 174.941 89.4002 176.375 90.1599C181.823 93.0827 187.989 94.8346 192.873 94.8346H192.899C199.19 94.8346 207.22 93.8603 209.137 92.8682L209.379 93.2079C207.408 94.2268 199.253 95.2279 192.899 95.2279L192.89 95.2368Z" fill="url(#paint69_linear_275_21111)"/>
<path d="M209.755 92.9844C209.639 92.9755 197.989 92.0459 190.785 87.5053C190.614 87.3801 175.102 76.1895 163.157 78.0218C158.99 78.6654 155.71 80.8374 153.398 84.4752L152.986 84.2875C155.37 80.5424 158.766 78.3078 163.076 77.6375C175.237 75.7515 190.928 87.0852 191.08 87.2014C198.16 91.6705 209.684 92.5822 209.8 92.5911L209.755 92.9844Z" fill="url(#paint70_linear_275_21111)"/>
<path d="M190.292 97.0423C185.193 97.0423 180.345 96.9887 175.389 95.2279C172.764 94.2894 170.263 92.9665 167.853 91.6883C165.684 90.5353 163.444 89.3465 161.123 88.4437L160.245 88.1041C158.551 87.4516 156.848 86.7902 155.173 86.1377C154.922 86.0394 154.635 85.95 154.339 85.8606C153.64 85.6371 152.923 85.4137 152.413 85.0293L152.726 84.7344C153.165 85.0651 153.846 85.2796 154.51 85.4852C154.814 85.5835 155.11 85.6729 155.37 85.7801C157.046 86.4237 158.748 87.0851 160.442 87.7466L161.311 88.0862C163.668 88.9979 165.917 90.1956 168.104 91.3576C170.496 92.6268 172.979 93.9497 175.568 94.8703C180.452 96.6044 185.238 96.658 190.292 96.658H191.268C197.21 96.658 204.137 95.5139 206.296 94.7273C206.986 94.4771 207.596 94.0927 208.178 93.7352C208.483 93.5385 208.797 93.3508 209.119 93.1721L209.37 93.5028C209.057 93.6726 208.761 93.8603 208.456 94.048C207.847 94.4234 207.228 94.8167 206.485 95.0849C204.235 95.9072 197.362 97.0423 191.268 97.0423H190.292Z" fill="url(#paint71_linear_275_21111)"/>
<path d="M183.705 99.2591C178.409 99.2591 172.746 98.8658 167.297 97.4268C161.625 95.9341 152.081 92.5286 151.875 86.5043C151.902 82.8843 153.354 79.9704 156.185 77.8163C160.756 74.3393 168.149 73.5617 173.588 74.0265C182.173 74.7415 187.881 77.2442 193.957 82.9736C194.387 83.3848 194.826 83.8049 195.265 84.225C199.486 88.2651 203.841 92.4392 209.782 92.4392H210.41L210.15 92.9219C207.202 98.3474 195.866 98.839 190.408 99.0804L189.96 99.0982C187.962 99.1876 185.865 99.2502 183.705 99.2502V99.2591ZM152.682 86.4953C152.879 92.0907 162.073 95.3442 167.53 96.7832C175.076 98.7675 183.087 98.7318 189.906 98.4279L190.363 98.41C195.489 98.1865 205.974 97.7307 209.119 93.1186C203.16 92.8325 198.832 88.6941 194.656 84.6898C194.217 84.2697 193.787 83.8496 193.348 83.4474C187.344 77.7895 181.967 75.4208 173.498 74.7236C168.265 74.3035 161.105 75.0097 156.723 78.3436C154.071 80.3637 152.708 83.1077 152.682 86.5043V86.4953Z" fill="url(#paint72_linear_275_21111)"/>
<path d="M143.102 121.185C143.102 121.185 171.616 101.556 153.165 81.0519C152.565 80.3815 151.31 79.2911 149.679 78.5313C145.763 76.7168 136.399 74.8219 130.404 79.9525C129.812 80.462 128.244 82.1245 127.68 82.8932C126.156 85.0115 116.998 106.231 143.102 121.176V121.185Z" fill="#1C3232"/>
<path d="M143.102 121.292C143.048 121.292 143.003 121.265 142.985 121.229C136.945 109.583 136.703 98.0703 137.564 90.4639C138.496 82.2228 140.897 76.6632 140.924 76.6096C140.942 76.5649 140.996 76.5381 141.05 76.5381H141.068C141.13 76.547 141.175 76.5917 141.175 76.6453L143.236 121.185C143.236 121.238 143.191 121.283 143.138 121.292C143.129 121.292 143.12 121.292 143.111 121.292H143.102ZM140.942 77.2353C140.324 78.8352 138.585 83.7691 137.824 90.4818C136.972 97.9452 137.196 109.172 142.949 120.586L140.942 77.2263V77.2353Z" fill="url(#paint73_linear_275_21111)"/>
<path d="M143.102 121.292C143.102 121.292 143.021 121.274 142.994 121.247C142.931 121.185 136.91 114.561 133.567 105.793C130.475 97.6861 129.095 86.0396 140.118 76.565C140.171 76.5203 140.252 76.5203 140.306 76.565C140.351 76.6097 140.36 76.6812 140.306 76.7259C129.382 86.12 130.753 97.6771 133.818 105.731C137.151 114.463 143.155 121.06 143.209 121.131C143.254 121.176 143.245 121.247 143.182 121.283C143.155 121.301 143.138 121.301 143.102 121.301V121.292Z" fill="url(#paint74_linear_275_21111)"/>
<path d="M143.102 121.292C143.102 121.292 143.039 121.283 143.012 121.265C142.842 121.131 125.995 107.643 126.972 93.4315C127.42 86.9423 131.479 81.2665 139.033 76.5471C139.087 76.5024 139.168 76.5203 139.213 76.565C139.257 76.6186 139.239 76.6812 139.186 76.717C131.694 81.3917 127.671 87.0138 127.222 93.4315C126.255 107.545 143.003 120.961 143.182 121.086C143.236 121.131 143.236 121.203 143.182 121.247C143.156 121.265 143.12 121.283 143.084 121.283L143.102 121.292Z" fill="url(#paint75_linear_275_21111)"/>
<path d="M143.102 121.292C143.102 121.292 143.057 121.292 143.03 121.274C142.967 121.238 142.949 121.176 142.994 121.122C143.048 121.051 148.335 114.097 150.835 105.185C153.138 96.971 153.488 85.3692 142.044 76.7259C141.991 76.6812 141.982 76.6187 142.035 76.574C142.08 76.5293 142.17 76.5203 142.215 76.565C153.757 85.2888 153.407 96.98 151.086 105.248C148.568 114.195 143.263 121.185 143.209 121.247C143.191 121.283 143.147 121.301 143.102 121.301V121.292Z" fill="url(#paint76_linear_275_21111)"/>
<path d="M143.102 121.292C143.102 121.292 143.075 121.292 143.066 121.292C142.994 121.274 142.959 121.212 142.976 121.158C143.075 120.881 152.681 93.0919 140.933 76.7081C140.897 76.6545 140.915 76.5919 140.978 76.5561C141.041 76.5293 141.113 76.5383 141.157 76.5919C147.332 85.1994 147.565 96.8817 146.668 105.159C145.701 114.124 143.245 121.149 143.227 121.221C143.209 121.265 143.156 121.301 143.102 121.301V121.292Z" fill="url(#paint77_linear_275_21111)"/>
<path d="M143.102 121.292C143.102 121.292 143.039 121.283 143.012 121.265C142.967 121.22 142.958 121.149 143.012 121.104C143.147 120.988 156.812 109.172 155.952 95.6034C155.513 88.6048 151.328 82.3212 143.505 76.9404C143.451 76.9046 143.442 76.8331 143.487 76.7884C143.541 76.7348 143.622 76.7348 143.666 76.7705C151.543 82.196 155.764 88.5243 156.212 95.5945C157.072 109.261 143.335 121.149 143.191 121.265C143.164 121.283 143.129 121.292 143.102 121.292Z" fill="url(#paint78_linear_275_21111)"/>
<path d="M143.12 121.462L142.958 121.373C129.194 113.498 125.466 103.907 124.767 97.2571C124.014 90.1065 126.47 84.1537 127.456 82.795C128.038 81.9817 129.624 80.3102 130.216 79.8097C136.031 74.8311 145.315 76.2701 149.805 78.3438C151.391 79.0857 152.69 80.1583 153.371 80.927C162.987 91.6082 159.716 102.048 155.28 108.922C150.486 116.34 143.344 121.319 143.263 121.364L143.111 121.471L143.12 121.462ZM140.53 76.869C137.035 76.869 133.388 77.7181 130.592 80.1136C130.036 80.5962 128.468 82.2409 127.913 83.0185C127.321 83.8408 124.498 89.5971 125.296 97.2214C125.986 103.755 129.633 113.149 143.102 120.917C144.141 120.166 150.486 115.455 154.85 108.698C159.205 101.941 162.413 91.6886 152.968 81.1951C152.314 80.4711 151.077 79.4432 149.563 78.7371C147.385 77.7271 144.043 76.8779 140.539 76.8779L140.53 76.869Z" fill="url(#paint79_linear_275_21111)"/>
</g>
<defs>
<linearGradient id="paint0_linear_275_21111" x1="201.466" y1="84.5469" x2="81.9773" y2="84.5469" gradientUnits="userSpaceOnUse">
<stop stop-color="#C09440"/>
<stop offset="0.5" stop-color="#F5E283"/>
<stop offset="0.89" stop-color="#D3B058"/>
</linearGradient>
<linearGradient id="paint1_linear_275_21111" x1="294.009" y1="87.6753" x2="0" y2="87.6753" gradientUnits="userSpaceOnUse">
<stop stop-color="#C09440"/>
<stop offset="0.5" stop-color="#F5E283"/>
<stop offset="0.89" stop-color="#D3B058"/>
</linearGradient>
<linearGradient id="paint2_linear_275_21111" x1="241.218" y1="87.6665" x2="52.7817" y2="87.6665" gradientUnits="userSpaceOnUse">
<stop stop-color="#C09440"/>
<stop offset="0.5" stop-color="#F5E283"/>
<stop offset="0.89" stop-color="#D3B058"/>
</linearGradient>
<linearGradient id="paint3_linear_275_21111" x1="252.823" y1="87.6664" x2="41.1768" y2="87.6664" gradientUnits="userSpaceOnUse">
<stop stop-color="#C09440"/>
<stop offset="0.5" stop-color="#F5E283"/>
<stop offset="0.89" stop-color="#D3B058"/>
</linearGradient>
<linearGradient id="paint4_linear_275_21111" x1="199.364" y1="59.675" x2="203.317" y2="65.0637" gradientUnits="userSpaceOnUse">
<stop stop-color="#C09440"/>
<stop offset="0.5" stop-color="#F5E283"/>
<stop offset="0.89" stop-color="#D3B058"/>
</linearGradient>
<linearGradient id="paint5_linear_275_21111" x1="199.869" y1="60.3143" x2="206.467" y2="69.3099" gradientUnits="userSpaceOnUse">
<stop stop-color="#C09440"/>
<stop offset="0.5" stop-color="#F5E283"/>
<stop offset="0.89" stop-color="#D3B058"/>
</linearGradient>
<linearGradient id="paint6_linear_275_21111" x1="200.54" y1="61.1645" x2="209.043" y2="72.7571" gradientUnits="userSpaceOnUse">
<stop stop-color="#C09440"/>
<stop offset="0.5" stop-color="#F5E283"/>
<stop offset="0.89" stop-color="#D3B058"/>
</linearGradient>
<linearGradient id="paint7_linear_275_21111" x1="201.339" y1="62.4553" x2="194.016" y2="52.4715" gradientUnits="userSpaceOnUse">
<stop stop-color="#C09440"/>
<stop offset="0.5" stop-color="#F5E283"/>
<stop offset="0.89" stop-color="#D3B058"/>
</linearGradient>
<linearGradient id="paint8_linear_275_21111" x1="201.375" y1="62.4287" x2="197.184" y2="56.7154" gradientUnits="userSpaceOnUse">
<stop stop-color="#C09440"/>
<stop offset="0.5" stop-color="#F5E283"/>
<stop offset="0.89" stop-color="#D3B058"/>
</linearGradient>
<linearGradient id="paint9_linear_275_21111" x1="201.44" y1="62.3812" x2="191.931" y2="49.418" gradientUnits="userSpaceOnUse">
<stop stop-color="#C09440"/>
<stop offset="0.5" stop-color="#F5E283"/>
<stop offset="0.89" stop-color="#D3B058"/>
</linearGradient>
<linearGradient id="paint10_linear_275_21111" x1="189.869" y1="46.6909" x2="210.389" y2="74.666" gradientUnits="userSpaceOnUse">
<stop stop-color="#C09440"/>
<stop offset="0.5" stop-color="#F5E283"/>
<stop offset="0.89" stop-color="#D3B058"/>
</linearGradient>
<linearGradient id="paint11_linear_275_21111" x1="183.937" y1="50.9182" x2="190.113" y2="55.4265" gradientUnits="userSpaceOnUse">
<stop stop-color="#C09440"/>
<stop offset="0.5" stop-color="#F5E283"/>
<stop offset="0.89" stop-color="#D3B058"/>
</linearGradient>
<linearGradient id="paint12_linear_275_21111" x1="184.728" y1="51.4595" x2="195.163" y2="59.0771" gradientUnits="userSpaceOnUse">
<stop stop-color="#C09440"/>
<stop offset="0.5" stop-color="#F5E283"/>
<stop offset="0.89" stop-color="#D3B058"/>
</linearGradient>
<linearGradient id="paint13_linear_275_21111" x1="185.776" y1="52.1654" x2="199.262" y2="62.0107" gradientUnits="userSpaceOnUse">
<stop stop-color="#C09440"/>
<stop offset="0.5" stop-color="#F5E283"/>
<stop offset="0.89" stop-color="#D3B058"/>
</linearGradient>
<linearGradient id="paint14_linear_275_21111" x1="186.926" y1="53.2071" x2="175.37" y2="44.7713" gradientUnits="userSpaceOnUse">
<stop stop-color="#C09440"/>
<stop offset="0.5" stop-color="#F5E283"/>
<stop offset="0.89" stop-color="#D3B058"/>
</linearGradient>
<linearGradient id="paint15_linear_275_21111" x1="186.952" y1="53.171" x2="180.415" y2="48.3988" gradientUnits="userSpaceOnUse">
<stop stop-color="#C09440"/>
<stop offset="0.5" stop-color="#F5E283"/>
<stop offset="0.89" stop-color="#D3B058"/>
</linearGradient>
<linearGradient id="paint16_linear_275_21111" x1="187.012" y1="53.1041" x2="171.949" y2="42.1079" gradientUnits="userSpaceOnUse">
<stop stop-color="#C09440"/>
<stop offset="0.5" stop-color="#F5E283"/>
<stop offset="0.89" stop-color="#D3B058"/>
</linearGradient>
<linearGradient id="paint17_linear_275_21111" x1="168.652" y1="39.74" x2="201.425" y2="63.6645" gradientUnits="userSpaceOnUse">
<stop stop-color="#C09440"/>
<stop offset="0.5" stop-color="#F5E283"/>
<stop offset="0.89" stop-color="#D3B058"/>
</linearGradient>
<linearGradient id="paint18_linear_275_21111" x1="164.558" y1="43.7356" x2="171.371" y2="45.7487" gradientUnits="userSpaceOnUse">
<stop stop-color="#C09440"/>
<stop offset="0.5" stop-color="#F5E283"/>
<stop offset="0.89" stop-color="#D3B058"/>
</linearGradient>
<linearGradient id="paint19_linear_275_21111" x1="165.428" y1="43.9819" x2="178.549" y2="47.8584" gradientUnits="userSpaceOnUse">
<stop stop-color="#C09440"/>
<stop offset="0.5" stop-color="#F5E283"/>
<stop offset="0.89" stop-color="#D3B058"/>
</linearGradient>
<linearGradient id="paint20_linear_275_21111" x1="165.436" y1="43.9563" x2="184.167" y2="49.4905" gradientUnits="userSpaceOnUse">
<stop stop-color="#C09440"/>
<stop offset="0.5" stop-color="#F5E283"/>
<stop offset="0.89" stop-color="#D3B058"/>
</linearGradient>
<linearGradient id="paint21_linear_275_21111" x1="165.786" y1="44.1631" x2="151.755" y2="40.0176" gradientUnits="userSpaceOnUse">
<stop stop-color="#C09440"/>
<stop offset="0.5" stop-color="#F5E283"/>
<stop offset="0.89" stop-color="#D3B058"/>
</linearGradient>
<linearGradient id="paint22_linear_275_21111" x1="165.797" y1="44.1289" x2="158.648" y2="42.0168" gradientUnits="userSpaceOnUse">
<stop stop-color="#C09440"/>
<stop offset="0.5" stop-color="#F5E283"/>
<stop offset="0.89" stop-color="#D3B058"/>
</linearGradient>
<linearGradient id="paint23_linear_275_21111" x1="165.834" y1="44.0004" x2="146.957" y2="38.4231" gradientUnits="userSpaceOnUse">
<stop stop-color="#C09440"/>
<stop offset="0.5" stop-color="#F5E283"/>
<stop offset="0.89" stop-color="#D3B058"/>
</linearGradient>
<linearGradient id="paint24_linear_275_21111" x1="142.573" y1="37.1986" x2="187.14" y2="50.3663" gradientUnits="userSpaceOnUse">
<stop stop-color="#C09440"/>
<stop offset="0.5" stop-color="#F5E283"/>
<stop offset="0.89" stop-color="#D3B058"/>
</linearGradient>
<linearGradient id="paint25_linear_275_21111" x1="85.1958" y1="59.6626" x2="81.2432" y2="65.0513" gradientUnits="userSpaceOnUse">
<stop stop-color="#C09440"/>
<stop offset="0.5" stop-color="#F5E283"/>
<stop offset="0.89" stop-color="#D3B058"/>
</linearGradient>
<linearGradient id="paint26_linear_275_21111" x1="84.6928" y1="60.3145" x2="78.0999" y2="69.3029" gradientUnits="userSpaceOnUse">
<stop stop-color="#C09440"/>
<stop offset="0.5" stop-color="#F5E283"/>
<stop offset="0.89" stop-color="#D3B058"/>
</linearGradient>
<linearGradient id="paint27_linear_275_21111" x1="84.0198" y1="61.152" x2="75.5168" y2="72.7446" gradientUnits="userSpaceOnUse">
<stop stop-color="#C09440"/>
<stop offset="0.5" stop-color="#F5E283"/>
<stop offset="0.89" stop-color="#D3B058"/>
</linearGradient>
<linearGradient id="paint28_linear_275_21111" x1="83.2213" y1="62.4429" x2="90.5444" y2="52.459" gradientUnits="userSpaceOnUse">
<stop stop-color="#C09440"/>
<stop offset="0.5" stop-color="#F5E283"/>
<stop offset="0.89" stop-color="#D3B058"/>
</linearGradient>
<linearGradient id="paint29_linear_275_21111" x1="83.1851" y1="62.4163" x2="87.3705" y2="56.7102" gradientUnits="userSpaceOnUse">
<stop stop-color="#C09440"/>
<stop offset="0.5" stop-color="#F5E283"/>
<stop offset="0.89" stop-color="#D3B058"/>
</linearGradient>
<linearGradient id="paint30_linear_275_21111" x1="83.1203" y1="62.3689" x2="92.6287" y2="49.4057" gradientUnits="userSpaceOnUse">
<stop stop-color="#C09440"/>
<stop offset="0.5" stop-color="#F5E283"/>
<stop offset="0.89" stop-color="#D3B058"/>
</linearGradient>
<linearGradient id="paint31_linear_275_21111" x1="94.698" y1="46.6838" x2="74.1784" y2="74.6588" gradientUnits="userSpaceOnUse">
<stop stop-color="#C09440"/>
<stop offset="0.5" stop-color="#F5E283"/>
<stop offset="0.89" stop-color="#D3B058"/>
</linearGradient>
<linearGradient id="paint32_linear_275_21111" x1="100.679" y1="50.8785" x2="94.4958" y2="55.392" gradientUnits="userSpaceOnUse">
<stop stop-color="#C09440"/>
<stop offset="0.5" stop-color="#F5E283"/>
<stop offset="0.89" stop-color="#D3B058"/>
</linearGradient>
<linearGradient id="paint33_linear_275_21111" x1="99.8803" y1="51.4249" x2="89.4454" y2="59.0425" gradientUnits="userSpaceOnUse">
<stop stop-color="#C09440"/>
<stop offset="0.5" stop-color="#F5E283"/>
<stop offset="0.89" stop-color="#D3B058"/>
</linearGradient>
<linearGradient id="paint34_linear_275_21111" x1="98.8398" y1="52.1254" x2="85.3461" y2="61.976" gradientUnits="userSpaceOnUse">
<stop stop-color="#C09440"/>
<stop offset="0.5" stop-color="#F5E283"/>
<stop offset="0.89" stop-color="#D3B058"/>
</linearGradient>
<linearGradient id="paint35_linear_275_21111" x1="97.6826" y1="53.1724" x2="109.238" y2="44.7366" gradientUnits="userSpaceOnUse">
<stop stop-color="#C09440"/>
<stop offset="0.5" stop-color="#F5E283"/>
<stop offset="0.89" stop-color="#D3B058"/>
</linearGradient>
<linearGradient id="paint36_linear_275_21111" x1="97.6562" y1="53.1364" x2="104.201" y2="48.3589" gradientUnits="userSpaceOnUse">
<stop stop-color="#C09440"/>
<stop offset="0.5" stop-color="#F5E283"/>
<stop offset="0.89" stop-color="#D3B058"/>
</linearGradient>
<linearGradient id="paint37_linear_275_21111" x1="97.5961" y1="53.0694" x2="112.659" y2="42.0732" gradientUnits="userSpaceOnUse">
<stop stop-color="#C09440"/>
<stop offset="0.5" stop-color="#F5E283"/>
<stop offset="0.89" stop-color="#D3B058"/>
</linearGradient>
<linearGradient id="paint38_linear_275_21111" x1="115.956" y1="39.7054" x2="83.1834" y2="63.6299" gradientUnits="userSpaceOnUse">
<stop stop-color="#C09440"/>
<stop offset="0.5" stop-color="#F5E283"/>
<stop offset="0.89" stop-color="#D3B058"/>
</linearGradient>
<linearGradient id="paint39_linear_275_21111" x1="120.02" y1="43.7249" x2="113.207" y2="45.738" gradientUnits="userSpaceOnUse">
<stop stop-color="#C09440"/>
<stop offset="0.5" stop-color="#F5E283"/>
<stop offset="0.89" stop-color="#D3B058"/>
</linearGradient>
<linearGradient id="paint40_linear_275_21111" x1="119.147" y1="43.9629" x2="106.027" y2="47.8393" gradientUnits="userSpaceOnUse">
<stop stop-color="#C09440"/>
<stop offset="0.5" stop-color="#F5E283"/>
<stop offset="0.89" stop-color="#D3B058"/>
</linearGradient>
<linearGradient id="paint41_linear_275_21111" x1="119.139" y1="43.9372" x2="100.408" y2="49.4713" gradientUnits="userSpaceOnUse">
<stop stop-color="#C09440"/>
<stop offset="0.5" stop-color="#F5E283"/>
<stop offset="0.89" stop-color="#D3B058"/>
</linearGradient>
<linearGradient id="paint42_linear_275_21111" x1="118.789" y1="44.144" x2="132.82" y2="39.9985" gradientUnits="userSpaceOnUse">
<stop stop-color="#C09440"/>
<stop offset="0.5" stop-color="#F5E283"/>
<stop offset="0.89" stop-color="#D3B058"/>
</linearGradient>
<linearGradient id="paint43_linear_275_21111" x1="118.779" y1="44.1096" x2="125.928" y2="41.9975" gradientUnits="userSpaceOnUse">
<stop stop-color="#C09440"/>
<stop offset="0.5" stop-color="#F5E283"/>
<stop offset="0.89" stop-color="#D3B058"/>
</linearGradient>
<linearGradient id="paint44_linear_275_21111" x1="118.741" y1="43.9811" x2="137.626" y2="38.4013" gradientUnits="userSpaceOnUse">
<stop stop-color="#C09440"/>
<stop offset="0.5" stop-color="#F5E283"/>
<stop offset="0.89" stop-color="#D3B058"/>
</linearGradient>
<linearGradient id="paint45_linear_275_21111" x1="142.003" y1="37.1795" x2="97.4435" y2="50.3446" gradientUnits="userSpaceOnUse">
<stop stop-color="#C09440"/>
<stop offset="0.5" stop-color="#F5E283"/>
<stop offset="0.89" stop-color="#D3B058"/>
</linearGradient>
<linearGradient id="paint46_linear_275_21111" x1="139.652" y1="42.5371" x2="147.941" y2="42.5371" gradientUnits="userSpaceOnUse">
<stop stop-color="#C09440"/>
<stop offset="0.5" stop-color="#F5E283"/>
<stop offset="0.89" stop-color="#D3B058"/>
</linearGradient>
<linearGradient id="paint47_linear_275_21111" x1="139.652" y1="42.546" x2="155.961" y2="42.546" gradientUnits="userSpaceOnUse">
<stop stop-color="#C09440"/>
<stop offset="0.5" stop-color="#F5E283"/>
<stop offset="0.89" stop-color="#D3B058"/>
</linearGradient>
<linearGradient id="paint48_linear_275_21111" x1="139.652" y1="42.5461" x2="162.028" y2="42.5461" gradientUnits="userSpaceOnUse">
<stop stop-color="#C09440"/>
<stop offset="0.5" stop-color="#F5E283"/>
<stop offset="0.89" stop-color="#D3B058"/>
</linearGradient>
<linearGradient id="paint49_linear_275_21111" x1="141.399" y1="42.546" x2="127.115" y2="42.546" gradientUnits="userSpaceOnUse">
<stop stop-color="#C09440"/>
<stop offset="0.5" stop-color="#F5E283"/>
<stop offset="0.89" stop-color="#D3B058"/>
</linearGradient>
<linearGradient id="paint50_linear_275_21111" x1="142.887" y1="42.537" x2="134.454" y2="42.537" gradientUnits="userSpaceOnUse">
<stop stop-color="#C09440"/>
<stop offset="0.5" stop-color="#F5E283"/>
<stop offset="0.89" stop-color="#D3B058"/>
</linearGradient>
<linearGradient id="paint51_linear_275_21111" x1="140.073" y1="42.3405" x2="121.819" y2="42.3405" gradientUnits="userSpaceOnUse">
<stop stop-color="#C09440"/>
<stop offset="0.5" stop-color="#F5E283"/>
<stop offset="0.89" stop-color="#D3B058"/>
</linearGradient>
<linearGradient id="paint52_linear_275_21111" x1="117.222" y1="42.4745" x2="165.218" y2="42.4745" gradientUnits="userSpaceOnUse">
<stop stop-color="#C09440"/>
<stop offset="0.5" stop-color="#F5E283"/>
<stop offset="0.89" stop-color="#D3B058"/>
</linearGradient>
<linearGradient id="paint53_linear_275_21111" x1="59.1601" y1="69.3471" x2="114.205" y2="84.5585" gradientUnits="userSpaceOnUse">
<stop stop-color="#C09440"/>
<stop offset="0.5" stop-color="#F5E283"/>
<stop offset="0.89" stop-color="#D3B058"/>
</linearGradient>
<linearGradient id="paint54_linear_275_21111" x1="58.4526" y1="71.4704" x2="113.533" y2="86.6913" gradientUnits="userSpaceOnUse">
<stop stop-color="#C09440"/>
<stop offset="0.5" stop-color="#F5E283"/>
<stop offset="0.89" stop-color="#D3B058"/>
</linearGradient>
<linearGradient id="paint55_linear_275_21111" x1="59.1162" y1="67.5548" x2="113.825" y2="82.6731" gradientUnits="userSpaceOnUse">
<stop stop-color="#C09440"/>
<stop offset="0.5" stop-color="#F5E283"/>
<stop offset="0.89" stop-color="#D3B058"/>
</linearGradient>
<linearGradient id="paint56_linear_275_21111" x1="57.9914" y1="73.1052" x2="112.864" y2="88.2688" gradientUnits="userSpaceOnUse">
<stop stop-color="#C09440"/>
<stop offset="0.5" stop-color="#F5E283"/>
<stop offset="0.89" stop-color="#D3B058"/>
</linearGradient>
<linearGradient id="paint57_linear_275_21111" x1="58.1347" y1="68.685" x2="114.527" y2="84.2687" gradientUnits="userSpaceOnUse">
<stop stop-color="#C09440"/>
<stop offset="0.5" stop-color="#F5E283"/>
<stop offset="0.89" stop-color="#D3B058"/>
</linearGradient>
<linearGradient id="paint58_linear_275_21111" x1="78.384" y1="86.9155" x2="135.503" y2="86.9155" gradientUnits="userSpaceOnUse">
<stop stop-color="#C09440"/>
<stop offset="0.5" stop-color="#F5E283"/>
<stop offset="0.89" stop-color="#D3B058"/>
</linearGradient>
<linearGradient id="paint59_linear_275_21111" x1="78.2585" y1="89.186" x2="135.404" y2="89.186" gradientUnits="userSpaceOnUse">
<stop stop-color="#C09440"/>
<stop offset="0.5" stop-color="#F5E283"/>
<stop offset="0.89" stop-color="#D3B058"/>
</linearGradient>
<linearGradient id="paint60_linear_275_21111" x1="77.8193" y1="85.2083" x2="134.642" y2="85.2083" gradientUnits="userSpaceOnUse">
<stop stop-color="#C09440"/>
<stop offset="0.5" stop-color="#F5E283"/>
<stop offset="0.89" stop-color="#D3B058"/>
</linearGradient>
<linearGradient id="paint61_linear_275_21111" x1="78.2585" y1="90.893" x2="135.216" y2="90.893" gradientUnits="userSpaceOnUse">
<stop stop-color="#C09440"/>
<stop offset="0.5" stop-color="#F5E283"/>
<stop offset="0.89" stop-color="#D3B058"/>
</linearGradient>
<linearGradient id="paint62_linear_275_21111" x1="77.21" y1="86.5848" x2="135.754" y2="86.5848" gradientUnits="userSpaceOnUse">
<stop stop-color="#C09440"/>
<stop offset="0.5" stop-color="#F5E283"/>
<stop offset="0.89" stop-color="#D3B058"/>
</linearGradient>
<linearGradient id="paint63_linear_275_21111" x1="228.457" y1="69.3182" x2="173.412" y2="84.5296" gradientUnits="userSpaceOnUse">
<stop stop-color="#C09440"/>
<stop offset="0.5" stop-color="#F5E283"/>
<stop offset="0.89" stop-color="#D3B058"/>
</linearGradient>
<linearGradient id="paint64_linear_275_21111" x1="229.165" y1="71.4416" x2="174.085" y2="86.6625" gradientUnits="userSpaceOnUse">
<stop stop-color="#C09440"/>
<stop offset="0.5" stop-color="#F5E283"/>
<stop offset="0.89" stop-color="#D3B058"/>
</linearGradient>
<linearGradient id="paint65_linear_275_21111" x1="228.501" y1="67.5258" x2="173.793" y2="82.6441" gradientUnits="userSpaceOnUse">
<stop stop-color="#C09440"/>
<stop offset="0.5" stop-color="#F5E283"/>
<stop offset="0.89" stop-color="#D3B058"/>
</linearGradient>
<linearGradient id="paint66_linear_275_21111" x1="229.624" y1="73.0676" x2="174.751" y2="88.2312" gradientUnits="userSpaceOnUse">
<stop stop-color="#C09440"/>
<stop offset="0.5" stop-color="#F5E283"/>
<stop offset="0.89" stop-color="#D3B058"/>
</linearGradient>
<linearGradient id="paint67_linear_275_21111" x1="229.483" y1="68.6561" x2="173.09" y2="84.2397" gradientUnits="userSpaceOnUse">
<stop stop-color="#C09440"/>
<stop offset="0.5" stop-color="#F5E283"/>
<stop offset="0.89" stop-color="#D3B058"/>
</linearGradient>
<linearGradient id="paint68_linear_275_21111" x1="209.245" y1="86.9153" x2="152.126" y2="86.9153" gradientUnits="userSpaceOnUse">
<stop stop-color="#C09440"/>
<stop offset="0.5" stop-color="#F5E283"/>
<stop offset="0.89" stop-color="#D3B058"/>
</linearGradient>
<linearGradient id="paint69_linear_275_21111" x1="209.37" y1="89.1856" x2="152.224" y2="89.1856" gradientUnits="userSpaceOnUse">
<stop stop-color="#C09440"/>
<stop offset="0.5" stop-color="#F5E283"/>
<stop offset="0.89" stop-color="#D3B058"/>
</linearGradient>
<linearGradient id="paint70_linear_275_21111" x1="209.809" y1="85.2082" x2="152.986" y2="85.2082" gradientUnits="userSpaceOnUse">
<stop stop-color="#C09440"/>
<stop offset="0.5" stop-color="#F5E283"/>
<stop offset="0.89" stop-color="#D3B058"/>
</linearGradient>
<linearGradient id="paint71_linear_275_21111" x1="209.37" y1="90.8928" x2="152.413" y2="90.8928" gradientUnits="userSpaceOnUse">
<stop stop-color="#C09440"/>
<stop offset="0.5" stop-color="#F5E283"/>
<stop offset="0.89" stop-color="#D3B058"/>
</linearGradient>
<linearGradient id="paint72_linear_275_21111" x1="210.41" y1="86.5847" x2="151.875" y2="86.5847" gradientUnits="userSpaceOnUse">
<stop stop-color="#C09440"/>
<stop offset="0.5" stop-color="#F5E283"/>
<stop offset="0.89" stop-color="#D3B058"/>
</linearGradient>
<linearGradient id="paint73_linear_275_21111" x1="143.236" y1="98.9195" x2="137.196" y2="98.9195" gradientUnits="userSpaceOnUse">
<stop stop-color="#C09440"/>
<stop offset="0.5" stop-color="#F5E283"/>
<stop offset="0.89" stop-color="#D3B058"/>
</linearGradient>
<linearGradient id="paint74_linear_275_21111" x1="143.236" y1="98.9196" x2="131.363" y2="98.9196" gradientUnits="userSpaceOnUse">
<stop stop-color="#C09440"/>
<stop offset="0.5" stop-color="#F5E283"/>
<stop offset="0.89" stop-color="#D3B058"/>
</linearGradient>
<linearGradient id="paint75_linear_275_21111" x1="143.236" y1="98.9196" x2="126.936" y2="98.9196" gradientUnits="userSpaceOnUse">
<stop stop-color="#C09440"/>
<stop offset="0.5" stop-color="#F5E283"/>
<stop offset="0.89" stop-color="#D3B058"/>
</linearGradient>
<linearGradient id="paint76_linear_275_21111" x1="142.009" y1="98.9196" x2="152.395" y2="98.9196" gradientUnits="userSpaceOnUse">
<stop stop-color="#C09440"/>
<stop offset="0.5" stop-color="#F5E283"/>
<stop offset="0.89" stop-color="#D3B058"/>
</linearGradient>
<linearGradient id="paint77_linear_275_21111" x1="140.915" y1="98.9196" x2="147.054" y2="98.9196" gradientUnits="userSpaceOnUse">
<stop stop-color="#C09440"/>
<stop offset="0.5" stop-color="#F5E283"/>
<stop offset="0.89" stop-color="#D3B058"/>
</linearGradient>
<linearGradient id="paint78_linear_275_21111" x1="142.976" y1="99.0268" x2="156.257" y2="99.0268" gradientUnits="userSpaceOnUse">
<stop stop-color="#C09440"/>
<stop offset="0.5" stop-color="#F5E283"/>
<stop offset="0.89" stop-color="#D3B058"/>
</linearGradient>
<linearGradient id="paint79_linear_275_21111" x1="159.608" y1="98.9465" x2="124.633" y2="98.9465" gradientUnits="userSpaceOnUse">
<stop stop-color="#C09440"/>
<stop offset="0.5" stop-color="#F5E283"/>
<stop offset="0.89" stop-color="#D3B058"/>
</linearGradient>
<clipPath id="clip0_275_21111">
<rect width="294" height="132" fill="white"/>
</clipPath>
</defs>
</svg>
