<svg width="559" height="262" viewBox="0 0 559 262" fill="none" xmlns="http://www.w3.org/2000/svg">
<path d="M123.186 211.477C123.186 211.477 122.799 211.242 122.399 210.784L142.072 216.076L130.245 206.021L129.963 205.339L129.658 204.974C119.111 188.862 118.805 172.939 119.839 167.141L115.611 160.05L111.347 159.32C110.196 158.227 79.8117 132.06 46.8549 126.521L40.7827 125.498L41.4639 131.625C42.0394 136.788 47.6888 182.359 68.3015 190.673L68.4659 190.732C92.79 199.47 120.238 209.713 123.163 211.489L123.186 211.477Z" fill="url(#paint0_radial_331_105)"/>
<path d="M40.7942 125.486C40.7942 125.486 51.7054 182.853 80.751 192.92C80.751 192.92 133.216 211.842 133.874 213.453C133.874 213.453 112.357 177.337 114.354 166.071C114.354 166.071 72.7409 130.849 40.7942 125.486Z" fill="url(#paint1_linear_331_105)"/>
<path d="M205.12 329.728C228 329.728 271.398 312.781 277.458 288.261L283.295 285.109L263.117 273.208C251.842 266.151 249.564 262.8 247.72 259.389L233.708 259.625L229.186 257.684C228.728 257.484 182.934 237.715 164.365 217.758L163.742 217.088L162.92 216.699C161.264 207.773 70.5329 174.08 0.825684 169.176L2.17637 175.962C2.42302 177.22 8.60094 207.256 33.712 237.621C56.8264 265.575 125.911 329.704 205.12 329.704V329.728Z" fill="url(#paint2_radial_331_105)"/>
<path d="M0.837429 169.2C15.0607 246.853 205.226 396.432 264.738 281.616C264.738 281.616 234.788 266.81 237.783 260.777C237.783 260.777 180.444 241.855 160.97 220.933C160.97 220.933 96.1724 187.699 0.825684 169.188L0.837429 169.2Z" fill="url(#paint3_linear_331_105)"/>
<path d="M441.549 211.477C441.549 211.477 441.937 211.242 442.336 210.784L422.663 216.076L434.49 206.021L434.772 205.339L435.078 204.974C445.625 188.862 445.93 172.939 444.897 167.141L449.125 160.05L453.388 159.32C454.551 158.227 484.924 132.06 517.881 126.521L523.953 125.498L523.272 131.625C522.696 136.788 517.047 182.359 496.434 190.673L496.27 190.732C471.946 199.47 444.497 209.713 441.573 211.489L441.549 211.477Z" fill="url(#paint4_radial_331_105)"/>
<path d="M523.941 125.486C523.941 125.486 513.03 182.853 483.984 192.92C483.984 192.92 431.53 211.842 430.861 213.453C430.861 213.453 452.378 177.337 450.381 166.071C450.381 166.071 491.994 130.849 523.941 125.486Z" fill="url(#paint5_linear_331_105)"/>
<path d="M361.553 146.843C358.452 136.494 351.769 113.338 348.504 109.551C343.841 104.141 343.407 84.6663 371.642 64.4738L375.859 61.4514C375.859 61.4514 395.696 78.4568 396.694 113.62C396.882 120.265 401.792 101.06 394.334 123.722L398.808 133.236L393.899 125.486C388.144 134.883 390.364 139.975 389.859 143.127C389.882 142.962 382.776 152.947 382.776 152.829L361.541 146.843H361.553Z" fill="url(#paint6_linear_331_105)"/>
<path d="M375.025 65.7087C375.025 65.7087 399.302 95.2859 391.127 118.336C391.127 118.336 373.486 147.478 373.486 151.3C373.486 151.3 358.171 115.02 353.672 109.598C349.186 104.165 354.048 86.0305 375.013 65.7205L375.025 65.7087Z" fill="url(#paint7_linear_331_105)"/>
<path d="M354.705 329.728C331.826 329.728 288.428 312.781 282.356 288.261L276.518 285.109L296.696 273.208C307.972 266.151 310.25 262.8 312.094 259.389L326.106 259.625L330.628 257.684C331.086 257.484 376.88 237.715 395.449 217.758L396.072 217.088L396.894 216.699C398.55 207.773 489.281 174.08 558.988 169.176L557.637 175.962C557.391 177.22 551.213 207.256 526.102 237.621C502.976 265.575 433.903 329.704 354.694 329.704L354.705 329.728Z" fill="url(#paint8_radial_331_105)"/>
<path d="M558.988 169.2C541.864 241.608 367.52 393.739 295.088 281.616C295.088 281.616 325.038 266.81 322.043 260.777C322.043 260.777 379.382 241.855 398.856 220.933C398.856 220.933 463.653 187.699 559 169.188L558.988 169.2Z" fill="url(#paint9_linear_331_105)"/>
<path d="M363.045 247.217C359.603 246.582 390.117 202.951 373.956 152.77L373.486 151.3L369.375 146.843C370.28 144.22 396.554 85.4657 440.609 62.345L445.354 59.8518L447.151 64.9087C447.656 66.32 459.425 100.072 456.642 140.398C454.046 178.055 444.274 234.057 355.833 262.752L363.045 247.217Z" fill="url(#paint10_radial_331_105)"/>
<path d="M442.77 66.4615C442.77 66.4615 488.4 216.064 358.582 253.145C358.582 253.145 392.819 199.529 375.847 146.831C375.847 146.831 399.842 88.9824 442.77 66.4497V66.4615Z" fill="url(#paint11_linear_331_105)"/>
<path d="M203.182 146.843C206.283 136.494 212.966 113.338 216.219 109.551C220.882 104.141 221.316 84.6663 193.081 64.4738L188.865 61.4514C188.865 61.4514 169.027 78.4568 168.029 113.62C167.841 120.265 162.943 101.06 170.39 123.722L165.915 133.236L170.824 125.486C176.579 134.883 174.36 139.975 174.865 143.127C174.841 142.962 181.947 152.947 181.947 152.829L203.182 146.843Z" fill="url(#paint12_linear_331_105)"/>
<path d="M189.711 65.7087C189.711 65.7087 165.657 94.6861 173.831 117.736C173.831 117.736 191.249 147.478 191.249 151.3C191.249 151.3 211.733 114.984 216.219 109.551C214.035 95.9562 210.676 86.0305 189.711 65.7087Z" fill="url(#paint13_linear_331_105)"/>
<path d="M201.69 247.217C205.132 246.582 174.618 202.951 190.779 152.77L191.249 151.3L195.36 146.843C194.455 144.22 168.182 85.4657 124.126 62.345L119.381 59.8518L117.584 64.9087C117.079 66.32 105.31 100.072 108.094 140.398C110.689 178.055 120.461 234.057 208.902 262.752L201.69 247.217Z" fill="url(#paint14_radial_331_105)"/>
<path d="M120.767 64.8033C120.767 64.8033 76.0063 211.313 202.254 251.345C202.254 251.345 169.509 204.257 189.123 146.831C189.123 146.831 164.224 85.666 120.767 64.7915V64.8033Z" fill="url(#paint15_linear_331_105)"/>
<path d="M282.367 292.906C222.984 292.906 176.497 243.477 178.658 184.97C180.667 130.379 275.814 10.4235 279.678 5.56651L283.495 0.768311L287.265 5.6018C291.047 10.4588 384.08 130.402 386.088 184.958C388.25 243.466 341.751 292.894 282.367 292.894V292.906Z" fill="url(#paint16_radial_331_105)"/>
<path d="M374.649 192.026C374.649 245.171 333.33 288.249 282.368 288.249C231.406 288.249 190.086 245.171 190.086 192.026C190.086 138.881 283.448 8.80029 283.448 8.80029C283.448 8.80029 374.649 138.881 374.649 192.026Z" fill="url(#paint17_radial_331_105)"/>
<path d="M378.055 192.026C378.055 245.171 335.209 288.249 282.368 288.249C229.527 288.249 186.68 245.171 186.68 192.026C186.68 138.881 283.495 8.80029 283.495 8.80029C283.495 8.80029 378.055 138.881 378.055 192.026Z" fill="url(#paint18_linear_331_105)"/>
<defs>
<radialGradient id="paint0_radial_331_105" cx="0" cy="0" r="1" gradientUnits="userSpaceOnUse" gradientTransform="translate(91.4276 170.775) rotate(180) scale(48.014 48.0761)">
<stop offset="0.02" stop-color="#FAF4B8"/>
<stop offset="0.03" stop-color="#FAE99B"/>
<stop offset="0.04" stop-color="#FBE182"/>
<stop offset="0.05" stop-color="#FBDA6F"/>
<stop offset="0.06" stop-color="#FBD562"/>
<stop offset="0.07" stop-color="#FBD25A"/>
<stop offset="0.09" stop-color="#FCD258"/>
<stop offset="0.66" stop-color="#B17811"/>
<stop offset="0.78" stop-color="#E6BA3B"/>
<stop offset="1" stop-color="#C99E43"/>
</radialGradient>
<linearGradient id="paint1_linear_331_105" x1="87.3283" y1="37.5193" x2="87.3283" y2="344.698" gradientUnits="userSpaceOnUse">
<stop stop-color="#C6910C"/>
<stop offset="0.17" stop-color="#B7820B"/>
<stop offset="0.72" stop-color="#8C560A"/>
<stop offset="1" stop-color="#7C460A"/>
</linearGradient>
<radialGradient id="paint2_radial_331_105" cx="0" cy="0" r="1" gradientUnits="userSpaceOnUse" gradientTransform="translate(142.072 249.464) rotate(-180) scale(114.832 114.981)">
<stop offset="0.02" stop-color="#FAF4B8"/>
<stop offset="0.03" stop-color="#FAE99B"/>
<stop offset="0.04" stop-color="#FBE182"/>
<stop offset="0.05" stop-color="#FBDA6F"/>
<stop offset="0.06" stop-color="#FBD562"/>
<stop offset="0.07" stop-color="#FBD25A"/>
<stop offset="0.09" stop-color="#FCD258"/>
<stop offset="0.66" stop-color="#B17811"/>
<stop offset="0.78" stop-color="#E6BA3B"/>
<stop offset="1" stop-color="#C99E43"/>
</radialGradient>
<linearGradient id="paint3_linear_331_105" x1="12.5708" y1="167.153" x2="266.604" y2="340.782" gradientUnits="userSpaceOnUse">
<stop stop-color="#C6910C"/>
<stop offset="0.17" stop-color="#B7820B"/>
<stop offset="0.72" stop-color="#8C560A"/>
<stop offset="1" stop-color="#7C460A"/>
</linearGradient>
<radialGradient id="paint4_radial_331_105" cx="0" cy="0" r="1" gradientUnits="userSpaceOnUse" gradientTransform="translate(473.296 -48.2725) scale(48.014 48.0761)">
<stop offset="0.02" stop-color="#FAF4B8"/>
<stop offset="0.03" stop-color="#FAE99B"/>
<stop offset="0.04" stop-color="#FBE182"/>
<stop offset="0.05" stop-color="#FBDA6F"/>
<stop offset="0.06" stop-color="#FBD562"/>
<stop offset="0.07" stop-color="#FBD25A"/>
<stop offset="0.09" stop-color="#FCD258"/>
<stop offset="0.66" stop-color="#B17811"/>
<stop offset="0.78" stop-color="#E6BA3B"/>
<stop offset="1" stop-color="#C99E43"/>
</radialGradient>
<linearGradient id="paint5_linear_331_105" x1="477.395" y1="37.5193" x2="477.395" y2="344.698" gradientUnits="userSpaceOnUse">
<stop stop-color="#C6910C"/>
<stop offset="0.17" stop-color="#B7820B"/>
<stop offset="0.72" stop-color="#8C560A"/>
<stop offset="1" stop-color="#7C460A"/>
</linearGradient>
<linearGradient id="paint6_linear_331_105" x1="376.552" y1="62.0512" x2="371.806" y2="125.615" gradientUnits="userSpaceOnUse">
<stop offset="0.18" stop-color="#FCD258"/>
<stop offset="1" stop-color="#B17811"/>
</linearGradient>
<linearGradient id="paint7_linear_331_105" x1="372.476" y1="37.6016" x2="372.476" y2="344.769" gradientUnits="userSpaceOnUse">
<stop stop-color="#C6910C"/>
<stop offset="0.17" stop-color="#B7820B"/>
<stop offset="0.72" stop-color="#8C560A"/>
<stop offset="1" stop-color="#7C460A"/>
</linearGradient>
<radialGradient id="paint8_radial_331_105" cx="0" cy="0" r="1" gradientUnits="userSpaceOnUse" gradientTransform="translate(417.765 249.464) scale(114.832 114.981)">
<stop offset="0.2" stop-color="#B17811"/>
<stop offset="0.6" stop-color="#E6BA3B"/>
<stop offset="0.91" stop-color="#FCD258"/>
</radialGradient>
<linearGradient id="paint9_linear_331_105" x1="550.015" y1="219.134" x2="323.12" y2="288.297" gradientUnits="userSpaceOnUse">
<stop stop-color="#C6910C"/>
<stop offset="0.17" stop-color="#B7820B"/>
<stop offset="0.72" stop-color="#8C560A"/>
<stop offset="1" stop-color="#7C460A"/>
</linearGradient>
<radialGradient id="paint10_radial_331_105" cx="0" cy="0" r="1" gradientUnits="userSpaceOnUse" gradientTransform="translate(406.443 161.308) scale(80.0899 80.1935)">
<stop offset="0.2" stop-color="#B17811"/>
<stop offset="0.6" stop-color="#E6BA3B"/>
<stop offset="0.91" stop-color="#FCD258"/>
</radialGradient>
<linearGradient id="paint11_linear_331_105" x1="462.49" y1="61.5809" x2="368.245" y2="240.531" gradientUnits="userSpaceOnUse">
<stop stop-color="#C6910C"/>
<stop offset="0.17" stop-color="#B7820B"/>
<stop offset="0.72" stop-color="#8C560A"/>
<stop offset="1" stop-color="#7C460A"/>
</linearGradient>
<linearGradient id="paint12_linear_331_105" x1="171.388" y1="69.1779" x2="197.741" y2="126.201" gradientUnits="userSpaceOnUse">
<stop offset="0.39" stop-color="#FCD258"/>
<stop offset="1" stop-color="#B17811"/>
</linearGradient>
<linearGradient id="paint13_linear_331_105" x1="172.14" y1="108.504" x2="216.219" y2="108.504" gradientUnits="userSpaceOnUse">
<stop stop-color="#C6910C"/>
<stop offset="0.17" stop-color="#B7820B"/>
<stop offset="0.72" stop-color="#8C560A"/>
<stop offset="1" stop-color="#7C460A"/>
</linearGradient>
<radialGradient id="paint14_radial_331_105" cx="0" cy="0" r="1" gradientUnits="userSpaceOnUse" gradientTransform="translate(158.28 161.308) rotate(180) scale(80.0899 80.1935)">
<stop offset="0.02" stop-color="#FAF4B8"/>
<stop offset="0.03" stop-color="#FAE99B"/>
<stop offset="0.04" stop-color="#FBE182"/>
<stop offset="0.05" stop-color="#FBDA6F"/>
<stop offset="0.06" stop-color="#FBD562"/>
<stop offset="0.07" stop-color="#FBD25A"/>
<stop offset="0.09" stop-color="#FCD258"/>
<stop offset="0.66" stop-color="#B17811"/>
<stop offset="0.78" stop-color="#E6BA3B"/>
<stop offset="1" stop-color="#C99E43"/>
</radialGradient>
<linearGradient id="paint15_linear_331_105" x1="99.1559" y1="66.4262" x2="260.562" y2="341.153" gradientUnits="userSpaceOnUse">
<stop stop-color="#C6910C"/>
<stop offset="0.17" stop-color="#B7820B"/>
<stop offset="0.72" stop-color="#8C560A"/>
<stop offset="1" stop-color="#7C460A"/>
</linearGradient>
<radialGradient id="paint16_radial_331_105" cx="0" cy="0" r="1" gradientUnits="userSpaceOnUse" gradientTransform="translate(284.963 319.226) scale(297.903 298.288)">
<stop offset="0.02" stop-color="#FAF4B8"/>
<stop offset="0.03" stop-color="#FAE99B"/>
<stop offset="0.04" stop-color="#FBE182"/>
<stop offset="0.05" stop-color="#FBDA6F"/>
<stop offset="0.06" stop-color="#FBD562"/>
<stop offset="0.07" stop-color="#FBD25A"/>
<stop offset="0.09" stop-color="#FCD258"/>
<stop offset="0.66" stop-color="#B17811"/>
<stop offset="0.78" stop-color="#E6BA3B"/>
<stop offset="1" stop-color="#C99E43"/>
</radialGradient>
<radialGradient id="paint17_radial_331_105" cx="0" cy="0" r="1" gradientUnits="userSpaceOnUse" gradientTransform="translate(287.524 13.7867) scale(308.051 308.449)">
<stop stop-color="#6D3602"/>
<stop offset="0.29" stop-color="#632F01"/>
<stop offset="0.79" stop-color="#481D00"/>
<stop offset="1" stop-color="#3B1400"/>
</radialGradient>
<linearGradient id="paint18_linear_331_105" x1="282.368" y1="15.9741" x2="282.368" y2="283.321" gradientUnits="userSpaceOnUse">
<stop stop-color="#C6910C"/>
<stop offset="0.17" stop-color="#B7820B"/>
<stop offset="0.72" stop-color="#8C560A"/>
<stop offset="1" stop-color="#7C460A"/>
</linearGradient>
</defs>
</svg>
