<svg width="96" height="96" viewBox="0 0 96 96" fill="none" xmlns="http://www.w3.org/2000/svg">
<circle cx="48" cy="48" r="48" fill="white"/>
<path d="M63.0751 46.3926L40.8987 33.2692C40.6087 33.0977 40.2775 33.0049 39.9389 33.0002C39.6003 32.9955 39.2666 33.079 38.9717 33.2423C38.6769 33.4057 38.4315 33.6428 38.2608 33.9296C38.0901 34.2164 38.0001 34.5426 38 34.8747V61.1214C37.9986 61.4542 38.0877 61.7813 38.2581 62.069C38.4285 62.3568 38.6741 62.5947 38.9696 62.7583C39.265 62.9219 39.5996 63.0053 39.9388 62.9997C40.2781 62.9942 40.6097 62.9 40.8994 62.7269L63.0758 49.6036C63.3578 49.4367 63.5911 49.2012 63.753 48.9199C63.9149 48.6386 64 48.3211 64 47.9981C64 47.675 63.9149 47.3575 63.753 47.0762C63.5911 46.7949 63.3578 46.5594 63.0758 46.3926H63.0751Z" fill="black"/>
</svg>
