<svg width="24" height="24" viewBox="0 0 24 24" fill="none" xmlns="http://www.w3.org/2000/svg">
<path id="Vector (Stroke)" fill-rule="evenodd" clip-rule="evenodd" d="M13.9983 2.37585C13.6294 2.37585 13.2665 2.46916 12.9433 2.64709C12.6201 2.82503 12.3472 3.0818 12.1499 3.39354C11.9526 3.70528 11.8374 4.06186 11.8149 4.43009C11.7924 4.79833 11.8634 5.16627 12.0213 5.49969C12.1497 5.77076 12.1303 6.08871 11.9699 6.34216C11.8095 6.5956 11.5305 6.74923 11.2305 6.74923L6.12333 6.74917L6.12338 11.4189C6.12339 11.7188 5.96976 11.9979 5.71631 12.1583C5.46286 12.3187 5.14492 12.3381 4.87385 12.2097C4.54043 12.0518 4.17249 11.9808 3.80425 12.0032C3.43601 12.0257 3.07943 12.1409 2.76769 12.3382C2.45595 12.5355 2.19917 12.8085 2.02124 13.1316C1.84331 13.4548 1.75 13.8177 1.75 14.1867C1.75 14.5556 1.84331 14.9185 2.02124 15.2417C2.19917 15.5649 2.45595 15.8378 2.76769 16.0351C3.07943 16.2324 3.43601 16.3476 3.80425 16.3701C4.17249 16.3926 4.54043 16.3216 4.87385 16.1636C5.14492 16.0353 5.46286 16.0547 5.71631 16.2151C5.96976 16.3755 6.12339 16.6545 6.12338 16.9544L6.12333 21.6242L21.8733 21.6242L21.8733 18.1C21.6498 18.1249 21.4237 18.1307 21.1976 18.1169C20.5348 18.0764 19.8929 17.869 19.3318 17.5139C18.7707 17.1587 18.3085 16.6675 17.9882 16.0857C17.6679 15.504 17.5 14.8507 17.5 14.1867C17.5 13.5226 17.6679 12.8693 17.9882 12.2876C18.3085 11.7059 18.7707 11.2146 19.3318 10.8595C19.8929 10.5044 20.5348 10.2969 21.1976 10.2565C21.4237 10.2427 21.6498 10.2485 21.8733 10.2734L21.8733 6.74917L16.7661 6.74923C16.4661 6.74923 16.1871 6.5956 16.0267 6.34216C15.8663 6.08871 15.8469 5.77076 15.9753 5.49969C16.1332 5.16627 16.2042 4.79833 16.1817 4.43009C16.1593 4.06186 16.044 3.70528 15.8467 3.39354C15.6495 3.0818 15.3765 2.82503 15.0533 2.64709C14.7302 2.46916 14.3672 2.37585 13.9983 2.37585ZM12.0992 1.11408C12.681 0.793805 13.3342 0.625854 13.9983 0.625854C14.6624 0.625854 15.3157 0.793805 15.8974 1.11408C16.4791 1.43436 16.9704 1.89657 17.3255 2.4577C17.6806 3.01883 17.888 3.66066 17.9285 4.32349C17.9423 4.54961 17.9365 4.77567 17.9116 4.99922L21.8733 4.99917C22.3374 4.99917 22.7825 5.18354 23.1107 5.51172C23.4389 5.8399 23.6233 6.28502 23.6233 6.74915L23.6233 11.4189C23.6233 11.7188 23.4697 11.9979 23.2163 12.1583C22.9628 12.3187 22.6449 12.3381 22.3738 12.2097C22.0404 12.0518 21.6724 11.9808 21.3042 12.0032C20.936 12.0257 20.5794 12.1409 20.2677 12.3382C19.9559 12.5355 19.6991 12.8085 19.5212 13.1316C19.3433 13.4548 19.25 13.8177 19.25 14.1867C19.25 14.5556 19.3433 14.9185 19.5212 15.2417C19.6991 15.5649 19.9559 15.8378 20.2677 16.0351C20.5794 16.2324 20.936 16.3476 21.3042 16.3701C21.6724 16.3926 22.0404 16.3216 22.3738 16.1636C22.6449 16.0353 22.9628 16.0547 23.2163 16.2151C23.4697 16.3755 23.6233 16.6545 23.6233 16.9544L23.6233 21.6242C23.6233 22.0883 23.4389 22.5334 23.1107 22.8616C22.7825 23.1898 22.3374 23.3742 21.8733 23.3742L6.12333 23.3742C5.89351 23.3742 5.66594 23.3289 5.45363 23.241C5.24131 23.153 5.04839 23.0241 4.88588 22.8616C4.72338 22.6991 4.59448 22.5062 4.50653 22.2939C4.41859 22.0815 4.37332 21.854 4.37333 21.6241L4.37337 18.1C4.14982 18.1249 3.92376 18.1307 3.69764 18.1169C3.03481 18.0764 2.39298 17.869 1.83185 17.5139C1.27071 17.1587 0.80851 16.6675 0.488231 16.0857C0.167951 15.504 0 14.8507 0 14.1867C0 13.5226 0.167951 12.8693 0.488231 12.2876C0.80851 11.7059 1.27071 11.2146 1.83185 10.8595C2.39298 10.5044 3.03481 10.2969 3.69764 10.2565C3.92376 10.2427 4.14982 10.2485 4.37337 10.2734L4.37333 6.74919C4.37333 6.51938 4.41859 6.29181 4.50654 6.07948C4.59448 5.86716 4.72339 5.67424 4.88589 5.51173C5.0484 5.34923 5.24132 5.22032 5.45365 5.13238C5.66597 5.04443 5.89354 4.99917 6.12336 4.99917L10.085 4.99922C10.0601 4.77567 10.0543 4.54961 10.0681 4.32349C10.1086 3.66066 10.316 3.01883 10.6711 2.4577C11.0263 1.89657 11.5175 1.43436 12.0992 1.11408Z" fill="currentColor"/>
</svg>
